<svg width="120" height="32" viewBox="0 0 120 32" fill="none" xmlns="http://www.w3.org/2000/svg">
<g clip-path="url(#clip0_143_50)">
<path d="M69.927 9.01929L76.8388 6.4472L69.927 3.80161V0.200684L81.7652 4.97743V7.91696L69.927 12.6937V9.01929Z" fill="#A100FF"/>
<path d="M4.55931 31.8008C2.05931 31.8008 0.000488281 30.5515 0.000488281 27.7589V27.612C0.000488281 24.2315 2.94166 23.0557 6.54461 23.0557H8.23578V22.3943C8.23578 20.998 7.64755 20.1896 6.17696 20.1896C4.85343 20.1896 4.19166 20.9245 4.11813 21.9534H0.441665C0.735782 18.8668 3.16225 17.3971 6.39755 17.3971C9.70637 17.3971 12.1328 18.7934 12.1328 22.2473V31.5068H8.38284V29.8901C7.64755 30.9189 6.39755 31.8008 4.55931 31.8008ZM8.23578 26.9506V25.6278H6.69166C4.7799 25.6278 3.82402 26.1422 3.82402 27.3915V27.5385C3.82402 28.4938 4.41225 29.1552 5.73578 29.1552C7.05931 29.0817 8.23578 28.3468 8.23578 26.9506ZM20.8828 31.8008C17.0593 31.8008 14.2652 29.4492 14.2652 24.7459V24.5255C14.2652 19.8222 17.2064 17.3236 20.8828 17.3236C24.0446 17.3236 26.6181 18.9403 26.9123 22.5413H23.2358C23.0152 21.2185 22.2799 20.3366 20.9564 20.3366C19.3387 20.3366 18.1623 21.6594 18.1623 24.3785V24.8194C18.1623 27.612 19.1917 28.8613 20.9564 28.8613C22.2799 28.8613 23.2358 27.9059 23.4564 26.3627H26.9858C26.7652 29.5961 24.6328 31.8008 20.8828 31.8008ZM35.2946 31.8008C31.4711 31.8008 28.677 29.4492 28.677 24.7459V24.5255C28.677 19.8222 31.6181 17.3236 35.2946 17.3236C38.4564 17.3236 41.0299 18.9403 41.324 22.5413H37.6475C37.427 21.2185 36.6917 20.3366 35.3681 20.3366C33.7505 20.3366 32.574 21.6594 32.574 24.3785V24.8194C32.574 27.612 33.6034 28.8613 35.3681 28.8613C36.6917 28.8613 37.6475 27.9059 37.8681 26.3627H41.3975C41.177 29.5961 39.0446 31.8008 35.2946 31.8008ZM49.7799 31.8008C45.8093 31.8008 43.0887 29.4492 43.0887 24.8194V24.5255C43.0887 19.8957 45.9564 17.3236 49.7064 17.3236C53.1623 17.3236 56.0299 19.2343 56.0299 23.8641V25.5543H46.9858C47.1328 28.0529 48.2358 29.0082 49.8534 29.0082C51.324 29.0082 52.1328 28.1999 52.427 27.2445H56.0299C55.5887 29.8166 53.3828 31.8008 49.7799 31.8008ZM47.0593 22.9822H52.2064C52.1328 20.9245 51.177 20.0427 49.6328 20.0427C48.4564 20.1161 47.3534 20.7775 47.0593 22.9822ZM58.3828 17.691H62.2799V19.7487C62.9417 18.4259 64.3387 17.3971 66.4711 17.3971C68.9711 17.3971 70.6622 18.9403 70.6622 22.2473V31.5068H66.7652V22.8352C66.7652 21.2185 66.1034 20.4836 64.7064 20.4836C63.3828 20.4836 62.2799 21.292 62.2799 23.0557V31.5068H58.3828V17.691ZM77.7946 13.5022V17.691H80.4417V20.5571H77.7946V27.0975C77.7946 28.1264 78.2358 28.6408 79.1917 28.6408C79.7799 28.6408 80.1475 28.5673 80.5152 28.4203V31.4334C80.074 31.5803 79.2652 31.7273 78.3093 31.7273C75.2946 31.7273 73.8975 30.331 73.8975 27.5385V20.5571H72.2799V17.691H73.8975V15.1189L77.7946 13.5022ZM95.0005 31.5068H91.177V29.4492C90.5152 30.772 89.1917 31.8008 87.1328 31.8008C84.6328 31.8008 82.7946 30.2575 82.7946 27.0241V17.691H86.6917V26.5096C86.6917 28.1264 87.3534 28.8613 88.677 28.8613C90.0005 28.8613 91.1034 27.9794 91.1034 26.2892V17.691H95.0005V31.5068ZM97.8681 17.691H101.765V20.2631C102.574 18.4259 103.898 17.5441 105.956 17.5441V21.3655C103.309 21.3655 101.765 22.1738 101.765 24.452V31.5803H97.8681V17.691ZM113.824 31.8008C109.853 31.8008 107.133 29.4492 107.133 24.8194V24.5255C107.133 19.8957 110 17.3236 113.75 17.3236C117.206 17.3236 120.074 19.2343 120.074 23.8641V25.5543H111.103C111.25 28.0529 112.353 29.0082 113.971 29.0082C115.442 29.0082 116.25 28.1999 116.545 27.2445H120.148C119.559 29.8166 117.427 31.8008 113.824 31.8008ZM111.03 22.9822H116.25C116.177 20.9245 115.221 20.0427 113.677 20.0427C112.5 20.1161 111.398 20.7775 111.03 22.9822Z" fill="black"/>
</g>
<defs>
<clipPath id="clip0_143_50">
<rect width="120" height="31.6" fill="white" transform="translate(0 0.199951)"/>
</clipPath>
</defs>
</svg>
