<svg width="120" height="38" viewBox="0 0 120 38" fill="none" xmlns="http://www.w3.org/2000/svg">
<g clip-path="url(#clip0_143_11)">
<path fill-rule="evenodd" clip-rule="evenodd" d="M74.4452 29.1876C67.4718 34.3215 57.3643 37.0606 48.6619 37.0606C36.4597 37.0606 25.4747 32.5528 17.164 25.0554C16.5111 24.4659 17.0961 23.6624 17.8797 24.1215C26.8484 29.3337 37.938 32.4693 49.3932 32.4693C57.1188 32.4693 65.6174 30.8728 73.4318 27.5598C74.6123 27.0589 75.5996 28.3319 74.4452 29.1876Z" fill="#FF9900"/>
<path fill-rule="evenodd" clip-rule="evenodd" d="M77.3449 25.8742C76.4569 24.7368 71.4528 25.3368 69.2066 25.6029C68.5224 25.6863 68.4179 25.0916 69.0343 24.6637C73.0198 21.862 79.5597 22.6707 80.3223 23.6098C81.0849 24.5542 80.1238 31.102 76.3785 34.2272C75.8039 34.7072 75.2555 34.4515 75.5114 33.815C76.3524 31.7176 78.2381 27.0168 77.3449 25.8742Z" fill="#FF9900"/>
<path fill-rule="evenodd" clip-rule="evenodd" d="M69.3632 4.88531V2.16184C69.3632 1.74967 69.6766 1.47314 70.0527 1.47314H82.2601C82.6518 1.47314 82.9652 1.75488 82.9652 2.16184V4.49401C82.96 4.88532 82.6309 5.39662 82.0459 6.20531L75.7202 15.2262C78.0708 15.1688 80.552 15.5184 82.6832 16.7184C83.1637 16.9897 83.2943 17.3862 83.3309 17.7775V20.6836C83.3309 21.0801 82.8921 21.5444 82.4324 21.3044C78.6767 19.3375 73.6883 19.1236 69.5356 21.3253C69.1125 21.5549 68.6685 21.0957 68.6685 20.6992V17.9392C68.6685 17.4957 68.6737 16.7392 69.1177 16.0662L76.4463 5.56879H70.0684C69.6766 5.56879 69.3632 5.29227 69.3632 4.88531Z" fill="black"/>
<path fill-rule="evenodd" clip-rule="evenodd" d="M24.8324 21.8778H21.1185C20.7633 21.8517 20.4812 21.5856 20.4551 21.2465V2.20827C20.4551 1.8274 20.7737 1.52479 21.1707 1.52479H24.6339C24.9943 1.54043 25.2816 1.81696 25.3077 2.16131V4.65H25.3756C26.2793 2.24479 27.977 1.12305 30.2649 1.12305C32.5893 1.12305 34.0415 2.24479 35.0862 4.65C35.9846 2.24479 38.027 1.12305 40.2157 1.12305C41.7723 1.12305 43.4751 1.76479 44.5146 3.20478C45.6899 4.80652 45.4496 7.13348 45.4496 9.17348L45.4444 21.1891C45.4444 21.57 45.1258 21.8778 44.7288 21.8778H41.0201C40.6492 21.8517 40.3515 21.5543 40.3515 21.1891V11.0987C40.3515 10.2952 40.4246 8.29174 40.247 7.53C39.9702 6.25174 39.1396 5.89174 38.0636 5.89174C37.1651 5.89174 36.2249 6.49174 35.8436 7.45174C35.4623 8.41174 35.4988 10.0187 35.4988 11.0987V21.1891C35.4988 21.57 35.1802 21.8778 34.7832 21.8778H31.0745C30.6984 21.8517 30.4059 21.5543 30.4059 21.1891L30.4007 11.0987C30.4007 8.97522 30.7506 5.85 28.1128 5.85C25.4435 5.85 25.548 8.89695 25.548 11.0987V21.1891C25.548 21.57 25.2294 21.8778 24.8324 21.8778Z" fill="black"/>
<path fill-rule="evenodd" clip-rule="evenodd" d="M93.4748 1.12305C98.9856 1.12305 101.968 5.85 101.968 11.8604C101.968 17.6674 98.6722 22.2743 93.4748 22.2743C88.0633 22.2743 85.1172 17.5474 85.1172 11.657C85.1172 5.73 88.0998 1.12305 93.4748 1.12305ZM93.5062 5.01C90.769 5.01 90.5967 8.73521 90.5967 11.057C90.5967 13.3839 90.5601 18.3509 93.4748 18.3509C96.353 18.3509 96.4888 14.3439 96.4888 11.9022C96.4888 10.2952 96.4209 8.37522 95.9351 6.85174C95.5172 5.52652 94.6867 5.01 93.5062 5.01Z" fill="black"/>
<path fill-rule="evenodd" clip-rule="evenodd" d="M109.114 21.8778H105.416C105.045 21.8517 104.747 21.5543 104.747 21.1891L104.742 2.14565C104.773 1.79609 105.081 1.52479 105.458 1.52479H108.9C109.224 1.54043 109.49 1.75957 109.563 2.05696V4.96826H109.631C110.671 2.36479 112.128 1.12305 114.693 1.12305C116.359 1.12305 117.984 1.72305 119.028 3.36652C120 4.89 120 7.45174 120 9.29347V21.2778C119.958 21.6117 119.65 21.8778 119.284 21.8778H115.56C115.22 21.8517 114.938 21.6013 114.902 21.2778V10.937C114.902 8.85522 115.142 5.80826 112.577 5.80826C111.674 5.80826 110.843 6.41348 110.43 7.33174C109.908 8.49522 109.84 9.65348 109.84 10.937V21.1891C109.835 21.57 109.511 21.8778 109.114 21.8778Z" fill="black"/>
<path fill-rule="evenodd" clip-rule="evenodd" d="M59.6315 12.7839C59.6315 14.2291 59.6681 15.4343 58.9368 16.7178C58.3465 17.7613 57.4063 18.403 56.3668 18.403C54.9408 18.403 54.105 17.3178 54.105 15.7161C54.105 12.5543 56.9414 11.9804 59.6315 11.9804V12.7839ZM63.3768 21.8256C63.1313 22.0448 62.7761 22.0604 62.4992 21.9143C61.2665 20.8917 61.0419 20.4169 60.368 19.4413C58.3309 21.5178 56.8839 22.1387 54.2461 22.1387C51.1172 22.1387 48.6882 20.2135 48.6882 16.3578C48.6882 13.3474 50.318 11.2969 52.6477 10.2952C54.6639 9.40825 57.4794 9.25173 59.6315 9.00651V8.52651C59.6315 7.64477 59.6994 6.60129 59.1771 5.83956C58.7278 5.15608 57.8607 4.87434 57.0929 4.87434C55.6773 4.87434 54.4184 5.59956 54.1102 7.10216C54.0476 7.43608 53.8021 7.76477 53.4625 7.78043L49.8635 7.39434C49.5606 7.32651 49.221 7.08129 49.3098 6.61695C50.1351 2.25521 54.0841 0.94043 57.6152 0.94043C59.4226 0.94043 61.7836 1.42043 63.2096 2.78738C65.017 4.4726 64.8446 6.7213 64.8446 9.16825V14.9491C64.8446 16.6865 65.5654 17.4482 66.2445 18.3874C66.4796 18.7213 66.5318 19.123 66.2288 19.3735C65.4714 20.0048 64.1237 21.1787 63.382 21.8361L63.3768 21.8256Z" fill="black"/>
<path fill-rule="evenodd" clip-rule="evenodd" d="M10.943 12.7839C10.943 14.2291 10.9796 15.4343 10.2483 16.7178C9.65805 17.7613 8.72304 18.403 7.67833 18.403C6.25231 18.403 5.42177 17.3178 5.42177 15.7161C5.42177 12.5543 8.25814 11.9804 10.943 11.9804V12.7839ZM14.6883 21.8256C14.4428 22.0448 14.0876 22.0604 13.8107 21.9143C12.578 20.8917 12.3586 20.4169 11.6796 19.4413C9.64238 21.5178 8.20069 22.1387 5.55758 22.1387C2.43391 22.1387 -0.000244141 20.2135 -0.000244141 16.3578C-0.000244141 13.3474 1.63472 11.2969 3.95918 10.2952C5.97546 9.40825 8.79094 9.25173 10.943 9.00651V8.52651C10.943 7.64477 11.0109 6.60129 10.4938 5.83956C10.0394 5.15608 9.17226 4.87434 8.40963 4.87434C6.99405 4.87434 5.72996 5.59956 5.42177 7.10216C5.35909 7.43608 5.11358 7.76477 4.77928 7.78043L1.17505 7.39434C0.872084 7.32651 0.537778 7.08129 0.621354 6.61695C1.45189 2.25521 5.39565 0.94043 8.92676 0.94043C10.7341 0.94043 13.0951 1.42043 14.5211 2.78738C16.3285 4.4726 16.1561 6.7213 16.1561 9.16825V14.9491C16.1561 16.6865 16.877 17.4482 17.556 18.3874C17.7963 18.7213 17.8485 19.123 17.5456 19.3735C16.7882 20.0048 15.4405 21.1787 14.6987 21.8361L14.6883 21.8256Z" fill="black"/>
</g>
<defs>
<clipPath id="clip0_143_11">
<rect width="120" height="36.12" fill="white" transform="translate(0 0.939941)"/>
</clipPath>
</defs>
</svg>
