<svg width="58" height="58" viewBox="0 0 58 58" fill="none" xmlns="http://www.w3.org/2000/svg">
<g clip-path="url(#clip0_143_54)">
<path d="M17.6452 40.353C15.8452 42.153 14.0452 43.0602 12.058 43.0602C7.91084 43.0602 4.85804 40.0074 4.85804 35.6874C4.85804 31.3674 7.91084 28.3146 12.058 28.3146C14.0452 28.3146 16.018 29.2074 17.6452 30.8346L17.818 31.0074L20.5252 27.7674C18.3652 25.2474 15.658 23.8074 12.4324 23.8074C9.20683 23.8074 6.12523 24.8874 3.96523 26.8746C1.63243 29.0346 0.365234 32.0874 0.365234 35.6874C0.365234 39.2874 1.63243 42.3402 3.96523 44.5002C6.12523 46.4874 9.17803 47.553 12.4324 47.553C15.6868 47.553 18.3652 46.2858 20.5252 43.593L17.6452 40.353Z" fill="#003B70"/>
<path d="M22.8711 47.1794H27.5367V24.1394H22.8711V47.1794Z" fill="#003B70"/>
<path d="M45.9124 42.1393C44.6452 42.8593 43.5796 43.2193 42.4852 43.2193C41.0452 43.2193 40.3252 42.4993 40.3252 40.6993V28.6321H45.0052V24.3121H40.138V17.1121L35.458 19.6321V24.3121H31.498V28.6321H35.458V41.5921C35.458 45.1921 37.618 47.5249 40.6708 47.5249C42.8308 47.5249 44.098 46.9777 44.818 46.4449L45.898 41.9521L45.9124 42.1393Z" fill="#003B70"/>
<path d="M49.8594 47.1794H54.5538V24.1394H49.8594V47.1794Z" fill="#003B70"/>
<path d="M57.4331 20.1934C53.1131 14.0734 46.0859 10.4734 38.7131 10.4734C31.5131 10.4734 24.3131 14.0734 19.9931 20.1934L19.8203 20.5534H25.2203C28.8203 16.7806 33.6875 14.7934 38.7275 14.7934C43.5947 14.7934 48.4475 16.7806 52.2347 20.5534H57.6347L57.4331 20.1934Z" fill="#D9261C"/>
</g>
<defs>
<clipPath id="clip0_143_54">
<rect width="57.6" height="57.6" fill="white" transform="translate(0 0.199951)"/>
</clipPath>
</defs>
</svg>
