<svg width="120" height="24" viewBox="0 0 120 24" fill="none" xmlns="http://www.w3.org/2000/svg">
<g clip-path="url(#clip0_143_26)">
<path d="M113.275 19.9062C113.275 18.1274 114.725 16.7439 116.44 16.7439C118.22 16.7439 119.605 18.1933 119.605 19.9062C119.605 21.6192 118.154 23.0686 116.44 23.0686C114.725 23.0686 113.275 21.6851 113.275 19.9062Z" fill="#86BC25"/>
<path d="M18.1978 11.4069C18.1978 15.0963 17.2747 17.8634 15.2967 19.8398C13.3187 21.8163 10.5495 22.8045 6.98901 22.8045H0V0.865723H7.38462C10.8791 0.865723 13.5165 1.72219 15.3626 3.5669C17.2747 5.34572 18.1978 7.98102 18.1978 11.4069ZM12.1319 11.6045C12.1319 9.56219 11.7363 8.11278 10.9451 7.12455C10.2198 6.20219 8.96703 5.67513 7.38462 5.67513H5.8022V17.9293H7.12088C8.9011 17.9293 10.1538 17.4022 11.011 16.3481C11.7363 15.294 12.1319 13.7128 12.1319 11.6045Z" fill="black"/>
<path d="M42.8568 0.800049H37.3843V22.8048H42.8568V0.800049Z" fill="black"/>
<path d="M60.9229 14.5689C60.9229 17.2042 60.2635 19.3125 58.813 20.8278C57.3624 22.343 55.3844 23.0678 52.8789 23.0678C50.4393 23.0678 48.5273 22.343 47.0767 20.7619C45.6262 19.1807 44.9009 17.1383 44.9009 14.5689C44.9009 11.9336 45.5602 9.8254 47.0108 8.37599C48.4613 6.86069 50.4393 6.13599 52.9448 6.13599C54.5273 6.13599 55.9119 6.4654 57.0987 7.12422C58.3514 7.78305 59.2086 8.77128 59.8679 10.023C60.6591 11.4066 60.9229 12.856 60.9229 14.5689ZM50.5712 14.5689C50.5712 16.0183 50.769 17.0066 51.0987 17.7313C51.4284 18.456 52.0218 18.7854 52.9448 18.7854C53.8679 18.7854 54.3954 18.456 54.791 17.7313C55.1207 17.0066 55.3185 15.8866 55.3185 14.5689C55.3185 13.1195 55.1207 12.1313 54.791 11.4066C54.4613 10.7478 53.8679 10.3525 52.9448 10.3525C52.1536 10.3525 51.4943 10.6819 51.0987 11.4066C50.769 12.1313 50.5712 13.1195 50.5712 14.5689Z" fill="black"/>
<path d="M68.6373 6.40015H63.1648V22.739H68.6373V6.40015Z" fill="black"/>
<path d="M68.6373 0.800049H63.1648V4.48946H68.6373V0.800049Z" fill="black"/>
<path d="M79.7798 18.5876C80.5051 18.5876 81.4281 18.39 82.4172 18.0606V22.2112C81.6919 22.5406 80.9666 22.7382 80.3073 22.87C79.6479 23.0017 78.8567 23.0676 77.9336 23.0676C76.0875 23.0676 74.7688 22.6065 73.9117 21.6182C73.1204 20.6959 72.6589 19.2465 72.6589 17.3359V10.6159H70.7468V6.39939H72.6589V2.31469L78.1974 1.39233V6.53116H81.7578V10.6817H78.1974V17.0065C78.3292 18.1265 78.7908 18.5876 79.7798 18.5876Z" fill="black"/>
<path d="M92.5713 18.5876C93.2966 18.5876 94.2196 18.39 95.2087 18.0606V22.2112C94.4834 22.5406 93.7581 22.7382 93.0988 22.87C92.4394 23.0017 91.6482 23.0676 90.7251 23.0676C88.879 23.0676 87.5603 22.6065 86.7032 21.6182C85.912 20.6959 85.4504 19.2465 85.4504 17.3359V10.6159H83.5383V6.39939H85.4504V2.2488L90.9889 1.39233V6.53116H94.5493V10.6817H90.9889V17.0065C91.0548 18.1265 91.5823 18.5876 92.5713 18.5876Z" fill="black"/>
<path d="M109.978 8.04657C108.659 6.72893 106.813 6.13599 104.439 6.13599C101.934 6.13599 99.9559 6.86069 98.5713 8.37599C97.1867 9.89128 96.5273 11.9995 96.5273 14.7666C96.5273 17.4019 97.2526 19.5101 98.7032 20.9595C100.22 22.4089 102.264 23.1336 104.901 23.1336C106.22 23.1336 107.275 23.0677 108.198 22.8701C109.055 22.6725 110.044 22.4089 110.835 21.9477L110.044 18.2583C109.45 18.5219 108.791 18.7195 108.264 18.8513C107.472 19.0489 106.549 19.1148 105.626 19.1148C104.571 19.1148 103.714 18.8513 103.121 18.3901C102.527 17.863 102.198 17.1383 102.198 16.216H112.022V13.6466C111.956 11.2089 111.231 9.36422 109.978 8.04657ZM102.198 12.5925C102.264 11.736 102.527 11.0113 102.923 10.616C103.319 10.2207 103.846 10.023 104.571 10.023C105.231 10.023 105.89 10.2207 106.286 10.6819C106.681 11.143 106.879 11.736 106.945 12.5925H102.198Z" fill="black"/>
<path d="M33.2967 8.04657C31.9121 6.72893 30.1319 6.13599 27.7583 6.13599C25.2528 6.13599 23.2748 6.86069 21.8901 8.37599C20.5055 9.89128 19.8462 11.9995 19.8462 14.7666C19.8462 17.4019 20.5715 19.5101 22.022 20.9595C23.5385 22.4089 25.5825 23.1336 28.2198 23.1336C29.5385 23.1336 30.5934 23.0677 31.5165 22.8701C32.3737 22.6725 33.3627 22.4089 34.1539 21.9477L33.3627 18.1925C32.7693 18.456 32.1099 18.6536 31.5825 18.7854C30.7912 18.983 29.8682 19.0489 28.9451 19.0489C27.8901 19.0489 27.033 18.7854 26.4396 18.3242C25.8462 17.7972 25.5165 17.0725 25.5165 16.1501H35.3407V13.6466C35.2748 11.2089 34.5495 9.36422 33.2967 8.04657ZM25.4506 12.5925C25.5165 11.736 25.7803 11.0113 26.1759 10.616C26.5715 10.2207 27.0989 10.023 27.8242 10.023C28.5495 10.023 29.1429 10.2207 29.5385 10.6819C29.9341 11.143 30.1319 11.736 30.1978 12.5925H25.4506Z" fill="black"/>
</g>
<defs>
<clipPath id="clip0_143_26">
<rect width="120" height="22.4" fill="white" transform="translate(0 0.800049)"/>
</clipPath>
</defs>
</svg>
