<svg width="343" height="194" viewBox="0 0 343 194" fill="none" xmlns="http://www.w3.org/2000/svg">
<g clip-path="url(#clip0_313_611)">
<path d="M162.582 193.863H30.1221C29.0844 193.861 28.0899 193.448 27.3568 192.713C26.6237 191.978 26.2119 190.982 26.2119 189.944V3.63692C26.2209 2.60461 26.6367 1.61755 27.3688 0.890139C28.1009 0.162729 29.0904 -0.246278 30.1221 -0.248047H162.582C163.621 -0.248047 164.617 0.164877 165.352 0.899887C166.086 1.6349 166.499 2.63178 166.499 3.67124V189.944C166.499 190.983 166.086 191.98 165.352 192.715C164.617 193.45 163.621 193.863 162.582 193.863ZM30.1221 -0.110768C29.1299 -0.10895 28.179 0.286696 27.478 0.989328C26.7771 1.69196 26.3834 2.64416 26.3834 3.63692V189.944C26.3834 190.937 26.7771 191.889 27.478 192.591C28.179 193.294 29.1299 193.69 30.1221 193.692H162.582C163.575 193.69 164.526 193.294 165.228 192.592C165.93 191.889 166.326 190.937 166.327 189.944V3.63692C166.326 2.64353 165.93 1.69134 165.228 0.988909C164.526 0.286473 163.575 -0.108954 162.582 -0.110768H30.1221Z" fill="#EBEBEB"/>
<path d="M310.971 193.863H178.504C177.466 193.861 176.47 193.448 175.736 192.713C175.002 191.979 174.589 190.983 174.587 189.944V3.63692C174.598 2.60398 175.015 1.61693 175.748 0.889709C176.481 0.162489 177.472 -0.246298 178.504 -0.248047H310.971C312.001 -0.244475 312.989 0.165331 313.719 0.892547C314.45 1.61976 314.865 2.60579 314.874 3.63692V189.944C314.874 190.981 314.463 191.976 313.731 192.71C313 193.445 312.007 193.86 310.971 193.863ZM178.504 -0.110768C177.511 -0.108954 176.559 0.286473 175.857 0.988909C175.155 1.69134 174.76 2.64353 174.758 3.63692V189.944C174.76 190.937 175.155 191.889 175.857 192.592C176.559 193.294 177.511 193.69 178.504 193.692H310.971C311.963 193.69 312.915 193.294 313.617 192.592C314.319 191.889 314.714 190.937 314.716 189.944V3.63692C314.714 2.64353 314.319 1.69134 313.617 0.988909C312.915 0.286473 311.963 -0.108954 310.971 -0.110768H178.504Z" fill="#EBEBEB"/>
<path d="M102.338 128.532H86.9712V193.712H102.338V128.532Z" fill="#E6E6E6"/>
<path d="M127.953 106.308H112.586V193.713H127.953V106.308Z" fill="#E0E0E0"/>
<path d="M153.568 128.532H138.202V193.712H153.568V128.532Z" fill="#EBEBEB"/>
<path d="M51.1071 150.751H35.7407V193.705H51.1071V150.751Z" fill="#F0F0F0"/>
<path d="M76.7224 140.022H61.356V193.705H76.7224V140.022Z" fill="#EBEBEB"/>
<path d="M179.183 150.751H163.817V193.705H179.183V150.751Z" fill="#F5F5F5"/>
<path d="M307.253 84.082H291.886V193.712H307.253V84.082Z" fill="#E0E0E0"/>
<path d="M204.799 128.532H189.432V193.712H204.799V128.532Z" fill="#F0F0F0"/>
<path d="M281.637 106.308H266.271V193.713H281.637V106.308Z" fill="#E6E6E6"/>
<path d="M256.029 117.798H240.663V193.706H256.029V117.798Z" fill="#EBEBEB"/>
<path d="M230.414 140.022H215.047V193.705H230.414V140.022Z" fill="#F0F0F0"/>
<path d="M57.0214 110.252C58.3817 104.485 54.8123 98.7073 49.0489 97.3462C43.2856 95.9852 37.5108 99.5566 36.1505 105.323C34.7902 111.09 38.3596 116.868 44.123 118.229C49.8863 119.59 55.6611 116.019 57.0214 110.252Z" fill="#E0E0E0"/>
<path d="M55.4566 115.376C59.6439 111.186 59.6439 104.394 55.4566 100.204C51.2693 96.0143 44.4804 96.0143 40.2932 100.204C36.1059 104.394 36.1059 111.186 40.2931 115.376C44.4804 119.566 51.2693 119.566 55.4566 115.376Z" fill="#E6E6E6"/>
<path d="M47.8758 115.82C52.3086 115.82 55.902 112.225 55.902 107.79C55.902 103.354 52.3086 99.7588 47.8758 99.7588C43.4431 99.7588 39.8496 103.354 39.8496 107.79C39.8496 112.225 43.4431 115.82 47.8758 115.82Z" fill="#F0F0F0"/>
<path d="M51.402 109.499C51.7107 111.277 50.4896 112.464 48.2944 112.649L48.2601 114.118H46.9224L46.9636 112.649C45.8147 112.562 44.7016 112.21 43.7119 111.62L44.3156 109.966C45.1208 110.503 46.0429 110.839 47.0047 110.947L47.0665 108.696C45.7562 108.318 44.3225 107.824 44.0275 106.211C43.7188 104.433 44.9604 103.232 47.2037 103.074V101.605H48.5688V103.088C49.4754 103.166 50.3572 103.425 51.1619 103.85L50.5994 105.456C49.9557 105.077 49.2369 104.842 48.4933 104.77L48.4385 107.117C49.7281 107.515 51.1276 107.968 51.402 109.499ZM47.1008 106.753L47.1556 104.832C46.4216 104.976 46.0649 105.387 46.1404 105.895C46.2158 106.403 46.5863 106.547 47.1008 106.753ZM49.296 109.849C49.2342 109.458 48.8844 109.218 48.3836 109.046L48.3424 110.872C49.0421 110.728 49.392 110.357 49.296 109.849Z" fill="white"/>
<path d="M301.874 17.2412H246.041C243.203 17.2412 240.903 19.5429 240.903 22.3823V43.4956C240.903 46.335 243.203 48.6367 246.041 48.6367H301.874C304.712 48.6367 307.012 46.335 307.012 43.4956V22.3823C307.012 19.5429 304.712 17.2412 301.874 17.2412Z" fill="#F0F0F0"/>
<path d="M258.066 21.5176H253.415C253.143 21.5176 252.921 21.7388 252.921 22.0118V44.3057C252.921 44.5787 253.143 44.7999 253.415 44.7999H258.066C258.339 44.7999 258.56 44.5787 258.56 44.3057V22.0118C258.56 21.7388 258.339 21.5176 258.066 21.5176Z" fill="white"/>
<path d="M296.139 21.5176H291.488C291.216 21.5176 290.994 21.7388 290.994 22.0118V44.3057C290.994 44.5787 291.216 44.7999 291.488 44.7999H296.139C296.412 44.7999 296.633 44.5787 296.633 44.3057V22.0118C296.633 21.7388 296.412 21.5176 296.139 21.5176Z" fill="white"/>
<path d="M277.761 29.1982H273.11C272.838 29.1982 272.616 29.4195 272.616 29.6924V44.3126C272.616 44.5855 272.838 44.8068 273.11 44.8068H277.761C278.034 44.8068 278.255 44.5855 278.255 44.3126V29.6924C278.255 29.4195 278.034 29.1982 277.761 29.1982Z" fill="white"/>
<path d="M267.999 32.9385H263.348C263.076 32.9385 262.854 33.1597 262.854 33.4327V44.3051C262.854 44.578 263.076 44.7993 263.348 44.7993H267.999C268.272 44.7993 268.493 44.578 268.493 44.3051V33.4327C268.493 33.1597 268.272 32.9385 267.999 32.9385Z" fill="white"/>
<path d="M286.954 42.0547H282.303C282.03 42.0547 281.809 42.2759 281.809 42.5489V44.3061C281.809 44.579 282.03 44.8002 282.303 44.8002H286.954C287.227 44.8002 287.448 44.579 287.448 44.3061V42.5489C287.448 42.2759 287.227 42.0547 286.954 42.0547Z" fill="white"/>
<path d="M293.896 21.38C293.834 21.3495 293.767 21.332 293.698 21.3287C293.629 21.3254 293.561 21.3363 293.496 21.3608C293.432 21.3853 293.373 21.4228 293.324 21.471C293.275 21.5192 293.236 21.577 293.21 21.6409L284.978 39.487C284.943 39.5728 284.884 39.6472 284.809 39.7017C284.734 39.7563 284.646 39.789 284.553 39.7961C284.461 39.8032 284.368 39.7845 284.286 39.7421C284.203 39.6996 284.134 39.6351 284.086 39.5556L276.458 27.9419C276.387 27.8306 276.276 27.7516 276.147 27.722C276.019 27.6925 275.884 27.7148 275.772 27.784L266.168 31.6278C266.091 31.6751 266.002 31.7002 265.911 31.7002C265.82 31.7002 265.731 31.6751 265.654 31.6278L255.192 21.0849C255.132 21.0525 255.066 21.0328 254.999 21.0271C254.931 21.0214 254.862 21.0298 254.798 21.0517C254.734 21.0736 254.674 21.1086 254.624 21.1545C254.574 21.2003 254.534 21.2561 254.506 21.3182V21.3732C254.456 21.487 254.45 21.6154 254.489 21.7334C254.529 21.8513 254.61 21.9505 254.719 22.0115L265.743 32.8771C265.82 32.9259 265.909 32.9518 266 32.9518C266.091 32.9518 266.18 32.9259 266.257 32.8771L275.436 29.2667C275.491 29.2314 275.553 29.2076 275.617 29.1965C275.682 29.1853 275.748 29.1872 275.812 29.2019C275.876 29.2166 275.936 29.2438 275.989 29.282C276.042 29.3203 276.088 29.3687 276.122 29.4245L284.237 41.8276C284.285 41.9073 284.353 41.9722 284.435 42.0152C284.517 42.0582 284.61 42.0776 284.702 42.0712C284.795 42.0648 284.883 42.0328 284.959 41.9789C285.034 41.925 285.093 41.8512 285.129 41.7658L294.116 22.0321C294.167 21.9157 294.174 21.784 294.133 21.6632C294.092 21.5424 294.008 21.4413 293.896 21.38Z" fill="#E0E0E0"/>
<path d="M151.743 47.8608C157.922 47.8608 162.932 42.8486 162.932 36.6657C162.932 30.4829 157.922 25.4707 151.743 25.4707C145.564 25.4707 140.554 30.4829 140.554 36.6657C140.554 42.8486 145.564 47.8608 151.743 47.8608Z" fill="#E0E0E0"/>
<path opacity="0.8" d="M151.613 45.6513C156.572 45.6513 160.593 41.6287 160.593 36.6665C160.593 31.7043 156.572 27.6816 151.613 27.6816C146.653 27.6816 142.633 31.7043 142.633 36.6665C142.633 41.6287 146.653 45.6513 151.613 45.6513Z" fill="white"/>
<path d="M151.585 38.3268C152.089 38.3268 152.498 37.9181 152.498 37.4139C152.498 36.9097 152.089 36.501 151.585 36.501C151.082 36.501 150.673 36.9097 150.673 37.4139C150.673 37.9181 151.082 38.3268 151.585 38.3268Z" fill="#E0E0E0"/>
<path d="M151.483 37.7502L147.62 34.1124L147.998 33.7143L151.496 37.0089L157.766 31.4629L158.13 31.8747L151.483 37.7502Z" fill="#E0E0E0"/>
<path d="M194.289 128.587H148.999V247.834H194.289V128.587Z" fill="#FFC100"/>
<path opacity="0.5" d="M194.433 128.587H160.661V247.834H194.433V128.587Z" fill="black"/>
<path d="M253.456 169.242H208.167V247.827H253.456V169.242Z" fill="#FFC100"/>
<path opacity="0.3" d="M253.456 169.057H219.685V247.834H253.456V169.057Z" fill="black"/>
<path d="M134.833 149.852H89.5435V247.827H134.833V149.852Z" fill="#FFC100"/>
<path opacity="0.4" d="M134.833 149.611H101.062V247.827H134.833V149.611Z" fill="black"/>
<path d="M181.018 200.057C185.878 198.234 188.341 192.813 186.519 187.95C184.697 183.088 179.28 180.623 174.42 182.446C169.56 184.269 167.097 189.689 168.919 194.552C170.741 199.415 176.158 201.88 181.018 200.057Z" fill="#FFC100"/>
<path d="M185.912 197.81C189.276 193.855 188.799 187.92 184.846 184.555C180.893 181.189 174.962 181.666 171.598 185.621C168.234 189.576 168.711 195.511 172.664 198.877C176.617 202.243 182.548 201.765 185.912 197.81Z" fill="#FFC100"/>
<path opacity="0.4" d="M185.912 197.81C189.276 193.855 188.799 187.92 184.846 184.555C180.893 181.189 174.962 181.666 171.598 185.621C168.234 189.576 168.711 195.511 172.664 198.877C176.617 202.243 182.548 201.765 185.912 197.81Z" fill="white"/>
<path d="M185.158 194.611C184.582 195.877 183.644 196.944 182.462 197.677C181.28 198.409 179.907 198.775 178.517 198.727C177.128 198.679 175.784 198.22 174.655 197.408C173.526 196.596 172.663 195.468 172.175 194.165C171.687 192.862 171.596 191.444 171.913 190.09C172.23 188.735 172.942 187.505 173.958 186.555C174.974 185.605 176.248 184.978 177.62 184.753C178.992 184.528 180.4 184.715 181.666 185.29C183.364 186.063 184.686 187.48 185.34 189.227C185.995 190.975 185.93 192.912 185.158 194.611Z" fill="#FFC100"/>
<path opacity="0.3" d="M182.016 193.787C181.908 193.359 181.668 192.975 181.33 192.689C181.689 192.674 182.037 192.557 182.332 192.353C182.632 192.146 182.869 191.861 183.018 191.529C183.147 191.261 183.207 190.965 183.193 190.668C183.179 190.37 183.09 190.081 182.936 189.827C182.641 189.363 182.232 188.982 181.749 188.722L181.989 188.193L181.179 187.829L180.96 188.317L180.15 187.946L180.37 187.459L179.56 187.088L179.341 187.582L177.585 186.779L174.292 194.034L176.041 194.838L175.808 195.352L176.618 195.716L176.851 195.201L177.66 195.572L177.427 196.087L178.236 196.451L178.483 195.915C179.094 196.189 179.768 196.291 180.432 196.21C180.737 196.154 181.022 196.021 181.262 195.824C181.502 195.627 181.688 195.373 181.804 195.085C182.019 194.689 182.094 194.231 182.016 193.787ZM178.696 188.804L180.363 189.566C180.7 189.693 180.993 189.915 181.207 190.204C181.276 190.323 181.313 190.458 181.313 190.596C181.313 190.733 181.276 190.868 181.207 190.987C181.16 191.117 181.078 191.232 180.97 191.319C180.863 191.406 180.733 191.462 180.596 191.481C180.236 191.518 179.873 191.447 179.554 191.275L177.887 190.513L178.696 188.804ZM179.602 194.659C179.22 194.685 178.84 194.601 178.504 194.419L176.549 193.533L177.358 191.735L179.32 192.627C180.205 193.032 180.514 193.54 180.246 194.137C180.199 194.279 180.114 194.405 180 194.501C179.886 194.598 179.749 194.662 179.602 194.687V194.659Z" fill="white"/>
<path d="M91.1899 71.1357V75.2541C93.7823 75.4613 96.2431 76.4822 98.2214 78.1712L101.151 75.2404C98.3844 72.7933 94.8763 71.3477 91.1899 71.1357Z" fill="#FFC100"/>
<path d="M89.18 100.026C86.2473 99.7906 83.4942 98.5182 81.4138 96.4366C79.3334 94.3551 78.0618 91.6004 77.8267 88.666H73.7107C73.9526 92.6946 75.6593 96.4954 78.5089 99.3517C81.3585 102.208 85.1541 103.922 89.18 104.172V100.026Z" fill="#FFC100"/>
<path d="M77.8405 86.6617C78.0779 83.7305 79.3484 80.979 81.4254 78.8983C83.5025 76.8176 86.2508 75.543 89.1801 75.3019V71.1836C85.1499 71.4278 81.3484 73.1398 78.4934 75.9964C75.6384 78.853 73.9274 82.6566 73.6833 86.6892L77.8405 86.6617Z" fill="#FFC100"/>
<path opacity="0.2" d="M77.8405 86.6617C78.0779 83.7305 79.3484 80.979 81.4254 78.8983C83.5025 76.8176 86.2508 75.543 89.1801 75.3019V71.1836C85.1499 71.4278 81.3484 73.1398 78.4934 75.9964C75.6384 78.853 73.9274 82.6566 73.6833 86.6892L77.8405 86.6617Z" fill="black"/>
<path d="M102.564 76.7022L99.6346 79.6331C101.114 81.3715 102.084 83.4848 102.44 85.7401C102.795 87.9954 102.52 90.3049 101.647 92.4141C100.773 94.5233 99.3348 96.3502 97.4897 97.6933C95.6445 99.0364 93.4644 99.8436 91.1899 100.026V104.144C94.2804 103.955 97.2556 102.901 99.7766 101.103C102.298 99.3041 104.263 96.8331 105.448 93.9712C106.634 91.1093 106.992 87.9718 106.482 84.9161C105.972 81.8604 104.614 79.0096 102.564 76.6885V76.7022Z" fill="#FFC100"/>
<g opacity="0.8">
<path d="M91.1899 71.1357V75.2541C93.7823 75.4613 96.2431 76.4822 98.2214 78.1712L101.151 75.2404C98.3844 72.7933 94.8763 71.3477 91.1899 71.1357Z" fill="white"/>
</g>
<g opacity="0.6">
<path d="M89.18 100.026C86.2473 99.7906 83.4942 98.5182 81.4138 96.4366C79.3334 94.3551 78.0618 91.6004 77.8267 88.666H73.7107C73.9526 92.6946 75.6593 96.4954 78.5089 99.3517C81.3585 102.208 85.1541 103.922 89.18 104.172V100.026Z" fill="white"/>
</g>
<g opacity="0.7">
<path d="M77.8405 86.6617C78.0779 83.7305 79.3484 80.979 81.4254 78.8983C83.5025 76.8176 86.2508 75.543 89.1801 75.3019V71.1836C85.1499 71.4278 81.3484 73.1398 78.4934 75.9964C75.6384 78.853 73.9274 82.6566 73.6833 86.6892L77.8405 86.6617Z" fill="white"/>
</g>
<path opacity="0.5" d="M102.564 76.7022L99.6346 79.6331C101.114 81.3715 102.084 83.4848 102.44 85.7401C102.795 87.9954 102.52 90.3049 101.647 92.4141C100.773 94.5233 99.3348 96.3502 97.4897 97.6933C95.6445 99.0364 93.4644 99.8436 91.1899 100.026V104.144C94.2804 103.955 97.2556 102.901 99.7766 101.103C102.298 99.3041 104.263 96.8331 105.448 93.9712C106.634 91.1093 106.992 87.9718 106.482 84.9161C105.972 81.8604 104.614 79.0096 102.564 76.6885V76.7022Z" fill="white"/>
<path d="M120.256 66.7846L125.504 73.9093L155.743 61.3484L185.22 71.8364L211.926 54.56L213.84 57.0996L220.185 46.7077L205.965 45.5957L208.146 48.4717L181.42 65.5903L152.381 55.2807L120.256 66.7846Z" fill="#FFC100"/>
<g opacity="0.5">
<path d="M120.256 66.7846L125.504 73.9093L155.743 61.3484L185.22 71.8364L211.926 54.56L213.84 57.0996L220.185 46.7077L205.965 45.5957L208.146 48.4717L181.42 65.5903L152.381 55.2807L120.256 66.7846Z" fill="white"/>
</g>
<path d="M244.216 71.2188C242.9 71.2188 241.613 71.6092 240.519 72.3408C239.425 73.0724 238.572 74.1123 238.068 75.3288C237.565 76.5454 237.433 77.8841 237.69 79.1756C237.946 80.4672 238.58 81.6535 239.511 82.5847C240.441 83.5158 241.627 84.1499 242.918 84.4068C244.209 84.6637 245.547 84.5318 246.762 84.0279C247.978 83.524 249.018 82.6706 249.749 81.5757C250.48 80.4808 250.87 79.1936 250.87 77.8767C250.87 76.1109 250.169 74.4174 248.921 73.1688C247.673 71.9202 245.981 71.2188 244.216 71.2188ZM244.216 81.2057C243.558 81.2071 242.914 81.013 242.366 80.648C241.818 80.2831 241.39 79.7636 241.137 79.1555C240.884 78.5473 240.817 77.8777 240.945 77.2315C241.073 76.5853 241.389 75.9915 241.854 75.5252C242.319 75.059 242.912 74.7412 243.557 74.6122C244.203 74.4832 244.872 74.5487 245.481 74.8005C246.089 75.0523 246.609 75.4789 246.975 76.0265C247.341 76.5741 247.536 77.218 247.536 77.8767C247.534 78.7579 247.184 79.6026 246.562 80.2263C245.94 80.85 245.097 81.2021 244.216 81.2057Z" fill="#FFC100"/>
<path d="M260.989 90.7539C259.672 90.7526 258.385 91.1419 257.29 91.8726C256.195 92.6034 255.341 93.6428 254.836 94.8592C254.331 96.0757 254.199 97.4146 254.455 98.7066C254.711 99.9986 255.344 101.186 256.274 102.117C257.205 103.049 258.39 103.684 259.681 103.941C260.972 104.199 262.31 104.067 263.527 103.564C264.743 103.06 265.783 102.207 266.514 101.112C267.246 100.017 267.636 98.729 267.636 97.4119C267.636 95.6473 266.936 93.9548 265.689 92.7064C264.443 91.458 262.752 90.7557 260.989 90.7539ZM260.989 100.734C260.33 100.735 259.686 100.541 259.138 100.176C258.59 99.8106 258.162 99.2907 257.909 98.6822C257.657 98.0736 257.59 97.4037 257.718 96.7573C257.846 96.1109 258.164 95.5171 258.629 95.0511C259.095 94.5851 259.688 94.2679 260.334 94.1397C260.98 94.0114 261.65 94.0779 262.258 94.3308C262.866 94.5836 263.386 95.0113 263.751 95.5598C264.116 96.1083 264.31 96.7529 264.309 97.4119C264.307 98.2924 263.957 99.1364 263.334 99.759C262.712 100.382 261.869 100.732 260.989 100.734Z" fill="#FFC100"/>
<path d="M246.706 104.069H242.281L257.655 71.2188H262.079L246.706 104.069Z" fill="#FFC100"/>
<g opacity="0.5">
<path d="M244.216 71.2188C242.9 71.2188 241.613 71.6092 240.519 72.3408C239.425 73.0724 238.572 74.1123 238.068 75.3288C237.565 76.5454 237.433 77.8841 237.69 79.1756C237.946 80.4672 238.58 81.6535 239.511 82.5847C240.441 83.5158 241.627 84.1499 242.918 84.4068C244.209 84.6637 245.547 84.5318 246.762 84.0279C247.978 83.524 249.018 82.6706 249.749 81.5757C250.48 80.4808 250.87 79.1936 250.87 77.8767C250.87 76.1109 250.169 74.4174 248.921 73.1688C247.673 71.9202 245.981 71.2188 244.216 71.2188ZM244.216 81.2057C243.558 81.2071 242.914 81.013 242.366 80.648C241.818 80.2831 241.39 79.7636 241.137 79.1555C240.884 78.5473 240.817 77.8777 240.945 77.2315C241.073 76.5853 241.389 75.9915 241.854 75.5252C242.319 75.059 242.912 74.7412 243.557 74.6122C244.203 74.4832 244.872 74.5487 245.481 74.8005C246.089 75.0523 246.609 75.4789 246.975 76.0265C247.341 76.5741 247.536 77.218 247.536 77.8767C247.534 78.7579 247.184 79.6026 246.562 80.2263C245.94 80.85 245.097 81.2021 244.216 81.2057Z" fill="white"/>
<path d="M260.989 90.7539C259.672 90.7526 258.385 91.1419 257.29 91.8726C256.195 92.6034 255.341 93.6428 254.836 94.8592C254.331 96.0757 254.199 97.4146 254.455 98.7066C254.711 99.9986 255.344 101.186 256.274 102.117C257.205 103.049 258.39 103.684 259.681 103.941C260.972 104.199 262.31 104.067 263.527 103.564C264.743 103.06 265.783 102.207 266.514 101.112C267.246 100.017 267.636 98.729 267.636 97.4119C267.636 95.6473 266.936 93.9548 265.689 92.7064C264.443 91.458 262.752 90.7557 260.989 90.7539ZM260.989 100.734C260.33 100.735 259.686 100.541 259.138 100.176C258.59 99.8106 258.162 99.2907 257.909 98.6822C257.657 98.0736 257.59 97.4037 257.718 96.7573C257.846 96.1109 258.164 95.5171 258.629 95.0511C259.095 94.5851 259.688 94.2679 260.334 94.1397C260.98 94.0114 261.65 94.0779 262.258 94.3308C262.866 94.5836 263.386 95.0113 263.751 95.5598C264.116 96.1083 264.31 96.7529 264.309 97.4119C264.307 98.2924 263.957 99.1364 263.334 99.759C262.712 100.382 261.869 100.732 260.989 100.734Z" fill="white"/>
<path d="M246.706 104.069H242.281L257.655 71.2188H262.079L246.706 104.069Z" fill="white"/>
</g>
<path d="M168.07 74.1639C168.248 75.015 168.42 75.7563 168.619 76.532C168.818 77.3076 169.03 78.0352 169.257 78.8176C169.703 80.3208 170.217 81.8172 170.786 83.3341C171.924 86.485 173.482 89.4679 175.417 92.2023C175.987 92.9659 176.62 93.68 177.31 94.3369C178.084 95.0796 178.965 95.702 179.924 96.1833C181.763 97.0781 183.804 97.4734 185.844 97.3296C187.63 97.2062 189.384 96.7936 191.037 96.1078C191.816 95.7896 192.577 95.4276 193.315 95.0233C193.684 94.8143 194.041 94.5852 194.385 94.3369C194.728 94.083 195.071 93.8702 195.455 93.5888L193.623 90.3559L192.663 90.6098L191.655 90.8501C190.969 91.0011 190.283 91.1315 189.597 91.2207C188.359 91.4105 187.102 91.4359 185.858 91.2962C184.862 91.195 183.905 90.8509 183.073 90.2941C182.714 90.0363 182.383 89.7419 182.085 89.4155C181.721 88.9809 181.386 88.5222 181.083 88.0427C180.387 86.9488 179.779 85.8012 179.265 84.6108C178.703 83.3684 178.209 82.0574 177.742 80.7121C177.276 79.3667 176.857 77.9665 176.439 76.5937L175.849 74.5346C175.664 73.8482 175.458 73.1206 175.314 72.5234L168.07 74.1639Z" fill="#FF8B7B"/>
<path d="M167.446 70.0039C170.56 66.0434 175.28 67.4917 177.935 73.7927C179.402 77.1442 180.568 80.6196 181.42 84.1778L170.348 88.0697C167.439 82.1187 164.249 74.0604 167.446 70.0039Z" fill="#FFC100"/>
<path opacity="0.1" d="M167.446 70.0039C170.56 66.0434 175.28 67.4917 177.935 73.7927C179.402 77.1442 180.568 80.6196 181.42 84.1778L170.348 88.0697C167.439 82.1187 164.249 74.0604 167.446 70.0039Z" fill="black"/>
<path opacity="0.3" d="M172.069 76.6279C171.164 76.0101 169.291 79.6137 168.427 83.8556C169.037 85.3382 169.689 86.759 170.34 88.0769L177.002 85.7363C175.911 81.7483 174.12 78.0007 172.069 76.6279Z" fill="black"/>
<path d="M194.186 88.729L196.608 87.4043L197.458 92.8131C197.458 92.8131 193.411 95.2566 192.251 93.2386L192.375 91.8658C192.44 91.2451 192.635 90.645 192.947 90.1046C193.259 89.5642 193.681 89.0955 194.186 88.729Z" fill="#FF8B7B"/>
<path d="M199.646 87.1367L201.766 91.4884L197.438 92.82L196.587 87.4044L199.646 87.1367Z" fill="#FF8B7B"/>
<path d="M167.384 66.4623L161.731 65.6455L154.672 66.2633C153.601 66.3568 152.59 66.7996 151.794 67.5238C150.998 68.2479 150.462 69.2133 150.268 70.2718C149.477 75.4289 149.007 80.6304 148.862 85.846C148.615 91.7146 149.267 100.377 150.234 108.202L173.819 105.346C174.045 84.7546 175.602 78.3781 175.794 72.9213C175.832 71.849 175.517 70.7939 174.898 69.9183C174.278 69.0427 173.388 68.3952 172.364 68.0753L167.384 66.4623Z" fill="#FFC100"/>
<path d="M174.532 168.57L179.553 169.963L184.047 158.164L179.039 156.777L174.532 168.57Z" fill="#FF8B7B"/>
<path d="M181.79 168.398C181.393 167.882 180.818 167.532 180.178 167.416L175.012 166.414C174.897 166.388 174.776 166.406 174.673 166.464C174.57 166.523 174.493 166.617 174.457 166.73L172.872 171.445C172.784 171.704 172.8 171.987 172.918 172.233C173.036 172.48 173.246 172.67 173.503 172.763H173.558C175.465 173.518 176.755 173.258 179.732 173.834C181.563 174.191 185.419 175.413 187.964 175.31C190.509 175.207 190.536 172.654 189.452 172.461C185.611 171.864 182.668 169.558 181.79 168.398Z" fill="#263238"/>
<g opacity="0.2">
<path d="M184.047 158.171L181.653 164.444L176.713 162.859L179.032 156.777L184.047 158.171Z" fill="black"/>
</g>
<path d="M196.566 123.378C196.378 125.247 196.039 127.097 195.551 128.91C194.227 134.031 191.963 139.247 190.063 144.334C186.386 154.382 183.162 163.113 183.162 163.113L176.302 160.738C176.302 160.738 182.476 131.663 186.64 128.691H161.107C160.63 128.691 160.153 128.659 159.68 128.595C164.077 128.025 170.931 125.314 177.29 122.602C182.908 120.2 188.163 117.798 191.01 116.892C194.495 118.381 196.834 120.447 196.566 123.378Z" fill="#263238"/>
<path opacity="0.1" d="M196.566 123.378C196.378 125.247 196.039 127.097 195.551 128.91C194.227 134.031 191.963 139.247 190.063 144.334C186.386 154.382 183.162 163.113 183.162 163.113L176.302 160.738C176.302 160.738 182.476 131.663 186.64 128.691H161.107C160.63 128.691 160.153 128.659 159.68 128.595C164.077 128.025 170.931 125.314 177.29 122.602C182.908 120.2 188.163 117.798 191.01 116.892C194.495 118.381 196.834 120.447 196.566 123.378Z" fill="black"/>
<path opacity="0.6" d="M191.017 116.919C188.163 117.845 182.908 120.227 177.297 122.629C170.937 125.341 164.084 128.052 159.687 128.622C152.278 127.633 149.493 118.799 157.238 108.613C162.266 108.613 167.322 113.418 167.322 113.418C167.322 113.418 182.524 113.343 191.017 116.919Z" fill="black"/>
<path d="M209.497 158.431H215.109L209.23 144.333L205.416 150.806L209.497 158.431Z" fill="#FF8B7B"/>
<path d="M214.649 157.1L208.057 155.597C207.945 155.566 207.826 155.58 207.724 155.635C207.622 155.69 207.544 155.782 207.508 155.892L205.67 160.965C205.595 161.222 205.625 161.499 205.754 161.734C205.882 161.969 206.099 162.144 206.356 162.221H206.39C208.702 162.708 209.82 162.825 212.735 163.477C214.519 163.889 219.033 165.069 221.496 165.632C223.958 166.195 224.603 163.779 223.622 163.319C219.232 161.26 216.845 159.338 215.569 157.677C215.34 157.382 215.014 157.178 214.649 157.1Z" fill="#263238"/>
<g opacity="0.2">
<path d="M209.23 144.333L211.734 150.339L206.678 153.16L205.416 150.806L209.23 144.333Z" fill="black"/>
</g>
<path d="M211.809 148.205L205.635 151.946C205.635 151.946 200.483 141.121 195.558 128.91C196.045 127.097 196.385 125.247 196.573 123.378C196.841 120.447 194.515 118.381 191.03 116.926C188.177 117.853 182.922 120.234 177.31 122.637C170.951 125.348 164.098 128.059 159.701 128.629C159.196 128.697 158.687 128.733 158.178 128.739C149.726 128.739 146.811 121.326 150.22 108.751C155.249 108.751 163.858 108.209 163.858 108.209C163.858 108.209 180.473 104.214 192.43 105.573C195.267 105.908 197.925 107.135 200.021 109.077C202.117 111.02 203.542 113.578 204.092 116.384C207.172 131.649 211.809 148.205 211.809 148.205Z" fill="#263238"/>
<path d="M211.809 148.205L205.635 151.946C205.635 151.946 200.483 141.121 195.558 128.91C196.045 127.097 196.385 125.247 196.573 123.378C196.841 120.447 194.515 118.381 191.03 116.926C188.177 117.853 182.922 120.234 177.31 122.637C170.951 125.348 164.098 128.059 159.701 128.629C159.196 128.697 158.687 128.733 158.178 128.739C149.726 128.739 146.811 121.326 150.22 108.751C155.249 108.751 163.858 108.209 163.858 108.209C163.858 108.209 180.473 104.214 192.43 105.573C195.267 105.908 197.925 107.135 200.021 109.077C202.117 111.02 203.542 113.578 204.092 116.384C207.172 131.649 211.809 148.205 211.809 148.205Z" fill="#263238"/>
<path d="M167.384 66.4623L161.731 65.6455L154.672 66.2633C153.601 66.3568 152.59 66.7996 151.794 67.5238C150.998 68.2479 150.462 69.2133 150.268 70.2718C149.477 75.4289 149.007 80.6304 148.862 85.846C148.615 91.7146 149.267 100.377 150.234 108.202L173.819 105.346C174.045 84.7546 175.602 78.3781 175.794 72.9213C175.832 71.849 175.517 70.7939 174.898 69.9183C174.278 69.0427 173.388 68.3952 172.364 68.0753L167.384 66.4623Z" fill="#FFC100"/>
<path d="M150.179 106.898L149.568 108.813C149.493 108.957 149.658 109.115 149.911 109.122L173.455 107.715C173.647 107.715 173.812 107.626 173.825 107.502L174.079 105.58C174.079 105.443 173.928 105.326 173.723 105.319L150.556 106.74C150.485 106.731 150.413 106.74 150.346 106.768C150.28 106.796 150.222 106.841 150.179 106.898Z" fill="#263238"/>
<path opacity="0.1" d="M150.179 106.898L149.568 108.813C149.493 108.957 149.658 109.115 149.911 109.122L173.455 107.715C173.647 107.715 173.812 107.626 173.825 107.502L174.079 105.58C174.079 105.443 173.928 105.326 173.723 105.319L150.556 106.74C150.485 106.731 150.413 106.74 150.346 106.768C150.28 106.796 150.222 106.841 150.179 106.898Z" fill="black"/>
<path opacity="0.3" d="M152.566 68.3496C157.265 67.5259 157.032 78.213 154.892 86.031C154.275 88.2961 151.599 87.3489 150.694 86.7586C147.723 84.8641 146.722 71.7678 152.566 68.3496Z" fill="black"/>
<path d="M151.997 84.1779C152.175 88.7974 150.707 91.2203 153.17 92.7647C155.633 94.3091 170.183 99.1344 170.539 98.5304C169.853 99.6423 169.167 100.59 168.481 101.715C164.288 101.084 160.092 100.5 155.893 99.9649C152.827 99.5806 147.881 98.7912 145.48 96.8419C143.298 95.0847 143.689 87.3697 144.06 81.8099C145.987 80.6636 151.997 84.1779 151.997 84.1779Z" fill="#FF8B7B"/>
<path d="M150.742 66.4692C155.544 65.0484 157.403 68.9197 155.935 75.5708C155.195 79.1579 154.132 82.6705 152.758 86.0657L142.647 82.874C143.744 76.3464 145.789 67.9244 150.742 66.4692Z" fill="#FFC100"/>
<path d="M157.78 66.4347C157.652 67.4604 157.914 68.4968 158.514 69.3382C159.105 70.1684 159.796 70.9223 160.572 71.5827C161.525 72.4544 162.664 73.3947 163.954 73.2231C165.141 73.0653 165.82 72.4681 166.3 71.0542C167.315 72.6946 167.363 73.5114 168.481 73.6144C168.844 73.5949 169.198 73.4971 169.519 73.3276C169.84 73.1582 170.12 72.9212 170.341 72.6328C170.752 72.2936 171.093 71.8766 171.344 71.4055C171.595 70.9344 171.75 70.4185 171.802 69.8873C172.069 67.8281 170.389 65.8925 168.427 65.1581C166.429 64.489 164.354 64.0784 162.253 63.9363C160.421 63.7441 158.116 64.3138 157.78 66.4347Z" fill="#FFC100"/>
<path opacity="0.3" d="M157.78 66.4347C157.652 67.4604 157.914 68.4968 158.514 69.3382C159.105 70.1684 159.796 70.9223 160.572 71.5827C161.525 72.4544 162.664 73.3947 163.954 73.2231C165.141 73.0653 165.82 72.4681 166.3 71.0542C167.315 72.6946 167.363 73.5114 168.481 73.6144C168.844 73.5949 169.198 73.4971 169.519 73.3276C169.84 73.1582 170.12 72.9212 170.341 72.6328C170.752 72.2936 171.093 71.8766 171.344 71.4055C171.595 70.9344 171.75 70.4185 171.802 69.8873C172.069 67.8281 170.389 65.8925 168.427 65.1581C166.429 64.489 164.354 64.0784 162.253 63.9363C160.421 63.7441 158.116 64.3138 157.78 66.4347Z" fill="black"/>
<path d="M162.692 56.4756L165.25 59.4339L168.728 63.4562C168.417 63.8877 168.185 64.3711 168.042 64.8839C167.806 65.428 167.773 66.0393 167.951 66.6055C168.129 67.1717 168.505 67.6547 169.01 67.9658C169.538 68.2129 169.812 70.9927 166.314 70.7113C165.316 70.6941 164.333 70.4713 163.425 70.0568C162.517 69.6422 161.705 69.0449 161.038 68.3021C160.4 67.4441 160.229 66.9842 160.887 66.0439C162.753 63.3875 162.904 59.5369 162.692 56.4756Z" fill="#FF8B7B"/>
<path opacity="0.2" d="M167.892 62.461L165.696 59.5576C165.696 59.64 165.641 59.7361 165.614 59.8322C165.506 60.2418 165.433 60.6596 165.394 61.0814C165.264 62.5228 166.616 64.3692 167.933 65.1586L168.036 64.8703C168.198 64.3825 168.429 63.9203 168.722 63.4975C168.739 63.4736 168.759 63.4527 168.783 63.4357L167.892 62.461Z" fill="black"/>
<path d="M162.932 51.0324C162.534 55.8028 162.095 58.5826 164.139 61.287C167.233 65.4054 173.393 63.9365 175.19 59.3514C176.809 55.2331 177.146 48.1152 172.769 45.6236C171.228 44.7722 169.412 44.568 167.72 45.0558C166.029 45.5436 164.6 46.6835 163.748 48.225C163.268 49.0875 162.989 50.0471 162.932 51.0324Z" fill="#FF8B7B"/>
<path d="M162.232 55.2532L164.29 56.1387C164.976 55.8504 165.134 55.0199 165.086 54.2648C164.88 51.3545 170.128 47.799 170.128 47.799C170.128 47.799 164.578 45.9732 162.911 45.6987C162.328 45.6026 160.229 47.1264 159.906 47.7579C159.475 48.6844 159.311 49.7131 159.432 50.7281C159.553 51.7431 159.955 52.7041 160.592 53.5029C161.081 54.1382 161.63 54.7244 162.232 55.2532Z" fill="#263238"/>
<path d="M160.476 54.3959C160.578 55.4612 161.066 56.4523 161.848 57.1826C162.863 58.1161 164.105 57.1002 164.256 55.7412C164.379 54.5331 163.769 52.7691 162.534 52.3641C161.299 51.9592 160.359 53.0643 160.476 54.3959Z" fill="#FF8B7B"/>
<path d="M170.087 53.8945C170.011 54.2858 170.155 54.6495 170.409 54.7045C170.663 54.7594 170.903 54.4917 171.006 54.1004C171.109 53.7092 170.93 53.3454 170.677 53.2905C170.423 53.2356 170.128 53.4964 170.087 53.8945Z" fill="#263238"/>
<path d="M174.484 54.8623C174.408 55.2604 174.552 55.6242 174.813 55.6791C175.074 55.734 175.328 55.4594 175.403 55.075C175.479 54.6907 175.328 54.32 175.074 54.2651C174.82 54.2102 174.559 54.471 174.484 54.8623Z" fill="#263238"/>
<path d="M173.016 54.8418C173.154 55.9623 173.435 57.0604 173.853 58.109C173.587 58.2048 173.303 58.2404 173.022 58.2131C172.741 58.1858 172.469 58.0963 172.227 57.9511L173.016 54.8418Z" fill="#FF5652"/>
<path d="M171.116 60.1549C170.679 60.0032 170.277 59.7635 169.936 59.4507C169.595 59.1378 169.322 58.7585 169.133 58.336C169.122 58.3077 169.122 58.2761 169.133 58.2479C169.145 58.2196 169.167 58.1971 169.195 58.185C169.225 58.1753 169.258 58.1769 169.287 58.1895C169.316 58.2022 169.339 58.2249 169.353 58.2536C169.564 58.7092 169.878 59.1097 170.269 59.4241C170.661 59.7384 171.119 59.958 171.61 60.0657C171.625 60.0674 171.64 60.0721 171.653 60.0796C171.667 60.0871 171.679 60.0972 171.688 60.1093C171.698 60.1215 171.705 60.1354 171.709 60.1503C171.713 60.1652 171.714 60.1807 171.712 60.1961C171.707 60.2277 171.69 60.2561 171.665 60.2753C171.639 60.2945 171.607 60.303 171.575 60.299C171.418 60.2655 171.264 60.2172 171.116 60.1549Z" fill="#263238"/>
<path d="M169.483 52.316C169.445 52.3081 169.41 52.2861 169.387 52.2542C169.344 52.2105 169.319 52.1513 169.319 52.0895C169.319 52.0278 169.344 51.9685 169.387 51.9248C169.662 51.6776 169.994 51.5024 170.353 51.415C170.712 51.3276 171.087 51.3306 171.445 51.4237C171.504 51.4412 171.554 51.4813 171.583 51.5353C171.613 51.5893 171.62 51.6528 171.603 51.712C171.583 51.7701 171.54 51.8178 171.485 51.8448C171.43 51.8718 171.366 51.8759 171.308 51.8561C171.027 51.7917 170.736 51.7948 170.457 51.8652C170.177 51.9356 169.919 52.0713 169.703 52.2611C169.675 52.29 169.64 52.3105 169.601 52.3202C169.562 52.3299 169.521 52.3285 169.483 52.316Z" fill="#263238"/>
<path d="M174.985 52.3232C174.974 52.285 174.974 52.2447 174.985 52.2065C174.993 52.1767 175.006 52.1487 175.025 52.1242C175.044 52.0998 175.068 52.0793 175.094 52.0639C175.121 52.0486 175.151 52.0388 175.181 52.035C175.212 52.0312 175.243 52.0335 175.273 52.0418C175.627 52.1263 175.955 52.2953 176.23 52.5343C176.505 52.7734 176.718 53.0754 176.851 53.4146C176.868 53.4746 176.861 53.5391 176.832 53.5942C176.802 53.6493 176.752 53.6907 176.693 53.7097C176.634 53.7268 176.57 53.7197 176.516 53.6902C176.462 53.6606 176.422 53.6109 176.405 53.5519C176.299 53.2822 176.129 53.0422 175.911 52.8522C175.692 52.6621 175.431 52.5278 175.149 52.4605C175.113 52.453 175.078 52.4365 175.05 52.4126C175.021 52.3886 174.999 52.3579 174.985 52.3232Z" fill="#263238"/>
<path d="M176.439 106.403L206.541 106.492C207.066 106.484 207.569 106.284 207.957 105.93C208.345 105.576 208.59 105.092 208.647 104.57L210.019 89.3188C210.045 89.0727 210.019 88.8239 209.942 88.5887C209.865 88.3535 209.739 88.1373 209.572 87.9543C209.406 87.7714 209.202 87.6259 208.975 87.5275C208.748 87.429 208.503 87.3798 208.256 87.3832L178.154 87.2939C177.629 87.3042 177.125 87.5057 176.737 87.8608C176.35 88.2158 176.105 88.7 176.048 89.2227L174.676 104.467C174.65 104.714 174.676 104.962 174.753 105.198C174.83 105.433 174.956 105.649 175.123 105.832C175.289 106.015 175.493 106.16 175.72 106.259C175.947 106.357 176.192 106.406 176.439 106.403Z" fill="#FFC100"/>
<path opacity="0.3" d="M176.439 106.403L206.541 106.492C207.066 106.484 207.569 106.284 207.957 105.93C208.345 105.576 208.59 105.092 208.647 104.57L210.019 89.3188C210.045 89.0727 210.019 88.8239 209.942 88.5887C209.865 88.3535 209.739 88.1373 209.572 87.9543C209.406 87.7714 209.202 87.6259 208.975 87.5275C208.748 87.429 208.503 87.3798 208.256 87.3832L178.154 87.2939C177.629 87.3042 177.125 87.5057 176.737 87.8608C176.35 88.2158 176.105 88.7 176.048 89.2227L174.676 104.467C174.65 104.714 174.676 104.962 174.753 105.198C174.83 105.433 174.956 105.649 175.123 105.832C175.289 106.015 175.493 106.16 175.72 106.259C175.947 106.357 176.192 106.406 176.439 106.403Z" fill="black"/>
<path d="M177.324 106.342L207.426 106.431C207.951 106.422 208.456 106.221 208.844 105.866C209.232 105.51 209.476 105.025 209.532 104.502L210.904 89.2573C210.931 89.0115 210.906 88.7628 210.829 88.5276C210.753 88.2924 210.628 88.0761 210.462 87.8931C210.296 87.71 210.093 87.5644 209.866 87.4659C209.64 87.3674 209.395 87.3182 209.147 87.3217L179.046 87.2324C178.521 87.2442 178.018 87.4462 177.631 87.8009C177.243 88.1556 176.998 88.639 176.94 89.1612L175.568 104.406C175.541 104.652 175.566 104.9 175.642 105.136C175.718 105.371 175.843 105.587 176.009 105.77C176.176 105.953 176.379 106.099 176.605 106.197C176.832 106.296 177.077 106.345 177.324 106.342Z" fill="#FFC100"/>
<path opacity="0.2" d="M177.324 106.342L207.426 106.431C207.951 106.422 208.456 106.221 208.844 105.866C209.232 105.51 209.476 105.025 209.532 104.502L210.904 89.2573C210.931 89.0115 210.906 88.7628 210.829 88.5276C210.753 88.2924 210.628 88.0761 210.462 87.8931C210.296 87.71 210.093 87.5644 209.866 87.4659C209.64 87.3674 209.395 87.3182 209.147 87.3217L179.046 87.2324C178.521 87.2442 178.018 87.4462 177.631 87.8009C177.243 88.1556 176.998 88.639 176.94 89.1612L175.568 104.406C175.541 104.652 175.566 104.9 175.642 105.136C175.718 105.371 175.843 105.587 176.009 105.77C176.176 105.953 176.379 106.099 176.605 106.197C176.832 106.296 177.077 106.345 177.324 106.342Z" fill="white"/>
<path d="M195.352 97.0478C195.309 97.4664 195.143 97.8628 194.875 98.1871C194.607 98.5113 194.249 98.7488 193.846 98.8694C193.443 98.9901 193.014 98.9885 192.612 98.8648C192.21 98.7412 191.854 98.5011 191.588 98.1749C191.322 97.8487 191.159 97.451 191.12 97.0321C191.08 96.6132 191.165 96.1919 191.365 95.8215C191.564 95.4511 191.869 95.1482 192.24 94.951C192.612 94.7539 193.034 94.6715 193.452 94.7141C193.73 94.7424 194 94.8252 194.246 94.9578C194.492 95.0904 194.709 95.2702 194.885 95.487C195.062 95.7037 195.194 95.9531 195.274 96.2209C195.354 96.4887 195.381 96.7697 195.352 97.0478Z" fill="white"/>
<path d="M207.858 106.41C207.858 107.323 207.316 108.064 206.658 108.064L175.589 107.94C175.252 107.94 174.978 107.57 174.978 107.117C174.978 106.664 175.252 106.279 175.589 106.279L207.858 106.41Z" fill="#FFC100"/>
<path opacity="0.3" d="M207.858 106.41C207.858 107.323 207.316 108.064 206.658 108.064L175.589 107.94C175.252 107.94 174.978 107.57 174.978 107.117C174.978 106.664 175.252 106.279 175.589 106.279L207.858 106.41Z" fill="black"/>
<path d="M175.396 107.947H160.442C160.06 107.947 159.693 107.795 159.423 107.525C159.153 107.255 159.001 106.888 159.001 106.506C159 106.476 159.005 106.447 159.016 106.42C159.026 106.392 159.042 106.367 159.063 106.346C159.083 106.325 159.108 106.308 159.135 106.297C159.162 106.285 159.191 106.279 159.221 106.279H175.396C175.506 106.279 175.615 106.301 175.716 106.343C175.817 106.385 175.909 106.447 175.986 106.525C176.063 106.603 176.124 106.695 176.165 106.797C176.207 106.898 176.227 107.007 176.227 107.117C176.227 107.337 176.139 107.548 175.983 107.704C175.828 107.86 175.617 107.947 175.396 107.947Z" fill="#FFC100"/>
<path d="M167.315 96.3955L169.799 95.668L169.572 101.784C169.572 101.784 164.18 103.054 163.844 100.569L164.53 99.2303C165.127 98.0772 165.95 96.7319 167.315 96.3955Z" fill="#FF8B7B"/>
<path d="M173.517 97.3634L172.783 100.795L169.572 101.777L169.799 95.668L173.517 97.3634Z" fill="#FF8B7B"/>
<path d="M174.498 160.237L184.788 163.73L186.894 159.475L175.513 155.857L174.498 160.237Z" fill="#FFC100"/>
<path d="M204.057 152.79L213.545 147.491L211.802 143.077L201.492 149.104L204.057 152.79Z" fill="#FFC100"/>
<path d="M176.775 50.9842C178.188 50.9018 178.765 49.2339 178.593 48.52C178.384 47.5782 177.812 46.757 177.002 46.2343C177.454 44.8616 176.844 43.1868 175.143 42.0268C174.524 41.6687 173.832 41.4556 173.119 41.4033C172.406 41.351 171.691 41.4609 171.027 41.7248C171.027 40.4824 168.742 39.6656 167.274 41.2168C166.669 40.8425 165.959 40.6743 165.251 40.7374C164.542 40.8005 163.873 41.0915 163.343 41.5669C163.158 41.7283 163.02 41.9363 162.943 42.1693C162.866 42.4023 162.852 42.6517 162.904 42.8916C162.321 42.8988 161.75 43.0633 161.252 43.3679C160.754 43.6725 160.347 44.1059 160.075 44.6224C159.802 45.1388 159.674 45.7193 159.703 46.3026C159.733 46.8859 159.919 47.4504 160.243 47.9366C160.702 48.623 161.793 48.623 162.616 48.4445C162.844 48.8358 163.15 49.176 163.514 49.444C163.879 49.7121 164.295 49.9022 164.736 50.0026C167.446 50.9018 171.171 50.0575 171.829 50.0026C172.487 49.8931 173.163 50.0273 173.729 50.3801C173.605 50.5531 173.444 50.6964 173.258 50.7997C173.072 50.9029 172.865 50.9636 172.652 50.9773C172.245 51.0185 171.833 50.9976 171.431 50.9155C172.349 51.5211 173.464 51.7497 174.546 51.5539C175.01 51.3203 175.486 51.1117 175.973 50.9292C176.302 50.8812 176.81 51.0322 176.775 50.9842Z" fill="#263238"/>
</g>
<defs>
<clipPath id="clip0_313_611">
<rect width="343" height="194" fill="white"/>
</clipPath>
</defs>
</svg>
