<svg width="120" height="38" viewBox="0 0 120 38" fill="none" xmlns="http://www.w3.org/2000/svg">
<g clip-path="url(#clip0_143_3)">
<path d="M15.0107 13.6163V17.6327H24.7034C24.446 19.8545 23.6741 21.5636 22.4732 22.6745C21.1008 24.0418 18.8706 25.58 15.0107 25.58C9.09221 25.58 4.46033 20.7945 4.46033 14.8981C4.46033 9.00177 9.00643 4.21631 15.0107 4.21631C18.1844 4.21631 20.5861 5.49813 22.3016 7.12177L25.1322 4.30177C22.7305 1.9945 19.4711 0.199951 15.0107 0.199951C6.86204 0.199951 0 6.77995 0 14.8981C0 23.0163 6.86204 29.5963 15.0107 29.5963C19.3853 29.5963 22.7305 28.1436 25.3038 25.4945C27.9628 22.8454 28.8206 19.0854 28.8206 16.0945C28.8206 15.1545 28.7348 14.3 28.649 13.6163H15.0107Z" fill="#4285F4"/>
<path d="M40.8295 10.2844C35.5972 10.2844 31.2227 14.3008 31.2227 19.7699C31.2227 25.239 35.5114 29.2553 40.8295 29.2553C46.1476 29.2553 50.4364 25.3244 50.4364 19.8553C50.4364 14.3008 46.1476 10.2844 40.8295 10.2844ZM40.8295 25.5808C37.9131 25.5808 35.4257 23.1881 35.4257 19.8553C35.4257 16.4372 37.9131 14.1299 40.8295 14.1299C43.7459 14.1299 46.2334 16.4372 46.2334 19.8553C46.2334 23.1881 43.7459 25.5808 40.8295 25.5808Z" fill="#EA4335"/>
<path d="M87.7482 12.4208H87.5766C86.6331 11.3099 84.8318 10.2844 82.5159 10.2844C77.7124 10.2844 73.5952 14.3862 73.5952 19.7699C73.5952 25.0681 77.7124 29.2553 82.5159 29.2553C84.8318 29.2553 86.6331 28.2299 87.5766 27.119H87.7482V28.4862C87.7482 32.0753 85.7753 34.0408 82.6874 34.0408C80.1142 34.0408 78.5702 32.2462 77.884 30.6226L74.2814 32.1608C75.3107 34.639 78.1413 37.8008 82.7732 37.8008C87.6624 37.8008 91.8654 34.8953 91.8654 27.8881V10.7972H87.9197V12.4208H87.7482ZM82.9447 25.5808C80.0284 25.5808 77.884 23.1026 77.884 19.8553C77.884 16.5226 80.1142 14.1299 82.9447 14.1299C85.7753 14.1299 88.0055 16.6081 88.0055 19.9408C88.0913 23.1881 85.8611 25.5808 82.9447 25.5808Z" fill="#4285F4"/>
<path d="M62.1874 10.2844C56.9551 10.2844 52.5806 14.3008 52.5806 19.7699C52.5806 25.239 56.8693 29.2553 62.1874 29.2553C67.5055 29.2553 71.7943 25.3244 71.7943 19.8553C71.7943 14.3008 67.5055 10.2844 62.1874 10.2844ZM62.1874 25.5808C59.2711 25.5808 56.7836 23.1881 56.7836 19.8553C56.7836 16.4372 59.2711 14.1299 62.1874 14.1299C65.1038 14.1299 67.5913 16.4372 67.5913 19.8553C67.5913 23.1881 65.1038 25.5808 62.1874 25.5808Z" fill="#FBBC05"/>
<path d="M95.0391 0.626465H99.1563V29.3392H95.0391V0.626465Z" fill="#34A853"/>
<path d="M111.851 25.5808C109.706 25.5808 108.248 24.6408 107.219 22.6753L120 17.4626L119.571 16.3517C118.799 14.2153 116.311 10.2844 111.422 10.2844C106.533 10.2844 102.416 14.1299 102.416 19.7699C102.416 25.0681 106.447 29.2553 111.851 29.2553C116.225 29.2553 118.713 26.6062 119.828 25.0681L116.568 22.9317C115.453 24.5553 113.995 25.5808 111.851 25.5808ZM111.594 13.8735C113.309 13.8735 114.767 14.7281 115.196 15.9244L106.619 19.5135C106.533 15.5826 109.449 13.8735 111.594 13.8735Z" fill="#EA4335"/>
</g>
<defs>
<clipPath id="clip0_143_3">
<rect width="120" height="37.6" fill="white" transform="translate(0 0.199951)"/>
</clipPath>
</defs>
</svg>
