<svg width="100" height="101" viewBox="0 0 100 101" fill="none" xmlns="http://www.w3.org/2000/svg">
<path d="M34.836 3.78908C24.8445 7.25524 16.2278 13.8341 10.2516 22.5594C4.27541 31.2847 1.25473 41.6965 1.63325 52.2654C2.01178 62.8343 5.76955 73.0033 12.3546 81.2787C18.9397 89.5541 28.0049 95.4997 38.2189 98.2422C46.4995 100.379 55.1752 100.473 63.5001 98.5156C71.0417 96.8216 78.014 93.1982 83.7345 88C89.6882 82.4246 94.0098 75.3319 96.2345 67.4844C98.6526 58.9506 99.0829 49.9761 97.4923 41.25H50.9923V60.5391H77.922C77.3838 63.6155 76.2304 66.5518 74.531 69.1721C72.8315 71.7925 70.6209 74.043 68.0314 75.7891C64.7429 77.9643 61.036 79.4279 57.1485 80.086C53.2497 80.8109 49.2505 80.8109 45.3517 80.086C41.4 79.2689 37.6618 77.638 34.3751 75.2969C29.095 71.5593 25.1304 66.2494 23.047 60.125C20.9284 53.8859 20.9284 47.1219 23.047 40.8828C24.53 36.5095 26.9816 32.5276 30.2189 29.2344C33.9235 25.3965 38.6136 22.6531 43.7748 21.3053C48.9359 19.9575 54.3685 20.0573 59.4767 21.5938C63.4671 22.8187 67.1161 24.9589 70.1329 27.8438C73.1694 24.8229 76.2006 21.7943 79.2267 18.7578C80.7892 17.125 82.4923 15.5703 84.0314 13.8985C79.4264 9.61311 74.0211 6.27859 68.1251 4.08595C57.3884 0.187436 45.6406 0.0826675 34.836 3.78908Z" fill="white"/>
<path d="M34.8359 3.78909C45.6396 0.0801609 57.3874 0.182172 68.125 4.07815C74.022 6.28568 79.4249 9.63626 84.0234 13.9375C82.4609 15.6094 80.8125 17.1719 79.2188 18.7969C76.1875 21.8229 73.1589 24.8386 70.1328 27.8438C67.116 24.9589 63.4669 22.8187 59.4766 21.5938C54.3701 20.0519 48.9376 19.9463 43.7752 21.2886C38.6127 22.6309 33.9196 25.3693 30.2109 29.2032C26.9737 32.4964 24.5221 36.4783 23.0391 40.8516L6.84375 28.3125C12.6407 16.8169 22.6777 8.02365 34.8359 3.78909Z" fill="#E33629"/>
<path d="M2.54685 40.7344C3.41733 36.4203 4.86251 32.2424 6.84373 28.3125L23.039 40.8828C20.9204 47.1219 20.9204 53.8859 23.039 60.125C17.6432 64.2917 12.2448 68.4792 6.84373 72.6875C1.88397 62.815 0.371327 51.5664 2.54685 40.7344Z" fill="#F8BD00"/>
<path d="M50.9918 41.2422H97.4918C99.0824 49.9682 98.6521 58.9427 96.2339 67.4766C94.0092 75.3241 89.6877 82.4168 83.7339 87.9922C78.5074 83.9141 73.2574 79.8672 68.0308 75.7891C70.622 74.0412 72.8337 71.7882 74.5332 69.1651C76.2328 66.542 77.3852 63.6027 77.9214 60.5234H50.9918C50.9839 54.1016 50.9918 47.6719 50.9918 41.2422Z" fill="#587DBD"/>
<path d="M6.83594 72.6875C12.237 68.5208 17.6354 64.3333 23.0312 60.125C25.1188 66.2515 29.0891 71.5617 34.375 75.2969C37.6719 77.6271 41.4182 79.2448 45.375 80.0469C49.2739 80.7718 53.273 80.7718 57.1719 80.0469C61.0593 79.3888 64.7663 77.9252 68.0547 75.75C73.2812 79.8281 78.5312 83.875 83.7578 87.9531C78.0382 93.1541 71.0658 96.7803 63.5234 98.4766C55.1985 100.434 46.5228 100.34 38.2422 98.2031C31.693 96.4545 25.5756 93.3718 20.2734 89.1484C14.6614 84.6929 10.0778 79.0779 6.83594 72.6875Z" fill="#319F43"/>
</svg>
