<svg width="120" height="26" viewBox="0 0 120 26" fill="none" xmlns="http://www.w3.org/2000/svg">
<g clip-path="url(#clip0_143_38)">
<path d="M12.1229 0.800781H5.0667V1.39147H7.32829V13.1144C7.32829 16.6131 6.33319 17.6127 4.16206 17.6127C3.34789 17.7036 2.62418 17.1129 2.53371 16.295C2.53371 16.2041 2.53371 16.1133 2.53371 16.0224C2.53371 14.7501 2.44325 13.9777 1.31246 13.9777C0.18166 13.9777 0.000732422 15.1591 0.000732422 15.5226C0.000732422 17.1583 0.724441 18.3851 3.9359 18.3851C7.7806 18.3851 9.81604 17.1129 9.81604 12.7963V1.39147H12.1681L12.1229 0.800781Z" fill="#503629"/>
<path d="M13.0272 15.6133C12.6653 15.6133 12.3035 15.7496 12.0321 16.0222C11.7607 16.2948 11.625 16.6583 11.625 17.0218C11.625 17.3853 11.7607 17.7488 12.0321 17.976C12.3035 18.2487 12.6653 18.385 13.0272 18.385C13.389 18.385 13.7509 18.2487 14.0223 17.976C14.2937 17.7034 14.4294 17.3853 14.4294 17.0218C14.4294 16.2494 13.8414 15.6587 13.0724 15.6587H13.0272" fill="#503629"/>
<path d="M28.7232 15.6133C27.9995 15.6133 27.3663 16.204 27.321 16.931V16.9764C27.321 17.3399 27.502 17.7034 27.7734 17.9306C28.0448 18.2033 28.4066 18.3396 28.7685 18.3396C29.1303 18.3396 29.4922 18.2033 29.7636 17.9306C30.035 17.7034 30.1706 17.3399 30.1706 16.9764C30.1706 16.6129 30.035 16.2494 29.7636 15.9768C29.4922 15.7042 29.1755 15.5679 28.8137 15.5679" fill="#503629"/>
<path d="M23.838 0.800781H16.8723V1.39147H18.9077V14.7501C18.953 15.2954 18.9077 15.8406 18.7268 16.3859C18.5459 16.7494 18.2292 17.0674 17.8674 17.1583C17.4603 17.2946 17.008 17.3855 16.5557 17.3855V17.9308H23.9285V17.3855C23.4309 17.3855 22.9786 17.3401 22.5263 17.2038C22.1192 17.0674 21.8026 16.7948 21.6669 16.4313C21.5312 16.0678 21.4407 15.7043 21.4859 15.3408V10.7062H23.3404C28.6778 10.7062 30.1704 8.57061 30.1704 5.70804C30.1704 2.84547 29.2206 0.800781 23.838 0.800781ZM22.8429 10.0246H21.4407V1.48235H22.7072C26.8233 1.48235 27.8184 3.16354 27.8184 5.88979C27.8184 8.61605 26.19 10.1155 22.9334 10.1155" fill="#503629"/>
<path d="M52.1978 16.3404C52.0621 15.9769 52.0169 15.568 52.0621 15.159V1.39144H53.9166V0.846191H49.5292L44.1918 13.8868C44.1918 13.9322 44.1466 13.9777 44.1013 13.9777C44.0561 13.9777 44.0109 13.9322 43.9656 13.8868C43.9656 13.8868 38.4474 0.982504 38.4021 0.846191H33.5171V1.39144H35.643V15.886C35.643 16.2041 35.5073 16.4767 35.3716 16.7494C35.1907 17.022 34.9193 17.2037 34.6027 17.2946C34.286 17.3855 33.9242 17.3855 33.6076 17.3855V17.9307H38.4474V17.3855C38.1307 17.3855 37.8593 17.34 37.588 17.2492C37.2261 17.1583 36.9547 16.9765 36.7285 16.7039C36.5476 16.4313 36.4572 16.1587 36.4119 15.8406L36.3667 14.6138V3.16351H36.6381C36.6381 3.16351 42.9253 17.749 42.9253 17.9307H43.5133L49.4387 3.29982H49.5744V15.0682C49.5744 15.4771 49.5292 15.886 49.4387 16.295C49.303 16.6585 49.0316 16.9311 48.715 17.0674C48.3079 17.2037 47.9008 17.2946 47.4937 17.2946V17.8399H54.2333V17.2946C53.8262 17.2946 53.3739 17.2037 52.9668 17.0674C52.6049 16.8857 52.3335 16.5676 52.1978 16.2041" fill="#503629"/>
<path d="M61.2896 5.38989C57.671 5.38989 55.4094 7.75265 55.4094 11.9329C55.4094 18.067 60.1588 18.4305 61.1991 18.4305C63.2345 18.4305 67.0792 17.1582 67.0792 11.7966C67.034 7.61634 64.5915 5.38989 61.2896 5.38989ZM61.2443 17.658C58.5304 17.658 58.1233 16.2949 58.1233 11.9783C58.1233 8.61596 58.3495 6.07146 61.2443 6.07146C64.3653 6.07146 64.4106 8.70684 64.4106 11.7057C64.4106 16.1132 63.6416 17.658 61.2443 17.658Z" fill="#503629"/>
<path d="M76.4876 5.57104C74.3164 5.57104 73.6832 6.8433 73.0499 8.16099H72.869C72.869 8.16099 72.5524 6.29805 72.4619 5.70736H68.2554V6.34348H70.517V14.8403C70.5622 15.431 70.4717 16.0217 70.2456 16.5669C70.0194 16.9759 69.4766 17.2031 68.6625 17.2031H68.3006V17.9755H75.2663V17.2031H74.9497C74.045 17.2031 73.638 17.0213 73.4118 16.6124C73.1856 16.0671 73.0499 15.431 73.1404 14.8403V10.4329C73.1404 8.97887 74.2712 7.25224 75.5829 7.25224C76.9399 7.25224 76.9399 9.3878 78.523 8.52449C79.3372 8.02468 79.1562 5.57104 76.4876 5.57104Z" fill="#503629"/>
<path d="M104.305 16.6582C103.536 16.6582 103.31 16.2493 103.265 15.5677V8.84297C103.356 7.93422 103.039 6.98003 102.406 6.29847C101.772 5.66234 100.506 5.29884 98.6967 5.29884C97.3397 5.20796 96.028 5.52603 94.852 6.25303C94.1735 6.66197 93.7664 7.43441 93.7664 8.20684C93.7212 8.52491 93.8569 8.84297 94.083 9.07016C94.3092 9.25191 94.5806 9.34279 94.852 9.34279C95.5305 9.34279 95.9375 8.97928 96.0732 8.07053C96.0732 7.52528 96.2994 7.02547 96.616 6.61653C97.0683 6.20759 97.7016 5.9804 98.2896 6.07128C98.9681 5.9804 99.6918 6.25303 100.144 6.79828C100.506 7.34353 100.642 7.93422 100.642 8.57035V10.7059C98.4253 10.8877 93.1332 11.342 93.3593 15.3406C93.5402 17.0217 94.9877 18.294 96.6612 18.2486C98.2444 18.2031 99.737 17.4761 100.732 16.2039C100.958 17.3398 101.953 18.1122 103.084 18.0668C104.713 18.0668 105.708 17.2489 105.798 15.2951H105.391C105.301 16.2039 104.758 16.6582 104.305 16.6582ZM100.642 15.3406C100.642 15.386 100.642 15.386 100.642 15.4314V15.4769C99.9179 16.2947 98.9228 16.7946 97.8373 16.9309C96.7969 16.9763 95.8923 16.1584 95.8471 15.0679C95.8471 14.977 95.8471 14.8862 95.8471 14.7953C95.8471 12.5234 98.9681 11.3875 100.687 11.3875L100.642 15.3406Z" fill="#503629"/>
<path d="M118.599 16.5671C118.282 16.0219 118.147 15.3858 118.147 14.7496V9.20624C118.192 8.47924 118.056 7.79768 117.739 7.16155C117.468 6.66174 117.016 6.20736 116.518 5.93474C115.93 5.66211 115.297 5.5258 114.664 5.5258C112.99 5.48036 111.452 6.38911 110.683 7.88855H110.412L109.96 5.66211H106.205V6.29824H108.105V14.7496C108.105 15.2494 108.06 15.7038 107.969 16.2036C107.879 16.5671 107.608 16.8852 107.246 16.9761C106.929 17.1124 106.567 17.1578 106.205 17.1578V17.9303H112.221V17.1578C111.769 17.2033 111.317 16.9761 111 16.658C110.728 16.1128 110.593 15.5221 110.683 14.9314V11.7053C110.548 10.5239 110.729 9.34256 111.136 8.20662C111.633 7.3433 112.583 6.79805 113.578 6.84349C114.257 6.75261 114.935 7.11611 115.252 7.7068C115.568 8.61556 115.704 9.61518 115.659 10.5694V14.5679C115.704 15.0677 115.704 15.5675 115.659 16.0673C115.614 16.4308 115.433 16.7489 115.116 16.9306C114.799 17.1124 114.483 17.2033 114.166 17.2033V17.9757H120.001V17.2033C119.277 17.1124 118.825 16.9306 118.599 16.5671Z" fill="#503629"/>
<path d="M91.3239 4.8901C90.9169 5.07185 90.6455 5.43535 90.6002 5.84429C90.5098 6.3441 90.3289 6.61673 90.0575 6.7076C89.7861 6.79848 89.4694 6.75304 89.1981 6.66217C88.1125 5.70798 86.6651 5.2536 85.2629 5.34448C82.7751 5.16273 80.5588 7.02567 80.3778 9.52474C80.3778 9.70649 80.3778 9.88824 80.3778 10.07C80.3778 12.7054 81.3729 13.8867 83.5441 14.3866C83.6798 14.3866 83.6798 14.5683 83.5441 14.5683C81.6896 14.8864 80.0612 15.4316 80.0612 17.2491C80.0612 18.1124 80.604 18.8849 81.4182 19.1575C82.5942 19.5664 83.8155 19.7482 85.0367 19.7028C85.9866 19.7028 86.9817 19.7482 87.9316 19.8391C88.4743 19.8845 89.0171 20.0663 89.5147 20.3843C89.9218 20.7478 90.1479 21.2476 90.1027 21.7929C90.1027 22.6562 89.5599 23.4286 88.791 23.7467C87.7506 24.2465 86.6198 24.4737 85.489 24.4283C84.4487 24.5191 83.3632 24.292 82.4585 23.7467C81.9157 23.3378 81.6443 22.6562 81.8253 22.0201C82.0062 21.5203 81.7348 20.9296 81.192 20.7478H81.0563C80.6492 20.7024 80.2422 20.8841 80.016 21.2022C79.8351 21.5203 79.6994 21.9292 79.7446 22.3381C79.7898 23.5195 80.604 24.4737 81.78 24.7009C82.8656 25.0644 83.9964 25.2007 85.1272 25.2007C86.4389 25.2462 87.7506 25.019 88.9719 24.4737C90.4193 23.8376 91.4144 22.429 91.4144 20.8387C91.4596 20.0663 91.2335 19.3393 90.8264 18.7031C89.6051 17.0219 87.8863 17.2491 83.9964 17.0674C82.1419 17.0674 81.78 16.7493 81.78 16.2041C81.78 15.3408 82.4585 15.0227 85.1272 14.6137C87.7959 14.2048 90.2836 13.2052 90.2836 9.97911C90.2836 9.20667 90.1479 8.3888 89.7861 7.66179C90.2836 7.79811 90.8264 7.79811 91.3239 7.66179C91.7763 7.52548 92.1834 7.20742 92.4095 6.79848C92.6357 6.48042 92.7261 6.02604 92.6357 5.66254C92.4095 4.98097 91.9572 4.70835 91.3239 4.8901ZM85.3081 13.8413C83.725 13.8413 82.7751 13.2506 82.7751 10.0245C82.7751 7.75267 83.5441 6.07148 85.3081 6.07148C87.2983 6.07148 87.8411 7.61636 87.8411 9.97911C87.7959 13.3415 86.7555 13.8413 85.3081 13.8413Z" fill="#503629"/>
</g>
<defs>
<clipPath id="clip0_143_38">
<rect width="120" height="24.4" fill="white" transform="translate(0 0.800049)"/>
</clipPath>
</defs>
</svg>
