<svg width="120" height="26" viewBox="0 0 120 26" fill="none" xmlns="http://www.w3.org/2000/svg">
<g clip-path="url(#clip0_143_20)">
<path d="M42.3572 14.9449L41.642 16.9691H41.5824C41.4632 16.5127 41.2446 15.8181 40.887 14.9846L37.0526 5.35982H33.2976V20.7H35.7811V11.2339C35.7811 10.6386 35.781 9.96385 35.7612 9.13036C35.7413 8.71362 35.7016 8.3961 35.6817 8.15796H35.7413C35.8605 8.75331 35.9996 9.1899 36.0989 9.46772L40.7082 20.6603H42.4565L47.0261 9.3685C47.1254 9.11052 47.2248 8.59455 47.3241 8.15796H47.3837C47.3241 9.28912 47.2844 10.3012 47.2645 10.9164V20.6404H49.9069V5.32013H46.291L42.3572 14.9449ZM52.4102 9.64633H54.993V20.6404H52.4102V9.64633ZM53.7214 5.00261C53.2844 5.00261 52.9267 5.16137 52.6287 5.4392C52.3307 5.71703 52.1718 6.07424 52.1718 6.51083C52.1718 6.92757 52.3307 7.28478 52.6287 7.56261C52.9267 7.84044 53.2844 7.97935 53.7214 7.97935C54.1585 7.97935 54.536 7.82059 54.8142 7.56261C55.1122 7.28478 55.2711 6.92757 55.2711 6.51083C55.2711 6.09408 55.1122 5.73687 54.8142 5.4392C54.5559 5.16137 54.1784 5.00261 53.7214 5.00261ZM64.1519 9.5471C63.6751 9.44788 63.1784 9.38834 62.7016 9.38834C61.5294 9.38834 60.4565 9.64633 59.5625 10.1623C58.6685 10.6783 57.9532 11.3927 57.4963 12.2857C57.0195 13.1986 56.781 14.2504 56.781 15.4609C56.781 16.5127 57.0195 17.4454 57.4764 18.2987C57.9334 19.1322 58.5691 19.807 59.4234 20.2634C60.238 20.7198 61.1916 20.958 62.2645 20.958C63.4963 20.958 64.5493 20.7 65.3837 20.2237L65.4036 20.2038V17.8225L65.3042 17.9018C64.9267 18.1797 64.4897 18.4178 64.0526 18.5567C63.5956 18.7155 63.1784 18.7949 62.8208 18.7949C61.7877 18.7949 60.9731 18.4972 60.3969 17.8423C59.8009 17.2073 59.5029 16.3341 59.5029 15.2426C59.5029 14.1114 59.8009 13.2184 60.4168 12.5635C61.0327 11.9087 61.8473 11.5713 62.8407 11.5713C63.6751 11.5713 64.5294 11.8491 65.3042 12.4048L65.4036 12.4842V9.96385L65.3837 9.944C65.046 9.80509 64.6685 9.64633 64.1519 9.5471ZM72.6751 9.46772C72.0393 9.46772 71.4433 9.66617 70.9267 10.0829C70.4897 10.4401 70.1916 10.9561 69.9334 11.5713H69.9135V9.64633H67.3307V20.6404H69.9135V15.0243C69.9135 14.0718 70.1122 13.278 70.5493 12.7025C70.9864 12.1071 71.5426 11.8094 72.2181 11.8094C72.4565 11.8094 72.695 11.869 72.993 11.9087C73.2711 11.988 73.4698 12.0674 73.6089 12.1666L73.7082 12.246V9.66617L73.6486 9.64633C73.4698 9.52726 73.1122 9.46772 72.6751 9.46772ZM79.7082 9.40819C77.9003 9.40819 76.4499 9.944 75.4367 10.9958C74.4036 12.0476 73.9069 13.4963 73.9069 15.322C73.9069 17.0287 74.4234 18.4178 75.4168 19.4299C76.4102 20.4221 77.7612 20.9381 79.4499 20.9381C81.2181 20.9381 82.6287 20.4023 83.642 19.3307C84.6751 18.259 85.1718 16.8302 85.1718 15.064C85.1718 13.3176 84.695 11.9285 83.7214 10.9164C82.7877 9.90431 81.4168 9.40819 79.7082 9.40819ZM81.7744 17.8621C81.2976 18.4773 80.5426 18.775 79.6089 18.775C78.6751 18.775 77.9201 18.4773 77.3837 17.8225C76.8473 17.2073 76.589 16.3142 76.589 15.1831C76.589 14.0122 76.8671 13.1192 77.3837 12.4842C77.9201 11.8491 78.6552 11.5316 79.589 11.5316C80.5029 11.5316 81.2181 11.8293 81.7347 12.4445C82.2512 13.0597 82.5294 13.9527 82.5294 15.1235C82.4897 16.3142 82.2711 17.247 81.7744 17.8621ZM90.9334 14.2107C90.1188 13.8733 89.6022 13.6153 89.3638 13.397C89.1652 13.1986 89.0658 12.9207 89.0658 12.5635C89.0658 12.2659 89.185 11.9682 89.483 11.7697C89.781 11.5713 90.1188 11.4721 90.6155 11.4721C91.0526 11.4721 91.5095 11.5514 91.9466 11.6705C92.3837 11.7896 92.7811 11.9682 93.0989 12.2063L93.1983 12.2857V9.86462L93.1387 9.84478C92.8407 9.72571 92.4433 9.60664 91.9665 9.50742C91.4897 9.42804 91.0526 9.38834 90.695 9.38834C89.4632 9.38834 88.4499 9.68602 87.6552 10.3409C86.8605 10.9561 86.483 11.7896 86.483 12.762C86.483 13.278 86.5625 13.7344 86.7413 14.1114C86.9201 14.4885 87.1784 14.8457 87.536 15.1434C87.8936 15.4212 88.4102 15.7387 89.1254 16.0364C89.7215 16.2944 90.1784 16.4928 90.4565 16.6516C90.7347 16.8104 90.9135 16.989 91.0526 17.1279C91.1519 17.2866 91.2115 17.4851 91.2115 17.7431C91.2115 18.4773 90.6552 18.8345 89.5228 18.8345C89.0857 18.8345 88.6287 18.7552 88.0923 18.5766C87.5559 18.398 87.0592 18.14 86.642 17.8423L86.5426 17.7629V20.2832L86.6022 20.3031C86.9797 20.4817 87.4367 20.6007 87.993 20.7397C88.5493 20.8389 89.0459 20.9183 89.483 20.9183C90.8142 20.9183 91.9069 20.6206 92.6817 19.9657C93.4764 19.3307 93.8936 18.517 93.8936 17.4652C93.8936 16.731 93.695 16.0761 93.2579 15.58C92.6817 15.1037 91.9665 14.6076 90.9334 14.2107ZM100.708 9.40819C98.9003 9.40819 97.4499 9.944 96.4367 10.9958C95.4234 12.0476 94.9069 13.4963 94.9069 15.322C94.9069 17.0287 95.4234 18.4178 96.4168 19.4299C97.4102 20.4221 98.7612 20.9381 100.45 20.9381C102.218 20.9381 103.629 20.4023 104.642 19.3307C105.675 18.259 106.172 16.8302 106.172 15.064C106.172 13.3176 105.695 11.9285 104.721 10.9164C103.788 9.90431 102.417 9.40819 100.708 9.40819ZM102.755 17.8621C102.278 18.4773 101.523 18.775 100.589 18.775C99.6354 18.775 98.9003 18.4773 98.3638 17.8225C97.8274 17.2073 97.5691 16.3142 97.5691 15.1831C97.5691 14.0122 97.8473 13.1192 98.3638 12.4842C98.9003 11.8491 99.6354 11.5316 100.569 11.5316C101.463 11.5316 102.198 11.8293 102.715 12.4445C103.231 13.0597 103.51 13.9527 103.51 15.1235C103.51 16.3142 103.251 17.247 102.755 17.8621ZM119.98 11.7697V9.64633H117.377V6.39176L117.298 6.4116L114.834 7.14586L114.774 7.16571V9.64633H110.88V8.25718C110.88 7.62214 111.039 7.12602 111.317 6.8085C111.596 6.49098 112.013 6.33222 112.529 6.33222C112.887 6.33222 113.264 6.4116 113.682 6.59021L113.781 6.64974V4.40726L113.721 4.38741C113.364 4.26834 112.887 4.18896 112.271 4.18896C111.496 4.18896 110.821 4.36757 110.205 4.66524C109.589 5.00261 109.132 5.45904 108.794 6.07424C108.457 6.66959 108.278 7.34431 108.278 8.11827V9.64633H106.47V11.7499H108.278V20.6404H110.88V11.7697H114.774V17.4256C114.774 19.7474 115.867 20.9183 118.053 20.9183C118.41 20.9183 118.788 20.8587 119.145 20.7992C119.523 20.7198 119.801 20.6206 119.96 20.5412L119.98 20.5214V18.398L119.88 18.4773C119.721 18.5766 119.582 18.6559 119.344 18.7155C119.145 18.775 118.966 18.7949 118.827 18.7949C118.311 18.7949 117.953 18.6758 117.695 18.3781C117.457 18.1003 117.337 17.6438 117.337 16.9691V11.7697H119.98Z" fill="#737373"/>
<path d="M0 0.199951H12.1788V12.3649H0V0.199951Z" fill="#F25022"/>
<path d="M13.45 0.199951H25.6288V12.3649H13.45V0.199951Z" fill="#7FBA00"/>
<path d="M0 13.6343H12.1788V25.7992H0V13.6343Z" fill="#00A4EF"/>
<path d="M13.45 13.6343H25.6288V25.7992H13.45V13.6343Z" fill="#FFB900"/>
</g>
<defs>
<clipPath id="clip0_143_20">
<rect width="120" height="25.6" fill="white" transform="translate(0 0.199951)"/>
</clipPath>
</defs>
</svg>
