<svg width="74" height="56" viewBox="0 0 74 56" fill="none" xmlns="http://www.w3.org/2000/svg">
<g clip-path="url(#clip0_143_65)">
<path d="M73.7995 24.0772H47.1741V17.2622H73.7995V24.0772Z" fill="#E669A2"/>
<path d="M70.3412 24.0776H47.1741V7.03271H70.3412V24.0776Z" fill="#F3BE26"/>
<path d="M60.7698 24.0777H47.1741V0.221436H60.7698V24.0777Z" fill="#EE9C34"/>
<path d="M63.4445 24.0773H47.1741V2.88306H63.4445V24.0773Z" fill="#F3BC87"/>
<path d="M47.1707 2.88794V24.076H60.7686V2.88794H47.1707Z" fill="#E3721C"/>
<path d="M33.541 24.0784H47.1744V27.4862H33.541V24.0784Z" fill="#AD1B02"/>
<path d="M47.1707 7.0293V24.0758H63.4527V7.0293H47.1707Z" fill="#E88D14"/>
<path d="M47.1707 7.0293V24.0758H60.7686V7.0293H47.1707Z" fill="#D85604"/>
<path d="M55.6762 24.0783H47.1741V13.8477H55.6762V24.0783Z" fill="#C14303"/>
<path d="M47.1707 17.2681V24.076H70.3494V17.2681H47.1707Z" fill="#DB4E18"/>
<path d="M47.1707 17.2681V24.076H63.4527V17.2681H47.1707Z" fill="#D1390D"/>
<path d="M47.1707 17.2681V24.076H60.7686V17.2681H47.1707Z" fill="#C22303"/>
<path d="M47.1707 17.2681V24.076H55.6849V17.2681H47.1707Z" fill="#AD1B02"/>
<path d="M50.1381 36.9154C47.8183 37.3278 46.5812 39.0805 46.5812 42.1219C46.5812 45.2149 48.2307 47.2769 50.6536 47.2769C51.8392 47.2769 52.8702 46.8645 55.0352 45.7819C55.0352 48.3079 55.0352 48.3079 55.0352 48.3079C52.4062 49.5451 50.8598 49.8544 48.7978 49.8544C46.4781 49.8544 44.8285 49.2873 43.5398 47.8955C42.1995 46.5552 41.4778 44.8025 41.4778 42.792C41.4778 38.4103 44.7769 35.3689 49.571 35.3689C52.7155 35.3689 54.9321 36.8638 54.9321 38.9774C54.9321 40.3692 53.9012 41.3487 52.4062 41.3487C51.633 41.3487 51.0144 41.0909 50.1381 40.627" fill="black"/>
<path d="M38.5396 42.792C40.6532 40.163 41.4264 39.0805 41.4264 37.7917C41.4264 36.503 40.3954 35.3689 38.952 35.3689C38.1272 35.3689 37.354 35.8328 36.9932 36.2452C36.9932 41.658 36.9932 41.658 36.9932 41.658C33.5394 46.2974 33.5394 46.2974 33.5394 46.2974C33.5394 35.7813 33.5394 35.7813 33.5394 35.7813C30.2402 35.7813 30.2402 35.7813 30.2402 35.7813C24.776 44.8025 24.776 44.8025 24.776 44.8025C24.776 35.7813 24.776 35.7813 24.776 35.7813C22.9202 35.7813 22.9202 35.7813 22.9202 35.7813C17.9199 36.9154 17.9199 36.9154 17.9199 36.9154C17.9199 38.2041 17.9199 38.2041 17.9199 38.2041C20.652 38.4619 20.652 38.4619 20.652 38.4619C20.652 49.6482 20.652 49.6482 20.652 49.6482C24.1058 49.6482 24.1058 49.6482 24.1058 49.6482C29.3639 40.9878 29.3639 40.9878 29.3639 40.9878C29.3639 49.6482 29.3639 49.6482 29.3639 49.6482C33.2301 49.6482 33.2301 49.6482 33.2301 49.6482" fill="black"/>
<path d="M7.45542 47.8949C7.86782 47.8949 7.97092 47.8949 8.22866 47.8949C11.0123 47.8949 12.5588 46.1938 12.5588 42.7915C12.5588 39.9563 11.3216 38.4098 9.0019 38.4098C8.69261 38.4098 8.22866 38.4613 7.45542 38.616V47.8949ZM7.45542 53.9778C9.72359 54.4933 9.72359 54.4933 9.72359 54.4933C9.72359 55.782 9.72359 55.782 9.72359 55.782C0.805562 55.782 0.805563 55.782 0.805563 55.782C0.805563 54.4933 0.805563 54.4933 0.805563 54.4933C2.86754 53.9778 2.86753 53.9778 2.86753 53.9778C2.86753 38.4098 2.86753 38.4098 2.86753 38.4098C0.599365 38.4098 0.599365 38.4098 0.599365 38.4098C0.599365 37.121 0.599365 37.121 0.599365 37.121C6.01204 35.4714 6.01204 35.4714 6.01204 35.4714C7.45542 35.4714 7.45542 35.4714 7.45542 35.4714C7.45542 37.3272 7.45542 37.3272 7.45542 37.3272C9.98134 35.7807 10.8577 35.523 12.198 35.523C15.1878 35.523 17.456 38.3067 17.456 42.1729C17.456 46.6062 14.4146 49.6476 9.77514 49.6476C9.25965 49.6476 8.38331 49.596 7.45542 49.5445" fill="black"/>
</g>
<defs>
<clipPath id="clip0_143_65">
<rect width="73.2" height="55.5588" fill="white" transform="translate(0.600098 0.220703)"/>
</clipPath>
</defs>
</svg>
