<svg width="602" height="358" viewBox="0 0 602 358" fill="none" xmlns="http://www.w3.org/2000/svg">
<g clip-path="url(#clip0_83_5876)">
<rect width="602" height="358" rx="12" fill="white"/>
<g opacity="0.2">
<path d="M526.75 44.7488L602 -0.0012207V44.7488H526.75Z" stroke="#0DBA4B" stroke-width="0.896" stroke-linejoin="round"/>
<path d="M526.75 -0.0012207L451.5 44.7488V-0.0012207H526.75Z" stroke="#0DBA4B" stroke-width="0.896" stroke-linejoin="round"/>
<path d="M451.5 44.7488L526.75 89.4988V44.7488H451.5Z" stroke="#0DBA4B" stroke-width="0.896" stroke-linejoin="round"/>
<path d="M602 44.7488V89.4988H526.75L602 44.7488Z" stroke="#0DBA4B" stroke-width="0.896" stroke-linejoin="round"/>
<path d="M451.5 44.7488V-0.0012207H376.25L451.5 44.7488Z" stroke="#0DBA4B" stroke-width="0.896" stroke-linejoin="round"/>
<path d="M301 44.7488L376.25 -0.0012207V44.7488H301Z" stroke="#0DBA4B" stroke-width="0.896" stroke-linejoin="round"/>
<path d="M376.25 89.4988H301L376.25 44.7488V89.4988Z" stroke="#0DBA4B" stroke-width="0.896" stroke-linejoin="round"/>
<path d="M451.5 89.4988H376.25V44.7488L451.5 89.4988Z" stroke="#0DBA4B" stroke-width="0.896" stroke-linejoin="round"/>
<path d="M451.5 134.249V89.4988L376.25 134.249H451.5Z" stroke="#0DBA4B" stroke-width="0.896" stroke-linejoin="round"/>
<path d="M338.625 89.4988V111.874H376.25L338.625 89.4988Z" stroke="#0DBA4B" stroke-width="0.896" stroke-linejoin="round"/>
<path d="M338.625 111.874L301 89.4988H338.625V111.874Z" stroke="#0DBA4B" stroke-width="0.896" stroke-linejoin="round"/>
<path d="M301 134.249H338.625L301 111.874V134.249Z" stroke="#0DBA4B" stroke-width="0.896" stroke-linejoin="round"/>
<path d="M376.25 111.874H338.625L376.25 134.249V111.874Z" stroke="#0DBA4B" stroke-width="0.896" stroke-linejoin="round"/>
<path d="M376.25 178.999H301L376.25 134.249V178.999Z" stroke="#0DBA4B" stroke-width="0.896" stroke-linejoin="round"/>
<path d="M413.875 156.624L451.5 134.249V156.624H413.875Z" stroke="#0DBA4B" stroke-width="0.896" stroke-linejoin="round"/>
<path d="M413.875 134.249V156.624H376.25L413.875 134.249Z" stroke="#0DBA4B" stroke-width="0.896" stroke-linejoin="round"/>
<path d="M413.875 178.999H376.25L413.875 156.624V178.999Z" stroke="#0DBA4B" stroke-width="0.896" stroke-linejoin="round"/>
<path d="M451.5 156.624H413.875V178.999L451.5 156.624Z" stroke="#0DBA4B" stroke-width="0.896" stroke-linejoin="round"/>
<path d="M526.75 134.249H602L526.75 89.4988V134.249Z" stroke="#0DBA4B" stroke-width="0.896" stroke-linejoin="round"/>
<path d="M526.75 89.4988V111.874L489.125 89.4988H526.75Z" stroke="#0DBA4B" stroke-width="0.896" stroke-linejoin="round"/>
<path d="M489.125 89.4988V111.874H451.5L489.125 89.4988Z" stroke="#0DBA4B" stroke-width="0.896" stroke-linejoin="round"/>
<path d="M489.125 134.249V111.874L451.5 134.249H489.125Z" stroke="#0DBA4B" stroke-width="0.896" stroke-linejoin="round"/>
<path d="M526.75 134.249L489.125 111.874H526.75V134.249Z" stroke="#0DBA4B" stroke-width="0.896" stroke-linejoin="round"/>
<path d="M526.75 134.249L451.5 178.999H526.75V134.249Z" stroke="#0DBA4B" stroke-width="0.896" stroke-linejoin="round"/>
<path d="M602 178.999V134.249L526.75 178.999H602Z" stroke="#0DBA4B" stroke-width="0.896" stroke-linejoin="round"/>
<path d="M301 -0.0012207V44.7488H225.75L301 -0.0012207Z" stroke="#0DBA4B" stroke-width="0.896" stroke-linejoin="round"/>
<path d="M225.75 -0.0012207L150.5 44.7488H225.75V-0.0012207Z" stroke="#0DBA4B" stroke-width="0.896" stroke-linejoin="round"/>
<path d="M225.75 67.1238H188.125L225.75 44.7488V67.1238Z" stroke="#0DBA4B" stroke-width="0.896" stroke-linejoin="round"/>
<path d="M188.125 44.7488H150.5V67.1238L188.125 44.7488Z" stroke="#0DBA4B" stroke-width="0.896" stroke-linejoin="round"/>
<path d="M188.125 89.4988V67.1238L150.5 89.4988H188.125Z" stroke="#0DBA4B" stroke-width="0.896" stroke-linejoin="round"/>
<path d="M225.75 67.1238L188.125 89.4988H225.75V67.1238Z" stroke="#0DBA4B" stroke-width="0.896" stroke-linejoin="round"/>
<path d="M301 44.7488H225.75V89.4988L301 44.7488Z" stroke="#0DBA4B" stroke-width="0.896" stroke-linejoin="round"/>
<path d="M75.2502 -0.0012207L150.5 44.7488V-0.0012207H75.2502Z" stroke="#0DBA4B" stroke-width="0.896" stroke-linejoin="round"/>
<path d="M0.000244141 44.7488L75.2502 -0.0012207H0.000244141V44.7488Z" stroke="#0DBA4B" stroke-width="0.896" stroke-linejoin="round"/>
<path d="M75.2502 44.7488H0.000244141L75.2502 89.4988V44.7488Z" stroke="#0DBA4B" stroke-width="0.896" stroke-linejoin="round"/>
<path d="M150.5 44.7488V89.4988H75.2502L150.5 44.7488Z" stroke="#0DBA4B" stroke-width="0.896" stroke-linejoin="round"/>
<path d="M150.5 89.4988V134.249H75.2502L150.5 89.4988Z" stroke="#0DBA4B" stroke-width="0.896" stroke-linejoin="round"/>
<path d="M75.2502 89.4988V134.249L0.000244141 89.4988H75.2502Z" stroke="#0DBA4B" stroke-width="0.896" stroke-linejoin="round"/>
<path d="M0.000244141 134.249L75.2502 178.999V134.249H0.000244141Z" stroke="#0DBA4B" stroke-width="0.896" stroke-linejoin="round"/>
<path d="M75.2502 178.999L150.5 134.249V178.999H75.2502Z" stroke="#0DBA4B" stroke-width="0.896" stroke-linejoin="round"/>
<path d="M301 89.4988L263.375 111.874H301V89.4988Z" stroke="#0DBA4B" stroke-width="0.896" stroke-linejoin="round"/>
<path d="M225.75 89.4988L263.375 111.874V89.4988H225.75Z" stroke="#0DBA4B" stroke-width="0.896" stroke-linejoin="round"/>
<path d="M263.375 134.249V111.874H225.75L263.375 134.249Z" stroke="#0DBA4B" stroke-width="0.896" stroke-linejoin="round"/>
<path d="M301 111.874V134.249H263.375L301 111.874Z" stroke="#0DBA4B" stroke-width="0.896" stroke-linejoin="round"/>
<path d="M225.75 89.4988L150.5 134.249H225.75V89.4988Z" stroke="#0DBA4B" stroke-width="0.896" stroke-linejoin="round"/>
<path d="M225.75 178.999V134.249L150.5 178.999H225.75Z" stroke="#0DBA4B" stroke-width="0.896" stroke-linejoin="round"/>
<path d="M301 156.624V134.249L263.375 156.624H301Z" stroke="#0DBA4B" stroke-width="0.896" stroke-linejoin="round"/>
<path d="M263.375 156.624V134.249H225.75L263.375 156.624Z" stroke="#0DBA4B" stroke-width="0.896" stroke-linejoin="round"/>
<path d="M263.375 178.999L225.75 156.624H263.375V178.999Z" stroke="#0DBA4B" stroke-width="0.896" stroke-linejoin="round"/>
<path d="M301 156.624V178.999L263.375 156.624H301Z" stroke="#0DBA4B" stroke-width="0.896" stroke-linejoin="round"/>
<path d="M301 178.999L263.375 201.374H301V178.999Z" stroke="#0DBA4B" stroke-width="0.896" stroke-linejoin="round"/>
<path d="M225.75 201.374H263.375V178.999L225.75 201.374Z" stroke="#0DBA4B" stroke-width="0.896" stroke-linejoin="round"/>
<path d="M263.375 223.749L225.75 201.374V223.749H263.375Z" stroke="#0DBA4B" stroke-width="0.896" stroke-linejoin="round"/>
<path d="M263.375 201.374L301 223.749H263.375V201.374Z" stroke="#0DBA4B" stroke-width="0.896" stroke-linejoin="round"/>
<path d="M225.75 178.999V201.374H188.125L225.75 178.999Z" stroke="#0DBA4B" stroke-width="0.896" stroke-linejoin="round"/>
<path d="M150.5 178.999L188.125 201.374H150.5V178.999Z" stroke="#0DBA4B" stroke-width="0.896" stroke-linejoin="round"/>
<path d="M188.125 223.749H150.5L188.125 201.374V223.749Z" stroke="#0DBA4B" stroke-width="0.896" stroke-linejoin="round"/>
<path d="M225.75 223.749V201.374H188.125L225.75 223.749Z" stroke="#0DBA4B" stroke-width="0.896" stroke-linejoin="round"/>
<path d="M150.5 223.749V268.499L225.75 223.749H150.5Z" stroke="#0DBA4B" stroke-width="0.896" stroke-linejoin="round"/>
<path d="M301 223.749H263.375L301 246.124V223.749Z" stroke="#0DBA4B" stroke-width="0.896" stroke-linejoin="round"/>
<path d="M225.75 246.124V223.749H263.375L225.75 246.124Z" stroke="#0DBA4B" stroke-width="0.896" stroke-linejoin="round"/>
<path d="M263.375 268.499V246.124L225.75 268.499H263.375Z" stroke="#0DBA4B" stroke-width="0.896" stroke-linejoin="round"/>
<path d="M301 268.499V246.124L263.375 268.499H301Z" stroke="#0DBA4B" stroke-width="0.896" stroke-linejoin="round"/>
<path d="M150.5 178.999V223.749H75.2502L150.5 178.999Z" stroke="#0DBA4B" stroke-width="0.896" stroke-linejoin="round"/>
<path d="M75.2502 223.749V178.999L0.000244141 223.749H75.2502Z" stroke="#0DBA4B" stroke-width="0.896" stroke-linejoin="round"/>
<path d="M0.000244141 223.749L75.2502 268.499V223.749H0.000244141Z" stroke="#0DBA4B" stroke-width="0.896" stroke-linejoin="round"/>
<path d="M150.5 268.499V223.749L75.2502 268.499H150.5Z" stroke="#0DBA4B" stroke-width="0.896" stroke-linejoin="round"/>
<path d="M150.5 313.249V268.499H75.2502L150.5 313.249Z" stroke="#0DBA4B" stroke-width="0.896" stroke-linejoin="round"/>
<path d="M0.000244141 268.499L75.2502 313.249V268.499H0.000244141Z" stroke="#0DBA4B" stroke-width="0.896" stroke-linejoin="round"/>
<path d="M0.000244141 313.249L75.2502 357.999V313.249H0.000244141Z" stroke="#0DBA4B" stroke-width="0.896" stroke-linejoin="round"/>
<path d="M150.5 357.999H75.2502V313.249L150.5 357.999Z" stroke="#0DBA4B" stroke-width="0.896" stroke-linejoin="round"/>
<path d="M225.75 268.499L301 313.249H225.75V268.499Z" stroke="#0DBA4B" stroke-width="0.896" stroke-linejoin="round"/>
<path d="M150.5 313.249L225.75 268.499V313.249H150.5Z" stroke="#0DBA4B" stroke-width="0.896" stroke-linejoin="round"/>
<path d="M225.75 357.999V313.249L150.5 357.999H225.75Z" stroke="#0DBA4B" stroke-width="0.896" stroke-linejoin="round"/>
<path d="M301 313.249H225.75V357.999L301 313.249Z" stroke="#0DBA4B" stroke-width="0.896" stroke-linejoin="round"/>
<path d="M602 223.749V178.999H526.75L602 223.749Z" stroke="#0DBA4B" stroke-width="0.896" stroke-linejoin="round"/>
<path d="M489.125 201.374V178.999L526.75 201.374H489.125Z" stroke="#0DBA4B" stroke-width="0.896" stroke-linejoin="round"/>
<path d="M489.125 201.374L451.5 178.999V201.374H489.125Z" stroke="#0DBA4B" stroke-width="0.896" stroke-linejoin="round"/>
<path d="M489.125 223.749L451.5 201.374H489.125V223.749Z" stroke="#0DBA4B" stroke-width="0.896" stroke-linejoin="round"/>
<path d="M489.125 201.374H526.75V223.749L489.125 201.374Z" stroke="#0DBA4B" stroke-width="0.896" stroke-linejoin="round"/>
<path d="M526.75 268.499H451.5L526.75 223.749V268.499Z" stroke="#0DBA4B" stroke-width="0.896" stroke-linejoin="round"/>
<path d="M526.75 268.499V223.749L602 268.499H526.75Z" stroke="#0DBA4B" stroke-width="0.896" stroke-linejoin="round"/>
<path d="M413.875 201.374L451.5 178.999H413.875V201.374Z" stroke="#0DBA4B" stroke-width="0.896" stroke-linejoin="round"/>
<path d="M376.25 178.999L413.875 201.374V178.999H376.25Z" stroke="#0DBA4B" stroke-width="0.896" stroke-linejoin="round"/>
<path d="M413.875 223.749H376.25V201.374L413.875 223.749Z" stroke="#0DBA4B" stroke-width="0.896" stroke-linejoin="round"/>
<path d="M413.875 223.749H451.5V201.374L413.875 223.749Z" stroke="#0DBA4B" stroke-width="0.896" stroke-linejoin="round"/>
<path d="M376.25 178.999V201.374H338.625L376.25 178.999Z" stroke="#0DBA4B" stroke-width="0.896" stroke-linejoin="round"/>
<path d="M338.625 201.374L301 178.999V201.374H338.625Z" stroke="#0DBA4B" stroke-width="0.896" stroke-linejoin="round"/>
<path d="M338.625 223.749L301 201.374H338.625V223.749Z" stroke="#0DBA4B" stroke-width="0.896" stroke-linejoin="round"/>
<path d="M338.625 223.749L376.25 201.374V223.749H338.625Z" stroke="#0DBA4B" stroke-width="0.896" stroke-linejoin="round"/>
<path d="M338.625 246.124H376.25V223.749L338.625 246.124Z" stroke="#0DBA4B" stroke-width="0.896" stroke-linejoin="round"/>
<path d="M301 246.124H338.625L301 223.749V246.124Z" stroke="#0DBA4B" stroke-width="0.896" stroke-linejoin="round"/>
<path d="M338.625 246.124L301 268.499H338.625V246.124Z" stroke="#0DBA4B" stroke-width="0.896" stroke-linejoin="round"/>
<path d="M376.25 268.499L338.625 246.124H376.25V268.499Z" stroke="#0DBA4B" stroke-width="0.896" stroke-linejoin="round"/>
<path d="M376.25 268.499H451.5L376.25 223.749V268.499Z" stroke="#0DBA4B" stroke-width="0.896" stroke-linejoin="round"/>
<path d="M451.5 290.874V268.499L413.875 290.874H451.5Z" stroke="#0DBA4B" stroke-width="0.896" stroke-linejoin="round"/>
<path d="M413.875 268.499H376.25L413.875 290.874V268.499Z" stroke="#0DBA4B" stroke-width="0.896" stroke-linejoin="round"/>
<path d="M413.875 313.249V290.874H376.25L413.875 313.249Z" stroke="#0DBA4B" stroke-width="0.896" stroke-linejoin="round"/>
<path d="M451.5 313.249V290.874L413.875 313.249H451.5Z" stroke="#0DBA4B" stroke-width="0.896" stroke-linejoin="round"/>
<path d="M301 268.499L376.25 313.249V268.499H301Z" stroke="#0DBA4B" stroke-width="0.896" stroke-linejoin="round"/>
<path d="M376.25 357.999H301L376.25 313.249V357.999Z" stroke="#0DBA4B" stroke-width="0.896" stroke-linejoin="round"/>
<path d="M451.5 313.249V357.999L376.25 313.249H451.5Z" stroke="#0DBA4B" stroke-width="0.896" stroke-linejoin="round"/>
<path d="M602 357.999L451.5 268.499V357.999H602Z" stroke="#0DBA4B" stroke-width="0.896" stroke-linejoin="round"/>
</g>
</g>
<rect x="0.3" y="0.3" width="601.4" height="357.4" rx="11.7" stroke="black" stroke-opacity="0.18" stroke-width="0.6"/>
<defs>
<clipPath id="clip0_83_5876">
<rect width="602" height="358" rx="12" fill="white"/>
</clipPath>
</defs>
</svg>
