<svg width="206" height="143" viewBox="0 0 206 143" fill="none" xmlns="http://www.w3.org/2000/svg">
<g clip-path="url(#clip0_83_6059)">
<path opacity="0.1" d="M52.3642 57.3064H30.5621C29.79 57.3064 29.1641 57.9323 29.1641 58.7044V63.3444C29.1641 64.1166 29.79 64.7425 30.5621 64.7425H52.3642C53.1363 64.7425 53.7622 64.1166 53.7622 63.3444V58.7044C53.7622 57.9323 53.1363 57.3064 52.3642 57.3064Z" fill="#17D059"/>
<path opacity="0.1" d="M78.1061 64.7439H56.304C55.5319 64.7439 54.906 65.3698 54.906 66.1419V70.782C54.906 71.5541 55.5319 72.18 56.304 72.18H78.1061C78.8782 72.18 79.5042 71.5541 79.5042 70.782V66.1419C79.5042 65.3698 78.8782 64.7439 78.1061 64.7439Z" fill="#17D059"/>
<path opacity="0.1" d="M103.851 72.1814H82.0484C81.2763 72.1814 80.6504 72.8073 80.6504 73.5794V78.2195C80.6504 78.9916 81.2763 79.6175 82.0484 79.6175H103.851C104.623 79.6175 105.249 78.9916 105.249 78.2195V73.5794C105.249 72.8073 104.623 72.1814 103.851 72.1814Z" fill="#17D059"/>
<path opacity="0.1" d="M52.3642 46.1501H30.5621C29.79 46.1501 29.1641 46.7761 29.1641 47.5482V52.1882C29.1641 52.9603 29.79 53.5862 30.5621 53.5862H52.3642C53.1363 53.5862 53.7622 52.9603 53.7622 52.1882V47.5482C53.7622 46.7761 53.1363 46.1501 52.3642 46.1501Z" fill="#17D059"/>
<path opacity="0.1" d="M78.1061 53.585H56.304C55.5319 53.585 54.906 54.2109 54.906 54.983V59.623C54.906 60.3951 55.5319 61.021 56.304 61.021H78.1061C78.8782 61.021 79.5042 60.3951 79.5042 59.623V54.983C79.5042 54.2109 78.8782 53.585 78.1061 53.585Z" fill="#17D059"/>
<path opacity="0.1" d="M103.851 61.0225H82.0484C81.2763 61.0225 80.6504 61.6484 80.6504 62.4205V67.0605C80.6504 67.8326 81.2763 68.4585 82.0484 68.4585H103.851C104.623 68.4585 105.249 67.8326 105.249 67.0605V62.4205C105.249 61.6484 104.623 61.0225 103.851 61.0225Z" fill="#17D059"/>
<path opacity="0.1" d="M132.453 57.3064H110.651C109.879 57.3064 109.253 57.9323 109.253 58.7044V63.3444C109.253 64.1166 109.879 64.7425 110.651 64.7425H132.453C133.225 64.7425 133.851 64.1166 133.851 63.3444V58.7044C133.851 57.9323 133.225 57.3064 132.453 57.3064Z" fill="#17D059"/>
<path opacity="0.1" d="M158.194 64.7439H136.392C135.62 64.7439 134.994 65.3698 134.994 66.1419V70.782C134.994 71.5541 135.62 72.18 136.392 72.18H158.194C158.966 72.18 159.592 71.5541 159.592 70.782V66.1419C159.592 65.3698 158.966 64.7439 158.194 64.7439Z" fill="#17D059"/>
<path opacity="0.1" d="M183.938 72.1814H162.136C161.364 72.1814 160.738 72.8073 160.738 73.5794V78.2195C160.738 78.9916 161.364 79.6175 162.136 79.6175H183.938C184.711 79.6175 185.336 78.9916 185.336 78.2195V73.5794C185.336 72.8073 184.711 72.1814 183.938 72.1814Z" fill="#17D059"/>
<path opacity="0.1" d="M132.453 46.1501H110.651C109.879 46.1501 109.253 46.7761 109.253 47.5482V52.1882C109.253 52.9603 109.879 53.5862 110.651 53.5862H132.453C133.225 53.5862 133.851 52.9603 133.851 52.1882V47.5482C133.851 46.7761 133.225 46.1501 132.453 46.1501Z" fill="#17D059"/>
<path opacity="0.1" d="M158.194 53.585H136.392C135.62 53.585 134.994 54.2109 134.994 54.983V59.623C134.994 60.3951 135.62 61.021 136.392 61.021H158.194C158.966 61.021 159.592 60.3951 159.592 59.623V54.983C159.592 54.2109 158.966 53.585 158.194 53.585Z" fill="#17D059"/>
<path opacity="0.1" d="M183.938 61.0225H162.136C161.364 61.0225 160.738 61.6484 160.738 62.4205V67.0605C160.738 67.8326 161.364 68.4585 162.136 68.4585H183.938C184.711 68.4585 185.336 67.8326 185.336 67.0605V62.4205C185.336 61.6484 184.711 61.0225 183.938 61.0225Z" fill="#17D059"/>
<path opacity="0.1" d="M52.3642 31.2778H30.5621C29.79 31.2778 29.1641 31.9037 29.1641 32.6759V37.3159C29.1641 38.088 29.79 38.7139 30.5621 38.7139H52.3642C53.1363 38.7139 53.7622 38.088 53.7622 37.3159V32.6759C53.7622 31.9037 53.1363 31.2778 52.3642 31.2778Z" fill="#17D059"/>
<path opacity="0.1" d="M78.1061 38.71H56.304C55.5319 38.71 54.906 39.3359 54.906 40.108V44.748C54.906 45.5201 55.5319 46.146 56.304 46.146H78.1061C78.8782 46.146 79.5042 45.5201 79.5042 44.748V40.108C79.5042 39.3359 78.8782 38.71 78.1061 38.71Z" fill="#17D059"/>
<path opacity="0.1" d="M103.851 46.1501H82.0484C81.2763 46.1501 80.6504 46.7761 80.6504 47.5482V52.1882C80.6504 52.9603 81.2763 53.5862 82.0484 53.5862H103.851C104.623 53.5862 105.249 52.9603 105.249 52.1882V47.5482C105.249 46.7761 104.623 46.1501 103.851 46.1501Z" fill="#17D059"/>
<path opacity="0.1" d="M52.3652 20.1189H30.5631C29.791 20.1189 29.165 20.7448 29.165 21.5169V26.157C29.165 26.9291 29.791 27.555 30.5631 27.555H52.3652C53.1373 27.555 53.7632 26.9291 53.7632 26.157V21.5169C53.7632 20.7448 53.1373 20.1189 52.3652 20.1189Z" fill="#17D059"/>
<path opacity="0.1" d="M78.1061 27.5564H56.304C55.5319 27.5564 54.906 28.1823 54.906 28.9544V33.5945C54.906 34.3666 55.5319 34.9925 56.304 34.9925H78.1061C78.8782 34.9925 79.5042 34.3666 79.5042 33.5945V28.9544C79.5042 28.1823 78.8782 27.5564 78.1061 27.5564Z" fill="#17D059"/>
<path opacity="0.1" d="M103.85 34.9966H82.0482C81.2761 34.9966 80.6501 35.6225 80.6501 36.3946V41.0346C80.6501 41.8067 81.2761 42.4327 82.0482 42.4327H103.85C104.622 42.4327 105.248 41.8067 105.248 41.0346V36.3946C105.248 35.6225 104.622 34.9966 103.85 34.9966Z" fill="#17D059"/>
<path opacity="0.1" d="M132.453 31.2778H110.651C109.879 31.2778 109.253 31.9037 109.253 32.6759V37.3159C109.253 38.088 109.879 38.7139 110.651 38.7139H132.453C133.225 38.7139 133.851 38.088 133.851 37.3159V32.6759C133.851 31.9037 133.225 31.2778 132.453 31.2778Z" fill="#17D059"/>
<path opacity="0.1" d="M158.194 38.71H136.392C135.62 38.71 134.994 39.3359 134.994 40.108V44.748C134.994 45.5201 135.62 46.146 136.392 46.146H158.194C158.966 46.146 159.592 45.5201 159.592 44.748V40.108C159.592 39.3359 158.966 38.71 158.194 38.71Z" fill="#17D059"/>
<path opacity="0.1" d="M183.938 46.1501H162.136C161.364 46.1501 160.738 46.7761 160.738 47.5482V52.1882C160.738 52.9603 161.364 53.5862 162.136 53.5862H183.938C184.711 53.5862 185.336 52.9603 185.336 52.1882V47.5482C185.336 46.7761 184.711 46.1501 183.938 46.1501Z" fill="#17D059"/>
<path opacity="0.1" d="M132.453 20.1189H110.651C109.879 20.1189 109.253 20.7448 109.253 21.5169V26.157C109.253 26.9291 109.879 27.555 110.651 27.555H132.453C133.225 27.555 133.851 26.9291 133.851 26.157V21.5169C133.851 20.7448 133.225 20.1189 132.453 20.1189Z" fill="#17D059"/>
<path opacity="0.1" d="M158.194 27.5564H136.392C135.62 27.5564 134.994 28.1823 134.994 28.9544V33.5945C134.994 34.3666 135.62 34.9925 136.392 34.9925H158.194C158.966 34.9925 159.592 34.3666 159.592 33.5945V28.9544C159.592 28.1823 158.966 27.5564 158.194 27.5564Z" fill="#17D059"/>
<path opacity="0.1" d="M183.938 34.9966H162.136C161.364 34.9966 160.738 35.6225 160.738 36.3946V41.0346C160.738 41.8067 161.364 42.4327 162.136 42.4327H183.938C184.711 42.4327 185.336 41.8067 185.336 41.0346V36.3946C185.336 35.6225 184.711 34.9966 183.938 34.9966Z" fill="#17D059"/>
<path opacity="0.1" d="M102.923 143.006C159.766 143.006 205.846 134.624 205.846 124.284C205.846 113.945 159.766 105.562 102.923 105.562C46.0797 105.562 -0.000732422 113.945 -0.000732422 124.284C-0.000732422 134.624 46.0797 143.006 102.923 143.006Z" fill="#17D059"/>
<path d="M45.1573 60.4056L36.502 113.467L75.6392 109.327L73.9458 104.811L43.3698 107.352L50.5199 60.3115L45.1573 60.4056Z" fill="#3F3D56"/>
<path d="M34.9971 0.190113L87.6819 0.00195312L102.923 115.344L50.0499 122.494L34.9971 0.190113Z" fill="#3F3D56"/>
<path d="M40.7366 4.61499H83.2607L98.1254 111.866L54.2841 117.887L40.7366 4.61499Z" fill="white"/>
<path d="M80.8397 107.046C81.1069 107.558 81.3064 108.111 81.6545 108.572C82.6705 109.931 84.5992 110.144 86.0461 111.03C86.1185 111.067 86.1782 111.124 86.2173 111.195C86.2832 111.352 86.1364 111.515 85.9953 111.613C84.8983 112.383 83.4589 112.4 82.1173 112.39C81.6665 112.406 81.2155 112.363 80.7758 112.262C80.0664 112.074 79.4586 111.579 78.7587 111.378C78.3957 111.287 78.0243 111.235 77.6504 111.222L76.1809 111.122C75.7897 111.116 75.4022 111.044 75.035 110.909C74.852 110.839 74.6898 110.724 74.5634 110.574C74.4371 110.425 74.3507 110.245 74.3125 110.053C74.2711 109.741 74.4047 109.438 74.4837 109.133C74.6718 108.411 74.6135 107.538 75.1761 107.045C75.4079 106.867 75.6737 106.739 75.957 106.668C76.9796 106.324 78.0236 106.046 79.0823 105.837C79.9535 105.665 80.454 106.305 80.8397 107.046Z" fill="#3F3D56"/>
<path d="M64.2183 111.111C64.256 111.512 64.2672 111.971 63.9775 112.251C63.7971 112.401 63.5791 112.499 63.3471 112.533C61.9566 112.857 60.4062 112.88 59.1963 112.123C59.0704 112.051 58.9594 111.956 58.8689 111.843C58.7681 111.688 58.7108 111.51 58.7034 111.325C58.6601 110.793 58.8238 110.268 58.9724 109.754C59.3242 108.535 59.5914 107.294 59.7721 106.038C59.7872 105.935 63.3227 106.603 63.5579 106.953C63.8533 107.385 63.8552 108.424 63.9342 108.94C64.0534 109.66 64.1481 110.383 64.2183 111.111Z" fill="#3F3D56"/>
<path d="M77.3768 62.1491L78.3176 70.8967C78.5058 72.6842 78.7033 74.4811 78.5735 76.2743C78.423 78.344 77.8434 80.4138 78.088 82.4647C78.184 83.2625 78.4023 84.0453 78.4343 84.8487C78.4402 85.383 78.4132 85.9171 78.3534 86.4481C77.9281 91.7561 79.2735 97.0227 80.0261 102.293C80.1471 102.943 80.1737 103.607 80.1051 104.265C80.0073 104.933 79.8116 105.81 80.4062 106.126L74.8216 108.15C74.1085 107.257 74.5807 105.866 74.4453 104.732C74.3211 103.71 73.7604 102.799 73.4612 101.815C73.1902 100.931 73.1338 99.9994 73.0454 99.0811C72.558 94.0817 71.0622 89.2121 70.7122 84.2014C70.7009 83.7175 70.6379 83.2362 70.524 82.7658C70.3359 82.143 69.9595 81.5992 69.6848 81.014C69.2633 80.1353 69.0564 79.1719 68.8532 78.2198L67.6583 72.6221C66.4504 74.4209 66.4993 76.7616 66.2603 78.9179C65.9254 81.9285 65.1765 84.8882 64.5669 87.8612C64.4252 88.5008 64.3191 89.1478 64.2489 89.7992C64.0908 91.5434 64.4051 93.3046 64.2376 95.047C64.0494 97.0659 63.2008 99.036 63.4059 101.055C63.5188 102.173 63.9478 103.23 64.2376 104.314C64.5274 105.398 64.6704 106.587 64.2282 107.62C62.6828 107.052 61.0226 106.869 59.3906 107.085C57.5974 105.251 57.2794 102.692 57.1571 100.124C57.0348 97.5552 57.3302 94.983 57.0104 92.4391C56.9163 91.6865 56.7695 90.9526 56.7451 90.2019C56.666 87.7953 57.8232 85.543 58.399 83.2042C58.9171 81.0987 58.9666 78.9052 58.5439 76.7785C58.2616 75.373 57.7762 74.0088 57.6031 72.5844C57.3679 70.5881 57.7668 68.5766 58.1676 66.6047C58.4366 65.2744 58.7038 63.9441 59.0086 62.6214C59.336 61.2008 59.7255 59.7501 60.6005 58.5872C62.0004 56.7263 64.486 55.9003 66.8097 56.0809C69.1335 56.2616 71.303 57.319 73.2222 58.6361C74.7349 59.6471 76.1285 60.8255 77.3768 62.1491Z" fill="#192534"/>
<path d="M71.1357 28.6507C71.0302 28.8202 70.9568 29.0077 70.9193 29.2039C70.8723 29.5896 71.1075 29.9433 71.2956 30.2801C71.5367 30.7129 71.722 31.1744 71.8469 31.6537C71.9365 31.9504 71.964 32.2623 71.9278 32.57C71.8819 32.8012 71.7994 33.0235 71.6832 33.2286C71.3201 33.9286 70.782 34.5758 70.05 34.8675C69.4832 35.0762 68.865 35.1012 68.2832 34.939C67.7052 34.7754 67.1589 34.5159 66.6669 34.1713C66.2522 33.9085 65.8793 33.585 65.5605 33.2117C65.2562 32.8034 64.9998 32.3615 64.7966 31.8945C64.4052 31.076 64.0082 30.2011 64.0797 29.3036C64.0834 29.2222 64.0986 29.1417 64.1249 29.0646C64.186 28.9252 64.2713 28.7978 64.377 28.6883C65.1798 27.737 65.5914 26.5164 65.5285 25.2732L68.27 25.896C68.874 26.0334 69.478 26.1707 70.0745 26.3419C70.5637 26.4831 71.3163 26.6787 71.6343 27.1153C71.9523 27.5518 71.3521 28.2518 71.1357 28.6507Z" fill="#FBBEBE"/>
<path d="M69.667 28.1861C72.4188 28.1861 74.6495 25.9554 74.6495 23.2037C74.6495 20.4519 72.4188 18.2212 69.667 18.2212C66.9153 18.2212 64.6846 20.4519 64.6846 23.2037C64.6846 25.9554 66.9153 28.1861 69.667 28.1861Z" fill="#FBBEBE"/>
<path d="M68.8653 33.2541C69.076 32.7931 69.5314 32.5014 69.9472 32.2116C70.3631 31.9219 70.7845 31.5512 70.8654 31.0488C70.8704 30.9352 70.8986 30.8238 70.9482 30.7214C71.1082 30.4806 71.4882 30.601 71.7159 30.7779C72.2691 31.2088 72.6454 31.8203 73.0123 32.4167C73.487 33.1421 73.8933 33.9099 74.226 34.7104C74.7547 36.1047 74.8187 37.6269 74.877 39.1152C74.9297 40.47 74.9805 41.8454 74.6512 43.1588C74.4442 43.9905 74.0867 44.7977 74.066 45.6538C74.0039 48.7641 72.9239 51.737 72.8486 54.8473C72.843 55.7467 72.8882 56.6456 72.9841 57.5399L73.161 59.5588C70.4251 59.402 67.6968 59.1618 64.976 58.8382C64.897 57.9087 64.6317 57.0074 64.389 56.108C63.3951 52.4309 62.758 48.6666 62.4867 44.8673C62.3418 42.8502 62.1931 40.8407 61.9692 38.8311C61.7679 37.0041 61.3728 35.1658 61.6099 33.3425C61.7339 32.5137 61.9946 31.7113 62.3813 30.9679C62.5035 30.6717 62.7137 30.4202 62.9834 30.2473C63.1182 30.1821 63.2613 30.1359 63.4087 30.1099C63.8352 30.0235 64.2682 29.9725 64.7032 29.9575C64.8095 29.9485 64.9166 29.9587 65.0193 29.9876C65.2026 30.079 65.3532 30.2249 65.4502 30.4053C66.2885 31.6657 67.475 32.6554 68.8653 33.2541Z" fill="#F2F2F2"/>
<path d="M66.5557 32.8602C66.9056 33.3607 67.647 33.4792 67.9706 33.9892C68.0797 34.2023 68.1624 34.4278 68.2171 34.6609C68.4147 35.2912 68.8136 35.8388 69.0563 36.4541C69.4063 37.3384 69.4157 38.3168 69.4195 39.2671C69.4539 40.0239 69.3957 40.7822 69.2463 41.525C69.1335 41.9897 68.9491 42.4319 68.8136 42.891C68.5835 43.6718 68.4981 44.488 68.5615 45.2995C68.5615 45.4748 68.6082 45.6469 68.6969 45.7981C68.8245 45.9492 68.9911 46.0624 69.1786 46.1255C69.7299 46.3682 70.3076 46.6166 70.9097 46.5601C71.0332 46.5562 71.1529 46.5163 71.254 46.4454C71.3238 46.3818 71.3812 46.3059 71.4234 46.2214L71.7997 45.5855C72.1403 45.004 72.4959 44.353 72.3642 43.6888C72.2685 43.346 72.1247 43.0185 71.937 42.716C71.6965 42.2252 71.4916 41.7177 71.3236 41.1976C70.7234 39.4721 70.1157 37.7223 69.9802 35.9009C69.9005 35.2077 69.9777 34.5055 70.206 33.8462C70.3827 33.4404 70.6049 33.056 70.8683 32.7003C70.8087 32.6203 70.7262 32.5604 70.6318 32.5285C70.5373 32.4965 70.4354 32.4941 70.3396 32.5215C70.1503 32.58 69.967 32.6562 69.792 32.7492C69.2388 32.9825 68.6254 32.8978 68.0666 32.7379C67.8483 32.6739 67.5021 32.4557 67.2763 32.4707C67.1992 32.4801 66.5688 32.8828 66.5557 32.8602Z" fill="#17D059"/>
<path d="M70.9588 32.8345C70.8459 32.7442 70.6709 32.6614 70.5712 32.7668C70.5377 32.8125 70.5134 32.8643 70.4997 32.9192C70.4019 33.1826 70.114 33.3125 69.8524 33.4141C69.5909 33.5157 69.3086 33.5721 69.1506 33.3783C69.1007 33.3029 69.0762 33.2135 69.0806 33.1231C69.085 33.0328 69.1181 32.9462 69.1751 32.8759C69.2908 32.7365 69.4303 32.6186 69.5871 32.5278C70.4526 31.9169 71.0422 30.9893 71.2279 29.9463C71.4706 30.1392 71.6313 30.4168 71.6776 30.7234C71.7397 31.0226 71.7472 31.3311 71.8093 31.6303C71.9015 32.0593 72.1066 32.4601 72.1536 32.8948C72.1781 33.1262 72.1536 33.3595 72.1536 33.5909C72.1621 33.8172 72.1885 34.0425 72.2327 34.2646C71.7924 33.7979 71.4819 33.2504 70.9588 32.8345Z" fill="#F2F2F2"/>
<path d="M67.1526 31.5575C66.9645 31.3788 66.7763 31.2094 66.5881 31.0269C65.7625 30.221 65.139 29.2314 64.7686 28.1387C64.5278 28.3268 64.2625 28.5752 64.2568 28.8913C64.2783 29.115 64.3646 29.3275 64.5052 29.5028C65.2167 30.6234 65.6865 31.8801 65.8844 33.1926C65.9861 33.0338 66.1269 32.9039 66.2933 32.8152C66.4597 32.7266 66.6461 32.6823 66.8346 32.6865C67.1319 32.6865 68.466 33.4768 68.5619 33.2773C68.7031 32.965 67.3784 31.7702 67.1526 31.5575Z" fill="#F2F2F2"/>
<path d="M71.3526 30.0595C73.1226 31.8215 75.2894 33.1333 77.6711 33.8848C77.9078 33.9364 78.1274 34.0479 78.3089 34.2085C78.4445 34.3778 78.5357 34.5783 78.5742 34.7917C79.0333 36.5868 79.1876 38.4439 79.34 40.2898C79.3799 40.5951 79.3736 40.9046 79.3212 41.208C79.2102 41.701 78.8602 42.0999 78.5159 42.4706C77.4359 43.6277 76.2034 44.8376 76.0209 46.4106C76.007 46.7139 75.9711 47.0157 75.9136 47.3138C75.8196 47.6638 75.6107 47.9724 75.4828 48.3129C74.8543 49.9894 76.2749 52.0197 75.4094 53.5814C75.8779 54.4816 76.1993 55.4509 76.3615 56.4527C76.3905 56.8325 76.4774 57.2056 76.6192 57.5591C76.877 58.0972 77.4076 58.4397 77.8253 58.8762C79.0992 60.1821 79.2554 62.1803 79.3306 64.0036C79.3777 65.0309 79.3626 66.2107 78.578 66.8843C78.1245 67.2776 77.5055 67.4055 76.9128 67.5034C76.1244 67.6351 75.2664 67.7292 74.5683 67.3397C74.0678 67.0612 73.7272 66.5739 73.4017 66.1035C72.7845 65.2059 72.1655 64.3103 71.5803 63.3902C70.6546 61.9395 69.7815 60.2818 70.0487 58.5808C69.9734 60.3213 69.6065 62.0749 68.7523 63.5915C67.898 65.1081 66.5226 66.3744 64.8536 66.8749C63.1846 67.3754 61.2334 67.0217 59.9897 65.8024C59.5836 65.3844 59.235 64.9143 58.9529 64.4044C58.2449 63.192 57.7283 61.8776 57.4213 60.5076C57.3404 60.1519 57.2802 59.7549 57.4589 59.4369C57.5436 59.2864 57.6734 59.1679 57.7618 59.0192C58.0591 58.5131 57.7731 57.8752 57.4853 57.3597C57.0468 57.4011 56.7326 56.8855 56.7721 56.4452C56.8116 56.0049 57.0751 55.6229 57.2613 55.2222C57.807 54.0405 57.6866 52.6651 57.4232 51.3912C57.1597 50.1174 56.7665 48.8511 56.7966 47.5509C56.8286 46.1754 55.8389 44.9373 55.0843 43.7877C54.6629 43.1404 54.1718 42.5383 53.8048 41.859C53.0399 40.4296 52.863 38.7581 53.3119 37.2002C53.5753 36.4002 53.9209 35.6297 54.343 34.9009L54.9639 33.7362C55.0795 33.4579 55.259 33.2107 55.4878 33.0146C55.7166 32.8184 55.9883 32.6789 56.281 32.6072L60.5767 30.9138C61.126 30.7262 61.6475 30.4654 62.1272 30.1386C62.6521 29.7434 63.0435 29.1978 63.544 28.7763C63.6169 28.6997 63.7044 28.6384 63.8014 28.5961C63.8983 28.5537 64.0027 28.5312 64.1085 28.5298C64.5111 28.5655 64.6542 29.0736 64.6955 29.4706C64.7896 30.3587 65.4482 31.1113 65.6721 31.975C66.8838 36.7449 69.4485 41.144 70.1522 46.0136C70.9425 44.1151 71.7327 42.2128 72.745 40.4253C72.9047 40.1686 73.0389 39.897 73.1458 39.6143C73.2673 39.2065 73.3126 38.7797 73.2794 38.3555C73.2286 37.1306 72.9031 35.9339 72.5813 34.7504C72.1636 33.1397 71.7873 31.6551 71.3526 30.0595Z" fill="#3F3D56"/>
<path d="M79.5416 44.6311C79.6243 45.4327 79.7053 46.2361 79.8539 47.0283C80.027 47.9446 80.2904 48.8403 80.552 49.7359C80.6797 50.2394 80.8627 50.7271 81.0976 51.1904C81.1828 51.3249 81.2505 51.4697 81.299 51.6213C81.3912 51.9976 81.1804 52.3739 81.0901 52.7502C80.8192 53.8792 81.632 55.1342 81.1202 56.1747C80.9659 56.4909 80.6969 56.7524 80.5952 57.0911C80.4767 57.4806 80.5952 57.8964 80.6573 58.2991C80.8173 59.428 80.4315 60.5758 80.0515 61.6615L79.4042 63.4942C78.8134 62.3953 78.2169 61.2852 77.4003 60.3425C77.1086 60.0038 76.7907 59.6896 76.5216 59.3321C76.1204 58.7703 75.8034 58.1528 75.5808 57.4994C75.0063 55.9468 74.6781 54.3139 74.608 52.6599C74.5613 52.1897 74.6158 51.7149 74.7679 51.2675C74.8925 51.0088 75.0319 50.7575 75.1856 50.5149C75.6899 49.6061 75.7934 48.5298 75.784 47.4912C75.7746 46.4525 75.6636 45.4101 75.784 44.3771C75.8823 43.5146 76.1373 42.6773 76.5366 41.9066C76.7722 41.4074 77.1222 40.971 77.5583 40.6327C77.8838 40.3891 78.2808 40.26 78.6873 40.2658C79.3026 40.3016 79.1615 40.8303 79.2142 41.3402L79.5416 44.6311Z" fill="#3F3D56"/>
<path d="M51.8645 42.0764C51.4806 43.2053 51.1344 44.3443 50.8258 45.4933C50.5248 46.6223 50.2557 47.7575 50.0186 48.899C49.8969 49.4009 49.8287 49.9144 49.8154 50.4307C49.8395 51.0318 49.9426 51.6271 50.1221 52.2012C51.3339 56.5684 53.5429 60.5969 56.0304 64.3846C56.7411 63.4981 57.5854 62.7275 58.5329 62.1003C58.6104 62.0544 58.6751 61.9897 58.721 61.9122C58.7449 61.839 58.7519 61.7614 58.7414 61.6851C58.731 61.6089 58.7034 61.536 58.6608 61.4719C57.974 60.0645 56.8865 58.8245 56.544 57.2947C56.401 56.6588 56.3954 55.9964 56.2336 55.3642C56.0247 54.5457 55.5581 53.7968 55.4508 52.9577C55.336 52.0432 55.639 51.0459 55.21 50.235C56.0849 49.8944 56.5911 48.9931 56.9617 48.1295C57.3578 47.2459 57.641 46.316 57.8047 45.3616C58.0624 43.532 57.7042 41.6687 56.7868 40.0649C56.3386 39.2649 55.7635 38.543 55.0839 37.9274C54.86 37.7261 54.3313 37.1484 54.0058 37.1541C53.5711 37.1635 53.4319 37.8672 53.3077 38.1833C52.8053 39.4741 52.3086 40.7668 51.8645 42.0764Z" fill="#3F3D56"/>
<path d="M59.6581 63.1342C59.7145 63.1756 59.7785 63.232 59.7634 63.2998C59.7484 63.3675 59.6938 63.3844 59.6449 63.4127C59.3905 63.5931 59.2006 63.8503 59.103 64.1465C58.7903 64.8512 58.5177 65.573 58.2864 66.3084C57.8653 65.6776 57.3701 65.0996 56.8112 64.5868C56.3822 64.1916 55.9024 63.8172 55.6729 63.2828C55.6729 63.2678 56.6588 62.5396 56.7491 62.4606C57.0257 62.2141 57.3738 61.5311 57.6598 61.3805C57.9835 61.2112 58.292 61.8754 58.5385 62.1426C58.8776 62.5097 59.2527 62.8419 59.6581 63.1342Z" fill="#FBBEBE"/>
<path d="M74.958 22.4244C74.9448 22.1779 74.9128 21.9051 74.7247 21.7452C74.5595 21.6309 74.3606 21.5759 74.1602 21.589C73.0632 21.5533 71.9286 21.7376 70.8937 21.3689C70.2126 21.1261 69.6312 20.6595 68.967 20.3697C68.3028 20.08 67.4523 20.0028 66.916 20.4901C66.5096 20.8665 66.3986 21.4441 66.2575 21.9766C65.9468 23.1519 65.3937 24.2491 64.6337 25.1979C64.1237 25.0399 63.7587 24.5845 63.5235 24.1066C62.7238 22.4771 63.1171 20.5315 63.6853 18.8042C63.8735 18.2247 64.0823 17.6508 64.2912 17.0788L64.7503 15.8144C65.3529 15.7552 65.9127 15.4766 66.3233 15.0316L66.5209 15.5114C67.0312 15.4931 67.5236 15.3191 67.9321 15.0128C68.0902 15.3101 68.4966 15.3891 68.8259 15.2932C69.1551 15.1972 69.4393 15.0128 69.7667 14.9168C70.6416 14.6346 71.5749 15.0693 72.4931 15.1182C72.8817 15.1087 73.2705 15.12 73.6578 15.152C74.7416 15.327 75.5074 16.3469 75.8386 17.393C76.0587 18.0892 76.2412 18.9454 76.928 19.1918C76.9431 19.4553 76.4764 19.5061 76.4369 19.7563C76.4323 19.8398 76.4519 19.9228 76.4934 19.9953L77.1237 21.3482C76.8224 21.4238 76.5054 21.4081 76.213 21.303C75.9289 21.971 74.9862 22.9343 74.958 22.4244Z" fill="#192534"/>
<path d="M106.899 25.3675C107.219 26.3993 107.47 27.4508 107.652 28.5154C107.788 29.3132 107.867 30.1995 107.409 30.8656C109.152 28.2445 110.971 25.5444 113.619 23.8528C113.08 23.2683 112.669 22.5769 112.415 21.8235C112.16 21.0702 112.067 20.2717 112.142 19.48C112.157 19.3219 109.968 20.148 109.801 20.242C109.033 20.6692 108.329 21.1998 107.581 21.657C107.193 21.8922 105.579 22.4492 105.563 22.786C105.563 23.0024 106.205 23.6647 106.326 23.8924C106.562 24.3654 106.754 24.8592 106.899 25.3675Z" fill="#FBBEBE"/>
<path d="M114.996 124.225C114.566 123.922 114.062 123.741 113.537 123.701C113.013 123.661 112.487 123.764 112.016 123.999C111.164 124.439 110.59 125.273 109.814 125.837C108.482 126.804 106.723 126.881 105.163 127.405C104.749 127.544 104.309 127.751 104.134 128.157C104.075 128.328 104.052 128.509 104.065 128.689C104.078 128.869 104.128 129.045 104.211 129.205C104.472 129.786 104.929 130.257 105.502 130.536C106.202 130.87 107.007 130.885 107.782 130.895L114.518 130.974C116.588 130.998 118.671 131.023 120.728 131.281C121.208 131.341 121.727 131.407 122.15 131.171C122.839 130.795 122.918 129.843 122.865 129.058C122.727 127.07 122.282 125.116 121.548 123.263C121.467 123.058 121.36 122.825 121.132 122.787C120.971 122.78 120.812 122.83 120.684 122.93C118.784 124.059 116.378 124.697 114.357 123.794" fill="white"/>
<path d="M118.369 81.2483C117.616 85.6193 118.107 90.1107 118.954 94.4628C119.11 95.3294 119.315 96.1863 119.569 97.0293C119.872 97.9889 120.28 98.9109 120.564 99.8762C121.287 102.322 121.185 104.938 121.078 107.491L120.585 119.11C120.544 120.085 120.506 121.082 120.8 122.011C120.918 122.388 121.063 122.858 120.764 123.112C120.647 123.196 120.51 123.249 120.367 123.264C119.02 123.513 117.63 123.304 116.416 122.672L116.282 110.934C116.241 107.316 116.197 103.683 115.64 100.109C115.198 97.2683 114.43 94.4647 114.38 91.5896C114.327 88.579 115.065 85.608 115.817 82.6896C115.979 82.0649 116.57 81.6077 117.055 81.1844C117.225 81.0173 117.431 80.8923 117.657 80.8193C117.883 80.7572 118.229 81.0583 118.369 81.2483Z" fill="#3F3D56"/>
<path opacity="0.1" d="M118.369 81.2483C117.616 85.6193 118.107 90.1107 118.954 94.4628C119.11 95.3294 119.315 96.1863 119.569 97.0293C119.872 97.9889 120.28 98.9109 120.564 99.8762C121.287 102.322 121.185 104.938 121.078 107.491L120.585 119.11C120.544 120.085 120.506 121.082 120.8 122.011C120.918 122.388 121.063 122.858 120.764 123.112C120.647 123.196 120.51 123.249 120.367 123.264C119.02 123.513 117.63 123.304 116.416 122.672L116.282 110.934C116.241 107.316 116.197 103.683 115.64 100.109C115.198 97.2683 114.43 94.4647 114.38 91.5896C114.327 88.579 115.065 85.608 115.817 82.6896C115.979 82.0649 116.57 81.6077 117.055 81.1844C117.225 81.0173 117.431 80.8923 117.657 80.8193C117.883 80.7572 118.229 81.0583 118.369 81.2483Z" fill="black"/>
<path d="M104.24 67.587C103.962 68.7329 104.553 69.9202 104.487 71.098C104.449 71.8112 104.169 72.5224 104.299 73.2224C104.429 73.9223 104.929 74.4492 105.196 75.0908C105.391 75.6266 105.494 76.1915 105.501 76.7617C105.578 78.1691 105.516 79.5841 105.463 80.9858C105.375 83.3378 105.309 85.703 105.62 88.0343C105.89 90.054 106.439 92.0265 107.251 93.8955C107.497 94.4039 107.7 94.932 107.859 95.4742C107.963 95.9794 108.032 96.4911 108.066 97.0058C108.244 98.6797 108.694 100.313 109.396 101.843C109.876 102.891 110.713 103.725 110.978 104.837C111.23 105.902 111.061 107.025 111.244 108.103C111.377 108.903 111.703 109.66 111.883 110.45C112.119 111.472 112.113 112.531 112.232 113.573C112.57 116.584 113.938 119.594 113.122 122.515C112.958 123.102 112.704 123.698 112.819 124.297C112.875 124.59 113.018 124.88 112.954 125.171C112.901 125.42 112.709 125.612 112.612 125.847C112.423 126.287 112.623 126.81 112.958 127.151C113.315 127.468 113.73 127.714 114.181 127.873C115.568 128.466 117.003 129.068 118.509 129.055C118.691 129.065 118.874 129.031 119.041 128.957C119.312 128.816 119.446 128.509 119.56 128.227L120.332 126.319C120.426 126.088 120.52 125.817 120.39 125.602C120.3 125.485 120.19 125.383 120.066 125.301C119.444 124.776 119.585 123.796 119.75 123.008C120.173 120.983 120.408 118.923 120.45 116.855C120.533 112.73 119.854 108.63 119.176 104.56C118.941 103.147 118.704 101.725 118.236 100.37C117.767 99.0153 117.077 97.7114 117.19 96.3039C117.31 94.7836 116.915 93.1899 117.19 91.6903C117.464 90.1906 117.899 88.723 118.179 87.2252C118.542 85.2815 118.633 83.3002 118.744 81.3283C118.791 80.523 118.851 79.6913 119.227 78.9763C119.447 78.5586 119.767 78.2011 120.014 77.7965C120.65 76.7447 120.751 75.4408 121.359 74.372C121.647 73.8659 122.044 73.4199 122.255 72.878C122.403 72.4506 122.48 72.0019 122.484 71.5496C122.544 70.4141 122.481 69.2754 122.296 68.1533C119.093 66.5234 115.541 65.6993 111.947 65.7524C110.572 65.775 109.181 65.9142 107.891 66.3903C106.66 66.8475 105.539 67.4891 104.24 67.587Z" fill="#3F3D56"/>
<path d="M111.955 127.198C111.402 127.886 111.439 128.87 111.086 129.681C110.657 130.665 109.701 131.296 108.794 131.87L103.149 135.445C102.84 135.633 102.509 135.864 102.396 136.214C102.343 136.438 102.353 136.672 102.425 136.89C102.559 137.362 102.811 137.793 103.155 138.142C103.5 138.492 103.927 138.75 104.397 138.892C104.896 139.011 105.409 139.063 105.923 139.048L108.461 139.082C109.234 139.112 110.009 139.082 110.777 138.991C111.481 138.89 112.166 138.688 112.866 138.561C114.139 138.329 115.449 138.35 116.725 138.126C117.506 137.972 118.278 137.773 119.035 137.529C119.957 137.253 120.896 136.965 121.687 136.417C121.904 136.285 122.081 136.095 122.196 135.868C122.33 135.557 122.257 135.202 122.181 134.873L120.97 129.548C120.901 129.104 120.74 128.68 120.496 128.304C120.226 127.946 119.743 127.709 119.323 127.862C119.15 127.941 118.987 128.039 118.836 128.155C118.215 128.564 117.419 128.631 116.685 128.503C116.211 128.419 115.585 128.289 115.203 127.975C114.913 127.736 114.826 127.365 114.58 127.094C114.407 126.917 114.199 126.777 113.969 126.686C113.739 126.594 113.492 126.551 113.244 126.561C112.997 126.571 112.754 126.633 112.532 126.742C112.31 126.852 112.113 127.007 111.955 127.198Z" fill="white"/>
<path d="M108.294 24.6345C112.049 24.6345 115.093 21.5909 115.093 17.8363C115.093 14.0818 112.049 11.0381 108.294 11.0381C104.54 11.0381 101.496 14.0818 101.496 17.8363C101.496 21.5909 104.54 24.6345 108.294 24.6345Z" fill="#FBBEBE"/>
<path d="M103.051 18.2346C103.702 17.8696 103.702 16.8178 104.368 16.4678C105.034 16.1178 105.791 16.7256 106.218 17.339C106.84 18.2373 107.272 19.2535 107.488 20.3251C107.548 20.6299 107.604 20.963 107.834 21.1756C108.064 21.3882 108.365 21.4145 108.658 21.4446C109.517 21.5299 110.378 21.6077 111.24 21.678C112.199 21.7551 113.212 21.8172 114.083 21.4051C114.427 21.2514 114.722 21.0068 114.937 20.6976C115.109 20.4008 115.233 20.078 115.302 19.7418C115.752 18.0314 116.205 16.3004 116.243 14.5316C116.258 13.8016 116.194 13.0452 115.842 12.4054C115.637 12.0291 115.336 11.7017 115.251 11.2878C115.167 10.8738 115.439 10.347 115.868 10.3921C115.481 10.4081 115.094 10.3347 114.739 10.1776C114.399 9.98946 114.147 9.58492 114.267 9.21613C113.311 9.33843 112.615 8.39387 111.87 7.78235C111.749 7.66223 111.585 7.59463 111.415 7.59419C111.284 7.62684 111.157 7.6755 111.038 7.73907C110.662 7.87078 110.269 7.62053 109.883 7.5114C108.848 7.22163 107.533 7.92159 106.765 7.16895C106.839 7.64875 106.25 7.97051 105.764 7.9611C105.279 7.95169 104.778 7.77294 104.319 7.93476C104.386 8.05637 104.424 8.19118 104.433 8.32954C104.441 8.4679 104.419 8.60639 104.367 8.73511C104.316 8.86383 104.237 8.9796 104.135 9.07414C104.034 9.16868 103.913 9.23965 103.781 9.28198L104.009 9.77872C103.774 9.82562 103.557 9.93715 103.383 10.1007C103.208 10.2643 103.083 10.4734 103.021 10.7045C102.771 11.6923 102.833 13.096 102.893 14.112C102.923 14.558 103.358 18.0672 103.051 18.2346Z" fill="#192534"/>
<path d="M108.85 26.5993C105.435 30.4397 104.566 35.8455 103.838 40.9353L102.765 48.4504C102.487 50.3997 102.201 52.349 101.958 54.304C101.789 55.6418 101.63 57.0004 101.815 58.3363C101.96 59.39 102.312 60.406 102.605 61.4202C103.369 64.0803 103.749 66.8358 103.734 69.6033C103.962 68.9335 104.75 68.6625 105.443 68.512C111.253 67.2514 117.314 67.8987 122.727 70.3578C123.677 67.6954 123.498 64.7826 123.764 61.9678C124.14 57.9543 125.436 54.0651 125.82 50.0591C125.961 48.567 125.978 47.0674 125.993 45.5677C126.005 44.467 126.016 43.355 125.786 42.2768C125.531 41.0839 124.991 39.9719 124.432 38.89C122.887 35.8824 121.171 32.9662 119.291 30.1556C118.345 28.7406 117.359 27.3539 116.331 25.9953C115.811 25.3067 115.28 24.6255 114.738 23.9519C114.213 23.299 113.985 22.7327 113.151 23.124C111.577 23.8616 109.996 25.3104 108.85 26.5993Z" fill="#17D059"/>
<path d="M110.809 58.5643C109.976 58.5944 109.142 58.568 108.312 58.4852C107.697 58.425 107.069 58.3347 106.468 58.4852C106.207 58.551 105.963 58.6709 105.752 58.8371C105.673 58.9069 105.617 58.9981 105.589 59.0995C105.562 59.2008 105.565 59.308 105.597 59.4078C105.63 59.5076 105.691 59.5958 105.773 59.6616C105.855 59.7273 105.954 59.7677 106.058 59.7779L106.702 59.8344C107.11 59.8701 107.535 59.9115 107.853 60.2107C107.984 60.3282 108.067 60.4895 108.087 60.6641C108.126 61.1026 107.746 61.3415 107.406 61.524C106.921 61.7514 106.474 62.0494 106.077 62.4084C105.767 62.7084 105.571 63.108 105.526 63.5373C105.524 63.5756 105.533 63.6136 105.551 63.6475C105.569 63.6813 105.595 63.7099 105.628 63.7303C105.66 63.7507 105.697 63.7622 105.736 63.7637C105.774 63.7652 105.812 63.7565 105.846 63.7387C106.598 63.3624 107.089 62.2466 107.915 62.4328C107.164 62.6708 106.521 63.1657 106.098 63.8309C105.994 63.9897 105.946 64.1791 105.963 64.3683C105.98 64.5576 106.06 64.7356 106.191 64.8735C106.321 65.0114 106.495 65.101 106.683 65.128C106.871 65.1549 107.063 65.1176 107.227 65.0219C107.349 64.9503 107.467 64.8718 107.58 64.7867C108.14 64.3337 108.641 63.8129 109.073 63.2363C108.47 64.5064 107.861 65.9928 108.553 67.2554C108.588 67.3248 108.642 67.3828 108.709 67.4222C108.775 67.4616 108.852 67.4808 108.93 67.4774C109.148 67.4548 109.212 67.2497 109.248 67.0691C109.36 66.4877 109.389 65.8743 109.675 65.3569C110.337 64.1564 111.97 64.0397 113.214 63.4546C114.706 62.7621 115.728 61.2719 116.14 59.6801C116.284 59.2158 116.309 58.7228 116.213 58.2463C115.937 57.1757 114.616 56.9292 113.767 57.4466C112.727 58.107 112.123 58.5229 110.809 58.5643Z" fill="#FBBEBE"/>
<path opacity="0.1" d="M109.486 37.505C110.803 39.539 113.089 40.6849 115.05 42.113C115.528 42.4246 115.946 42.8213 116.281 43.2834C116.776 44.0473 116.845 45.0182 116.744 45.9176C116.616 47.1049 116.234 48.2471 115.855 49.3798L115.033 51.8353C114.512 53.3932 113.974 54.9832 112.982 56.2928C112.728 56.6258 112.433 56.9814 112.444 57.3992C112.466 57.6405 112.549 57.8723 112.685 58.0728C113.002 58.5906 113.421 59.0393 113.915 59.3923C114.409 59.7453 114.969 59.9953 115.562 60.1275C115.917 60.2178 116.289 60.2178 116.644 60.1275C117.152 59.9769 117.534 59.563 117.888 59.1716C119.581 57.3032 121.274 55.4084 122.497 53.2164C123.692 51.077 124.407 48.7005 125.066 46.3466C125.337 45.4801 125.526 44.5899 125.63 43.6879C125.77 41.9945 125.326 40.3011 124.599 38.7713C123.873 37.2416 122.874 35.8567 121.845 34.5114C120.873 33.1899 119.794 31.9513 118.618 30.8084C116.57 28.8948 114.066 27.7696 111.326 28.8553C109.392 29.623 108.668 31.2242 108.495 33.2752C108.348 34.756 108.697 36.2436 109.486 37.505Z" fill="black"/>
<path d="M110.172 36.9873C111.489 39.0214 113.777 40.1673 115.736 41.5954C116.213 41.91 116.628 42.3092 116.961 42.7733C117.456 43.5372 117.525 44.5062 117.424 45.4075C117.294 46.5948 116.914 47.7369 116.534 48.8697L115.711 51.3157C115.19 52.8737 114.652 54.4618 113.66 55.7732C113.408 56.1063 113.113 56.46 113.124 56.8796C113.145 57.1206 113.228 57.3521 113.365 57.5514C113.682 58.0694 114.1 58.5184 114.594 58.8717C115.087 59.225 115.647 59.4754 116.24 59.6079C116.596 59.6983 116.968 59.6983 117.324 59.6079C117.832 59.4593 118.212 59.0435 118.568 58.654C120.261 56.7837 121.954 54.8908 123.177 52.6987C124.372 50.5593 125.087 48.1829 125.746 45.8271C126.018 44.9614 126.207 44.0718 126.31 43.1703C126.45 41.4768 126.006 39.7834 125.281 38.2518C124.557 36.7202 123.556 35.3372 122.526 33.9918C121.552 32.6773 120.47 31.4457 119.292 30.3096C117.247 28.3978 114.742 27.2708 112.003 28.3583C110.066 29.126 109.344 30.7254 109.169 32.7782C109.031 34.2534 109.383 35.7329 110.172 36.9873Z" fill="#17D059"/>
<path d="M151.778 104.481C151.779 104.971 151.729 105.461 151.627 105.941C151.608 106.031 151.588 106.129 151.567 106.206C151.032 108.349 149.525 109.917 147.726 110.016C147.666 110.016 147.606 110.016 147.538 110.016C145.636 110.016 144.027 108.376 143.497 106.116C143.482 106.056 143.468 105.995 143.455 105.928C143.354 105.448 143.303 104.958 143.305 104.468C143.305 101.406 145.199 98.9263 147.538 98.9263C149.877 98.9263 151.778 101.425 151.778 104.481Z" fill="#3F3D56"/>
<path opacity="0.1" d="M151.778 104.477C151.779 104.967 151.729 105.457 151.627 105.937C151.609 106.027 151.588 106.125 151.567 106.202C151.503 106.202 151.441 106.202 151.379 106.202C150.913 106.177 150.45 106.114 149.994 106.014C149.59 106.139 149.178 106.233 148.76 106.296C148.439 106.344 148.116 106.375 147.793 106.387H147.465C147.078 106.387 146.69 106.361 146.306 106.309C145.685 106.226 145.075 106.075 144.487 105.858C144.165 105.965 143.837 106.053 143.504 106.121C143.489 106.061 143.476 106.001 143.463 105.933C143.362 105.453 143.311 104.964 143.313 104.473C143.313 101.412 145.207 98.9316 147.546 98.9316C149.885 98.9316 151.778 101.421 151.778 104.477Z" fill="black"/>
<path d="M160.809 94.157C160.811 92.8098 160.495 91.4812 159.887 90.279L154.908 91.8275L159.279 89.2573C158.546 88.1985 157.585 87.3178 156.466 86.6802C155.347 86.0425 154.099 85.6642 152.814 85.5731C152.61 85.2628 152.385 84.9662 152.143 84.685L144.992 86.9109L150.857 83.4619C149.735 82.6009 148.419 82.0297 147.023 81.7988C145.628 81.5679 144.197 81.6845 142.858 82.1382C141.518 82.592 140.311 83.3689 139.344 84.4003C138.376 85.4316 137.677 86.6855 137.31 88.0512L143.434 95.1015L136.791 90.2959C135.108 91.4896 133.909 93.2482 133.414 95.2513C132.919 97.2544 133.161 99.3687 134.094 101.209C135.027 103.049 136.591 104.493 138.499 105.277C140.408 106.061 142.535 106.133 144.492 105.48C146.262 106.131 148.197 106.185 150.001 105.633C151.259 105.91 152.562 105.901 153.816 105.607C155.07 105.314 156.242 104.743 157.246 103.937C158.25 103.131 159.06 102.11 159.618 100.949C160.175 99.7882 160.465 98.5173 160.467 97.2296C160.467 97.0415 160.467 96.8533 160.448 96.6651C160.692 95.8516 160.813 95.0063 160.809 94.157Z" fill="#17D059"/>
<path opacity="0.1" d="M160.662 95.7539C158.033 95.2556 155.337 95.2212 152.696 95.6523C149.706 96.1472 146.65 97.2348 143.726 96.4407C142.01 95.9741 140.527 94.894 138.851 94.2938C137.233 93.7295 135.491 93.6253 133.817 93.9928C133.18 95.5182 132.995 97.1949 133.285 98.8226C133.574 100.45 134.327 101.96 135.452 103.172C136.577 104.383 138.026 105.246 139.628 105.655C141.23 106.065 142.916 106.005 144.484 105.482C146.255 106.133 148.19 106.186 149.994 105.634C151.251 105.911 152.555 105.902 153.808 105.609C155.062 105.315 156.234 104.744 157.238 103.938C158.242 103.132 159.053 102.111 159.61 100.95C160.168 99.7896 160.458 98.5186 160.459 97.231C160.459 97.0428 160.459 96.8547 160.44 96.6665C160.531 96.3666 160.605 96.062 160.662 95.7539Z" fill="black"/>
</g>
<defs>
<clipPath id="clip0_83_6059">
<rect width="205.847" height="143.002" fill="white"/>
</clipPath>
</defs>
</svg>
