<svg width="64" height="63" viewBox="0 0 64 63" fill="none" xmlns="http://www.w3.org/2000/svg">
<path d="M36.0006 1.66549L36.0006 2.36549L36.0006 1.66549ZM58 23.6652L58.7 23.6652L58 23.6652ZM57.5054 62.1594C57.7788 62.4327 58.222 62.4327 58.4954 62.1594L62.9501 57.7045C63.2235 57.4312 63.2235 56.988 62.9501 56.7146C62.6767 56.4412 62.2335 56.4412 61.9601 56.7146L58.0004 60.6745L54.0405 56.7147C53.7672 56.4413 53.324 56.4413 53.0506 56.7147C52.7772 56.9881 52.7772 57.4313 53.0506 57.7047L57.5054 62.1594ZM0.000425842 2.36444L36.0006 2.36549L36.0006 0.965487L0.000464333 0.964441L0.000425842 2.36444ZM57.3 23.6652L57.3004 61.6644L58.7004 61.6644L58.7 23.6652L57.3 23.6652ZM36.0006 2.36549C47.7639 2.36583 57.2998 11.9019 57.3 23.6652L58.7 23.6652C58.6998 11.1287 48.5371 0.965851 36.0006 0.965487L36.0006 2.36549Z" fill="#0DBA4B"/>
</svg>
