<svg width="163" height="116" viewBox="0 0 163 116" fill="none" xmlns="http://www.w3.org/2000/svg">
<path d="M98.0979 14.9544H48.4531C46.6643 14.9544 45.209 13.6846 45.209 12.1238V2.83059C45.209 1.26977 46.6643 0 48.4531 0H98.0979C99.8867 0 101.342 1.26977 101.342 2.83059V12.1238C101.342 13.6846 99.8867 14.9544 98.0979 14.9544Z" fill="#17D059"/>
<path d="M67.3846 5.29895C67.3659 5.33068 67.3463 5.35402 67.3258 5.36895C67.3053 5.38388 67.2791 5.39135 67.2474 5.39135C67.2138 5.39135 67.1755 5.37642 67.1326 5.34655C67.0897 5.31482 67.0355 5.28028 66.9702 5.24295C66.9067 5.20375 66.8302 5.16922 66.7406 5.13935C66.651 5.10762 66.5437 5.09175 66.4186 5.09175C66.301 5.09175 66.1974 5.10762 66.1078 5.13935C66.0201 5.16922 65.9463 5.21122 65.8866 5.26535C65.8269 5.31762 65.7811 5.38015 65.7494 5.45295C65.7195 5.52388 65.7046 5.60135 65.7046 5.68535C65.7046 5.79362 65.7317 5.88322 65.7858 5.95415C65.8418 6.02508 65.9146 6.08575 66.0042 6.13615C66.0938 6.18655 66.1955 6.23042 66.3094 6.26775C66.4233 6.30508 66.5399 6.34428 66.6594 6.38535C66.7789 6.42455 66.8955 6.47028 67.0094 6.52255C67.1233 6.57482 67.225 6.64108 67.3146 6.72135C67.4042 6.79975 67.4761 6.89682 67.5302 7.01255C67.5862 7.12642 67.6142 7.26642 67.6142 7.43255C67.6142 7.60988 67.5834 7.77602 67.5218 7.93095C67.4621 8.08588 67.3743 8.22122 67.2586 8.33695C67.1429 8.45268 67.0001 8.54415 66.8302 8.61135C66.6622 8.67668 66.4709 8.70935 66.2562 8.70935C66.1274 8.70935 66.0023 8.69628 65.881 8.67015C65.7597 8.64588 65.6449 8.61135 65.5366 8.56655C65.4283 8.51988 65.3266 8.46482 65.2314 8.40135C65.1381 8.33602 65.0541 8.26322 64.9794 8.18295L65.1502 7.89735C65.167 7.87495 65.1866 7.85628 65.209 7.84135C65.2333 7.82642 65.2603 7.81895 65.2902 7.81895C65.3294 7.81895 65.3742 7.83948 65.4246 7.88055C65.4769 7.92162 65.5403 7.96735 65.615 8.01775C65.6915 8.06628 65.7821 8.11108 65.8866 8.15215C65.993 8.19322 66.1218 8.21375 66.273 8.21375C66.3962 8.21375 66.5063 8.19788 66.6034 8.16615C66.7005 8.13255 66.7817 8.08588 66.847 8.02615C66.9142 7.96455 66.9655 7.89082 67.001 7.80495C67.0365 7.71908 67.0542 7.62388 67.0542 7.51935C67.0542 7.40175 67.0271 7.30562 66.973 7.23095C66.9189 7.15628 66.847 7.09375 66.7574 7.04335C66.6678 6.99295 66.5661 6.95002 66.4522 6.91455C66.3383 6.87908 66.2217 6.84268 66.1022 6.80535C65.9827 6.76615 65.8661 6.72135 65.7522 6.67095C65.6383 6.62055 65.5366 6.55522 65.447 6.47495C65.3574 6.39282 65.2855 6.29108 65.2314 6.16975C65.1773 6.04655 65.1502 5.89535 65.1502 5.71615C65.1502 5.57242 65.1782 5.43335 65.2342 5.29895C65.2902 5.16455 65.3714 5.04602 65.4778 4.94335C65.5861 4.83882 65.7186 4.75575 65.8754 4.69415C66.0322 4.63068 66.2114 4.59895 66.413 4.59895C66.6389 4.59895 66.8461 4.63535 67.0346 4.70815C67.225 4.77908 67.3902 4.88175 67.5302 5.01615L67.3846 5.29895ZM70.1063 6.92575C70.1063 6.81748 70.0904 6.71762 70.0587 6.62615C70.0288 6.53468 69.984 6.45535 69.9243 6.38815C69.8645 6.32095 69.7917 6.26868 69.7059 6.23135C69.62 6.19402 69.5211 6.17535 69.4091 6.17535C69.1795 6.17535 68.9984 6.24162 68.8659 6.37415C68.7352 6.50668 68.6521 6.69055 68.6167 6.92575H70.1063ZM70.5571 8.25855C70.4899 8.33695 70.4124 8.40508 70.3247 8.46295C70.2369 8.51895 70.1436 8.56468 70.0447 8.60015C69.9457 8.63562 69.8431 8.66175 69.7367 8.67855C69.6321 8.69535 69.5285 8.70375 69.4259 8.70375C69.2299 8.70375 69.0479 8.67108 68.8799 8.60575C68.7137 8.53855 68.5691 8.44148 68.4459 8.31455C68.3245 8.18575 68.2293 8.02708 68.1603 7.83855C68.0931 7.64815 68.0595 7.42975 68.0595 7.18335C68.0595 6.98548 68.0903 6.80162 68.1519 6.63175C68.2135 6.46002 68.3012 6.31068 68.4151 6.18375C68.5308 6.05682 68.6717 5.95695 68.8379 5.88415C69.004 5.81135 69.1907 5.77495 69.3979 5.77495C69.5715 5.77495 69.7311 5.80388 69.8767 5.86175C70.0241 5.91775 70.1511 5.99988 70.2575 6.10815C70.3639 6.21642 70.4469 6.34988 70.5067 6.50855C70.5683 6.66722 70.5991 6.84828 70.5991 7.05175C70.5991 7.13575 70.5897 7.19268 70.5711 7.22255C70.5524 7.25055 70.5179 7.26455 70.4675 7.26455H68.6027C68.6083 7.43442 68.6325 7.58282 68.6755 7.70975C68.7184 7.83482 68.7772 7.93935 68.8519 8.02335C68.9284 8.10735 69.0189 8.16988 69.1235 8.21095C69.228 8.25202 69.3447 8.27255 69.4735 8.27255C69.5948 8.27255 69.6993 8.25855 69.7871 8.23055C69.8767 8.20255 69.9532 8.17268 70.0167 8.14095C70.082 8.10735 70.1361 8.07655 70.1791 8.04855C70.2239 8.02055 70.2631 8.00655 70.2967 8.00655C70.3415 8.00655 70.376 8.02335 70.4003 8.05695L70.5571 8.25855ZM71.7459 4.53175V8.66455H71.1971V4.53175H71.7459ZM74.4102 6.92575C74.4102 6.81748 74.3943 6.71762 74.3626 6.62615C74.3327 6.53468 74.2879 6.45535 74.2282 6.38815C74.1685 6.32095 74.0957 6.26868 74.0098 6.23135C73.9239 6.19402 73.825 6.17535 73.713 6.17535C73.4834 6.17535 73.3023 6.24162 73.1698 6.37415C73.0391 6.50668 72.9561 6.69055 72.9206 6.92575H74.4102ZM74.861 8.25855C74.7938 8.33695 74.7163 8.40508 74.6286 8.46295C74.5409 8.51895 74.4475 8.56468 74.3486 8.60015C74.2497 8.63562 74.147 8.66175 74.0406 8.67855C73.9361 8.69535 73.8325 8.70375 73.7298 8.70375C73.5338 8.70375 73.3518 8.67108 73.1838 8.60575C73.0177 8.53855 72.873 8.44148 72.7498 8.31455C72.6285 8.18575 72.5333 8.02708 72.4642 7.83855C72.397 7.64815 72.3634 7.42975 72.3634 7.18335C72.3634 6.98548 72.3942 6.80162 72.4558 6.63175C72.5174 6.46002 72.6051 6.31068 72.719 6.18375C72.8347 6.05682 72.9757 5.95695 73.1418 5.88415C73.3079 5.81135 73.4946 5.77495 73.7018 5.77495C73.8754 5.77495 74.035 5.80388 74.1806 5.86175C74.3281 5.91775 74.455 5.99988 74.5614 6.10815C74.6678 6.21642 74.7509 6.34988 74.8106 6.50855C74.8722 6.66722 74.903 6.84828 74.903 7.05175C74.903 7.13575 74.8937 7.19268 74.875 7.22255C74.8563 7.25055 74.8218 7.26455 74.7714 7.26455H72.9066C72.9122 7.43442 72.9365 7.58282 72.9794 7.70975C73.0223 7.83482 73.0811 7.93935 73.1558 8.02335C73.2323 8.10735 73.3229 8.16988 73.4274 8.21095C73.5319 8.25202 73.6486 8.27255 73.7774 8.27255C73.8987 8.27255 74.0033 8.25855 74.091 8.23055C74.1806 8.20255 74.2571 8.17268 74.3206 8.14095C74.3859 8.10735 74.4401 8.07655 74.483 8.04855C74.5278 8.02055 74.567 8.00655 74.6006 8.00655C74.6454 8.00655 74.6799 8.02335 74.7042 8.05695L74.861 8.25855ZM77.4834 6.35175C77.4666 6.37228 77.4498 6.38908 77.433 6.40215C77.4181 6.41335 77.3957 6.41895 77.3658 6.41895C77.336 6.41895 77.3042 6.40775 77.2706 6.38535C77.2389 6.36108 77.1978 6.33588 77.1474 6.30975C77.0989 6.28175 77.0392 6.25655 76.9682 6.23415C76.8992 6.20988 76.8133 6.19775 76.7106 6.19775C76.5762 6.19775 76.4577 6.22202 76.355 6.27055C76.2524 6.31908 76.1665 6.38815 76.0974 6.47775C76.0302 6.56735 75.9789 6.67655 75.9434 6.80535C75.908 6.93415 75.8902 7.07882 75.8902 7.23935C75.8902 7.40548 75.9089 7.55388 75.9462 7.68455C75.9836 7.81335 76.0368 7.92255 76.1058 8.01215C76.1749 8.09988 76.2589 8.16708 76.3578 8.21375C76.4568 8.25855 76.5669 8.28095 76.6882 8.28095C76.8058 8.28095 76.9029 8.26695 76.9794 8.23895C77.056 8.20908 77.1194 8.17735 77.1698 8.14375C77.2202 8.11015 77.2622 8.07935 77.2958 8.05135C77.3294 8.02148 77.364 8.00655 77.3994 8.00655C77.4442 8.00655 77.4788 8.02335 77.503 8.05695L77.6598 8.25855C77.5945 8.33882 77.5208 8.40695 77.4386 8.46295C77.3584 8.51895 77.2725 8.56468 77.181 8.60015C77.0896 8.63562 76.9934 8.66175 76.8926 8.67855C76.7937 8.69535 76.6929 8.70375 76.5902 8.70375C76.4129 8.70375 76.2468 8.67108 76.0918 8.60575C75.9388 8.54042 75.8053 8.44522 75.6914 8.32015C75.5794 8.19508 75.4908 8.04202 75.4254 7.86095C75.3601 7.67802 75.3274 7.47082 75.3274 7.23935C75.3274 7.02842 75.3564 6.83335 75.4142 6.65415C75.474 6.47495 75.5608 6.32095 75.6746 6.19215C75.7904 6.06148 75.9322 5.95975 76.1002 5.88695C76.2682 5.81228 76.4605 5.77495 76.677 5.77495C76.8805 5.77495 77.0597 5.80762 77.2146 5.87295C77.3696 5.93828 77.5077 6.03068 77.629 6.15015L77.4834 6.35175ZM79.0599 8.70935C78.8303 8.70935 78.653 8.64495 78.5279 8.51615C78.4047 8.38735 78.3431 8.20348 78.3431 7.96455V6.26215H78.0127C77.981 6.26215 77.9539 6.25282 77.9315 6.23415C77.911 6.21362 77.9007 6.18375 77.9007 6.14455V5.92335L78.3627 5.85895L78.4859 5.01055C78.4934 4.97882 78.5074 4.95455 78.5279 4.93775C78.5503 4.91908 78.5783 4.90975 78.6119 4.90975H78.8891V5.86455H79.6955V6.26215H78.8891V7.92815C78.8891 8.04015 78.9162 8.12415 78.9703 8.18015C79.0263 8.23428 79.0973 8.26135 79.1831 8.26135C79.2335 8.26135 79.2765 8.25482 79.3119 8.24175C79.3493 8.22868 79.381 8.21468 79.4071 8.19975C79.4333 8.18295 79.4557 8.16802 79.4743 8.15495C79.493 8.14188 79.5098 8.13535 79.5247 8.13535C79.5434 8.13535 79.5574 8.14002 79.5667 8.14935C79.5779 8.15682 79.5891 8.16988 79.6003 8.18855L79.7627 8.45175C79.6731 8.53388 79.5667 8.59735 79.4435 8.64215C79.3203 8.68695 79.1925 8.70935 79.0599 8.70935Z" fill="white"/>
<path d="M120.744 5.06274L115.208 9.89257L109.673 5.06274" stroke="#090814" stroke-width="0.644951" stroke-miterlimit="10"/>
<path d="M161.949 27.8317H0.2339C0.171791 27.8315 0.112304 27.8099 0.0684619 27.7716C0.0246199 27.7332 0 27.6814 0 27.6273C0 27.5732 0.0246199 27.5213 0.0684619 27.483C0.112304 27.4447 0.171791 27.423 0.2339 27.4229H161.949C162.012 27.423 162.071 27.4447 162.115 27.483C162.159 27.5213 162.183 27.5732 162.183 27.6273C162.183 27.6814 162.159 27.7332 162.115 27.7716C162.071 27.8099 162.012 27.8315 161.949 27.8317Z" fill="#CACACA"/>
<path d="M5.51639 24.9663C6.94228 24.9663 8.0982 23.9578 8.0982 22.7136C8.0982 21.4695 6.94228 20.4609 5.51639 20.4609C4.09049 20.4609 2.93457 21.4695 2.93457 22.7136C2.93457 23.9578 4.09049 24.9663 5.51639 24.9663Z" fill="#3F3D56"/>
<path d="M14.4353 24.9663C15.8612 24.9663 17.0171 23.9578 17.0171 22.7136C17.0171 21.4695 15.8612 20.4609 14.4353 20.4609C13.0094 20.4609 11.8535 21.4695 11.8535 22.7136C11.8535 23.9578 13.0094 24.9663 14.4353 24.9663Z" fill="#3F3D56"/>
<path d="M23.3553 24.9663C24.7812 24.9663 25.9371 23.9578 25.9371 22.7136C25.9371 21.4695 24.7812 20.4609 23.3553 20.4609C21.9294 20.4609 20.7734 21.4695 20.7734 22.7136C20.7734 23.9578 21.9294 24.9663 23.3553 24.9663Z" fill="#3F3D56"/>
<path d="M156.605 21.8384H150.268C150.144 21.8384 150.024 21.7953 149.936 21.7185C149.848 21.6417 149.799 21.5375 149.799 21.4289C149.799 21.3202 149.848 21.2161 149.936 21.1392C150.024 21.0624 150.144 21.0193 150.268 21.0193H156.605C156.73 21.0193 156.849 21.0624 156.937 21.1392C157.025 21.2161 157.075 21.3202 157.075 21.4289C157.075 21.5375 157.025 21.6417 156.937 21.7185C156.849 21.7953 156.73 21.8384 156.605 21.8384Z" fill="#3F3D56"/>
<path d="M156.605 23.3748H150.268C150.144 23.3748 150.024 23.3317 149.936 23.2549C149.848 23.1781 149.799 23.0739 149.799 22.9652C149.799 22.8566 149.848 22.7524 149.936 22.6756C150.024 22.5988 150.144 22.5557 150.268 22.5557H156.605C156.73 22.5557 156.849 22.5988 156.937 22.6756C157.025 22.7524 157.075 22.8566 157.075 22.9652C157.075 23.0739 157.025 23.1781 156.937 23.2549C156.849 23.3317 156.73 23.3748 156.605 23.3748Z" fill="#3F3D56"/>
<path d="M156.605 24.909H150.268C150.144 24.909 150.024 24.8659 149.936 24.789C149.848 24.7122 149.799 24.6081 149.799 24.4994C149.799 24.3908 149.848 24.2866 149.936 24.2098C150.024 24.133 150.144 24.0898 150.268 24.0898H156.605C156.729 24.0902 156.848 24.1335 156.936 24.2103C157.024 24.2871 157.073 24.391 157.073 24.4994C157.073 24.6078 157.024 24.7118 156.936 24.7885C156.848 24.8653 156.729 24.9086 156.605 24.909Z" fill="#3F3D56"/>
<path d="M110.133 36.6152H2.87012V92.7279H110.133V36.6152Z" fill="#F0F0F0"/>
<path d="M157.075 36.6152H123.277V54.2962H157.075V36.6152Z" fill="#F0F0F0"/>
<path d="M150.332 62.4173H130.222C129.97 62.4173 129.729 62.3303 129.552 62.1753C129.374 62.0203 129.274 61.8101 129.274 61.5909C129.274 61.3717 129.374 61.1615 129.552 61.0065C129.729 60.8515 129.97 60.7644 130.222 60.7644H150.332C150.583 60.7644 150.824 60.8515 151.001 61.0065C151.179 61.1615 151.279 61.3717 151.279 61.5909C151.279 61.8101 151.179 62.0203 151.001 62.1753C150.824 62.3303 150.583 62.4173 150.332 62.4173Z" fill="#E4E4E4"/>
<path d="M147.09 59.5877H133.465C133.213 59.5877 132.972 59.5007 132.795 59.3457C132.617 59.1907 132.517 58.9805 132.517 58.7613C132.517 58.5421 132.617 58.3319 132.795 58.1769C132.972 58.0219 133.213 57.9348 133.465 57.9348H147.09C147.341 57.9348 147.582 58.0219 147.76 58.1769C147.937 58.3319 148.037 58.5421 148.037 58.7613C148.037 58.9805 147.937 59.1907 147.76 59.3457C147.582 59.5007 147.341 59.5877 147.09 59.5877Z" fill="#E4E4E4"/>
<path d="M157.075 68.7664H123.277V86.4474H157.075V68.7664Z" fill="#F0F0F0"/>
<path d="M150.332 94.5709H130.222C129.97 94.5709 129.729 94.4838 129.552 94.3288C129.374 94.1738 129.274 93.9636 129.274 93.7444C129.274 93.5252 129.374 93.315 129.552 93.16C129.729 93.005 129.97 92.918 130.222 92.918H150.332C150.583 92.918 150.824 93.005 151.001 93.16C151.179 93.315 151.279 93.5252 151.279 93.7444C151.279 93.9636 151.179 94.1738 151.001 94.3288C150.824 94.4838 150.583 94.5709 150.332 94.5709Z" fill="#E4E4E4"/>
<path d="M147.09 91.7413H133.465C133.213 91.7413 132.972 91.6542 132.795 91.4992C132.617 91.3442 132.517 91.134 132.517 90.9148C132.517 90.6957 132.617 90.4854 132.795 90.3304C132.972 90.1755 133.213 90.0884 133.465 90.0884H147.09C147.341 90.0888 147.581 90.176 147.758 90.3309C147.936 90.4859 148.035 90.6959 148.035 90.9148C148.035 91.1338 147.936 91.3438 147.758 91.4987C147.581 91.6537 147.341 91.7409 147.09 91.7413Z" fill="#E4E4E4"/>
<path d="M58.3656 66.8018C62.7862 66.8018 66.3698 63.675 66.3698 59.8179C66.3698 55.9608 62.7862 52.834 58.3656 52.834C53.9449 52.834 50.3613 55.9608 50.3613 59.8179C50.3613 63.675 53.9449 66.8018 58.3656 66.8018Z" fill="#9E616A"/>
<path d="M71.8514 92.7268H51.7812L52.9077 70.5829L53.0463 70.4558L55.039 68.6208H61.3763L63.728 70.6073L63.9134 70.7651L68.9175 74.9489L71.8514 92.7268Z" fill="#17D059"/>
<path d="M57.337 92.7261H42.0831C41.9822 84.2518 41.9023 77.8583 41.9023 77.8583L42.6817 77.4446L42.6864 77.4426L51.2415 72.9105L53.0371 70.365L53.0465 70.4551L53.5746 75.8206C53.5746 75.8206 56.445 83.9119 57.337 92.7261Z" fill="#2F2E41"/>
<path d="M78.0921 92.7261H64.5187C63.7934 89.8549 63.4156 87.121 63.5799 84.8416C64.2464 75.5298 62.7091 70.365 63.3757 70.365L63.7277 70.6066L67.9149 73.4922L73.4284 75.2554L77.2541 76.48L77.9206 76.693V76.9736C77.923 78.3826 77.9394 84.9256 78.0921 92.7261Z" fill="#2F2E41"/>
<path d="M50.7924 62.0019C50.7924 62.0019 51.4724 60.9598 51.3143 57.4787C51.1562 53.9975 57.2317 55.9664 62.3084 55.6343C67.3851 55.3022 66.3104 61.4462 66.3104 61.4462C66.3104 61.4462 66.6766 61.081 67.4608 58.1157C68.245 55.1505 66.4645 52.1954 66.4645 52.1954C65.9402 49.0795 63.1142 50.0782 63.1142 50.0782C64.4752 50.5404 64.2138 51.5288 64.2138 51.5288C63.0618 49.7666 60.2358 50.7652 60.2358 50.7652C56.4669 48.7016 52.647 51.4191 52.647 51.4191C48.0939 52.3208 50.7641 55.4801 50.7641 55.4801C46.1852 57.4991 50.7924 62.0019 50.7924 62.0019Z" fill="#2F2E41"/>
<path d="M37.6633 92.7271C38.0529 85.9301 38.351 80.5974 38.2336 80.1858C37.905 79.041 42.5406 77.4907 42.6814 77.4457L42.6837 77.4436H42.6861L43.571 77.8593L44.2187 92.7271H37.6633Z" fill="#2F2E41"/>
<path d="M81.2844 92.7271H74.3957L72.4241 75.7357L73.2362 75.2175C73.2362 75.2175 73.3066 75.2319 73.4287 75.2564C74.0601 75.3936 76.0974 75.8585 77.2544 76.4811C77.5105 76.6072 77.7367 76.7747 77.921 76.9746C78.0338 77.0923 78.0902 77.2434 78.0783 77.3965C78.0196 77.8778 79.5218 84.6809 81.2844 92.7271Z" fill="#2F2E41"/>
<path d="M92.8812 99.5862H20.1209C19.8411 99.5866 19.5729 99.6839 19.3752 99.8566C19.1774 100.029 19.0664 100.264 19.0664 100.508C19.0664 100.752 19.1774 100.986 19.3752 101.159C19.5729 101.332 19.8411 101.429 20.1209 101.429H92.8812C93.02 101.429 93.1575 101.406 93.2859 101.36C93.4142 101.313 93.5309 101.246 93.6291 101.16C93.7274 101.074 93.8054 100.973 93.8585 100.861C93.9117 100.749 93.9391 100.629 93.9391 100.508C93.9391 100.387 93.9117 100.267 93.8585 100.155C93.8054 100.043 93.7274 99.9412 93.6291 99.8556C93.5309 99.77 93.4142 99.7021 93.2859 99.6559C93.1575 99.6097 93.02 99.586 92.8812 99.5862Z" fill="#CACACA"/>
<path d="M73.1655 99.5862V101.429H20.1209C19.8411 101.429 19.5729 101.332 19.3752 101.159C19.1774 100.986 19.0664 100.752 19.0664 100.508C19.0664 100.264 19.1774 100.029 19.3752 99.8566C19.5729 99.6839 19.8411 99.5866 20.1209 99.5862H73.1655Z" fill="#3F3D56"/>
<path d="M73.1661 102.352C74.3328 102.352 75.2785 101.526 75.2785 100.508C75.2785 99.4905 74.3328 98.6653 73.1661 98.6653C71.9995 98.6653 71.0537 99.4905 71.0537 100.508C71.0537 101.526 71.9995 102.352 73.1661 102.352Z" fill="#3F3D56"/>
<path d="M56.5009 115.868C55.6385 115.868 54.7954 115.645 54.0783 115.227C53.3612 114.809 52.8023 114.215 52.4723 113.519C52.1423 112.824 52.0559 112.059 52.2242 111.321C52.3924 110.583 52.8077 109.905 53.4176 109.373C54.0274 108.841 54.8043 108.479 55.6502 108.332C56.4961 108.185 57.3728 108.26 58.1696 108.548C58.9664 108.836 59.6474 109.324 60.1265 109.95C60.6057 110.575 60.8614 111.311 60.8614 112.063C60.8601 113.072 60.4003 114.039 59.5828 114.752C58.7653 115.466 57.657 115.867 56.5009 115.868ZM56.5009 108.551C55.7048 108.551 54.9266 108.757 54.2647 109.143C53.6028 109.529 53.0869 110.078 52.7822 110.719C52.4776 111.361 52.3978 112.067 52.5531 112.749C52.7085 113.43 53.0918 114.056 53.6547 114.547C54.2176 115.038 54.9348 115.372 55.7156 115.508C56.4964 115.643 57.3058 115.574 58.0412 115.308C58.7767 115.042 59.4054 114.592 59.8477 114.015C60.2899 113.437 60.526 112.758 60.526 112.063C60.5248 111.132 60.1003 110.24 59.3457 109.581C58.5911 108.923 57.568 108.553 56.5009 108.551Z" fill="#17D059"/>
<path d="M55.9258 114.113C55.8813 114.113 55.8386 114.098 55.8072 114.071C55.7757 114.043 55.7581 114.006 55.7581 113.967V110.162C55.7578 110.143 55.762 110.124 55.7703 110.106C55.7787 110.088 55.791 110.072 55.8066 110.058C55.8222 110.044 55.8407 110.033 55.8612 110.026C55.8817 110.018 55.9036 110.015 55.9258 110.015C55.9479 110.015 55.9699 110.018 55.9904 110.026C56.0108 110.033 56.0294 110.044 56.045 110.058C56.0606 110.072 56.0729 110.088 56.0812 110.106C56.0895 110.124 56.0937 110.143 56.0935 110.162V113.967C56.0935 114.006 56.0758 114.043 56.0444 114.071C56.0129 114.098 55.9703 114.113 55.9258 114.113Z" fill="#17D059"/>
<path d="M57.0769 114.113C57.0324 114.113 56.9898 114.098 56.9583 114.07C56.9268 114.043 56.9092 114.006 56.9092 113.967V110.162C56.909 110.143 56.9132 110.124 56.9215 110.106C56.9298 110.088 56.9422 110.072 56.9578 110.058C56.9733 110.044 56.9919 110.033 57.0124 110.026C57.0328 110.018 57.0547 110.015 57.0769 110.015C57.099 110.015 57.121 110.018 57.1414 110.026C57.1619 110.033 57.1804 110.044 57.196 110.058C57.2116 110.072 57.2239 110.088 57.2323 110.106C57.2406 110.124 57.2448 110.143 57.2446 110.162V113.967C57.2446 114.006 57.2269 114.043 57.1955 114.07C57.164 114.098 57.1214 114.113 57.0769 114.113Z" fill="#17D059"/>
<path d="M36.5293 112.063C36.5293 111.311 36.785 110.575 37.2642 109.95C37.7433 109.324 38.4243 108.836 39.2211 108.548C40.0179 108.26 40.8947 108.185 41.7405 108.332C42.5864 108.479 43.3633 108.841 43.9732 109.373C44.583 109.905 44.9983 110.583 45.1666 111.321C45.3348 112.059 45.2484 112.824 44.9184 113.519C44.5884 114.215 44.0295 114.809 43.3124 115.227C42.5953 115.645 41.7522 115.868 40.8898 115.868C39.7337 115.867 38.6254 115.466 37.8079 114.752C36.9904 114.039 36.5306 113.072 36.5293 112.063ZM36.8647 112.063C36.8647 112.758 37.1008 113.437 37.5431 114.015C37.9854 114.592 38.614 115.042 39.3495 115.308C40.085 115.574 40.8943 115.644 41.6751 115.508C42.4559 115.372 43.1731 115.038 43.736 114.547C44.2989 114.056 44.6823 113.43 44.8376 112.749C44.9929 112.067 44.9132 111.361 44.6085 110.719C44.3039 110.078 43.788 109.529 43.126 109.143C42.4641 108.757 41.6859 108.551 40.8898 108.551C39.8227 108.553 38.7996 108.923 38.045 109.581C37.2904 110.24 36.866 111.132 36.8647 112.063Z" fill="#3F3D56"/>
<path d="M42.7736 113.345C42.8043 113.345 42.8342 113.336 42.8586 113.32C42.8829 113.304 42.9005 113.281 42.9084 113.255C42.9164 113.229 42.9143 113.201 42.9026 113.177C42.8909 113.152 42.8701 113.131 42.8435 113.118L40.7514 112.064L42.8435 111.01C42.8755 110.994 42.8989 110.967 42.9085 110.936C42.9181 110.905 42.913 110.872 42.8945 110.844C42.876 110.816 42.8456 110.795 42.8099 110.787C42.7741 110.779 42.736 110.783 42.704 110.799L40.4027 111.959C40.3815 111.969 40.3639 111.985 40.3517 112.003C40.3394 112.022 40.333 112.043 40.333 112.064C40.333 112.085 40.3394 112.106 40.3517 112.125C40.3639 112.143 40.3815 112.159 40.4027 112.169L42.704 113.329C42.7252 113.339 42.7492 113.345 42.7736 113.345Z" fill="#3F3D56"/>
<path d="M39.6873 113.768C39.7243 113.768 39.7598 113.755 39.7859 113.732C39.8121 113.709 39.8268 113.679 39.8268 113.646V110.482C39.8268 110.45 39.8121 110.419 39.7859 110.396C39.7598 110.373 39.7243 110.361 39.6873 110.361C39.6503 110.361 39.6149 110.373 39.5887 110.396C39.5625 110.419 39.5479 110.45 39.5479 110.482V113.646C39.5479 113.679 39.5625 113.709 39.5887 113.732C39.6149 113.755 39.6503 113.768 39.6873 113.768Z" fill="#3F3D56"/>
<path d="M72.1125 115.868C71.25 115.868 70.407 115.645 69.6899 115.227C68.9728 114.809 68.4139 114.215 68.0839 113.519C67.7538 112.824 67.6675 112.059 67.8357 111.321C68.004 110.583 68.4193 109.905 69.0291 109.373C69.6389 108.841 70.4159 108.479 71.2618 108.332C72.1076 108.185 72.9844 108.26 73.7812 108.548C74.5779 108.836 75.259 109.324 75.7381 109.95C76.2173 110.575 76.473 111.311 76.473 112.063C76.4717 113.072 76.0118 114.039 75.1944 114.752C74.3769 115.466 73.2686 115.867 72.1125 115.868ZM72.1125 108.551C71.3164 108.551 70.5382 108.757 69.8763 109.143C69.2143 109.529 68.6984 110.078 68.3938 110.719C68.0891 111.361 68.0094 112.067 68.1647 112.749C68.32 113.43 68.7034 114.056 69.2663 114.547C69.8292 115.038 70.5464 115.372 71.3272 115.508C72.108 115.643 72.9173 115.574 73.6528 115.308C74.3883 115.042 75.0169 114.592 75.4592 114.015C75.9015 113.437 76.1376 112.758 76.1376 112.063C76.1363 111.132 75.7119 110.24 74.9573 109.581C74.2027 108.923 73.1796 108.553 72.1125 108.551Z" fill="#3F3D56"/>
<path d="M70.2294 113.345C70.1987 113.345 70.1689 113.336 70.1445 113.32C70.1201 113.303 70.1026 113.28 70.0946 113.255C70.0866 113.229 70.0887 113.201 70.1005 113.176C70.1122 113.152 70.133 113.131 70.1596 113.118L72.2516 112.064L70.1596 111.01C70.1277 110.994 70.1044 110.967 70.0949 110.936C70.0854 110.905 70.0905 110.872 70.1089 110.844C70.1274 110.816 70.1577 110.796 70.1934 110.787C70.229 110.779 70.267 110.783 70.299 110.799L72.6003 111.958C72.6215 111.969 72.6391 111.984 72.6514 112.003C72.6636 112.021 72.67 112.042 72.67 112.064C72.67 112.085 72.6636 112.106 72.6514 112.125C72.6391 112.143 72.6215 112.158 72.6003 112.169L70.299 113.328C70.2779 113.339 70.2539 113.345 70.2294 113.345Z" fill="#3F3D56"/>
<path d="M73.3155 113.768C73.2785 113.768 73.243 113.755 73.2169 113.732C73.1907 113.709 73.176 113.679 73.176 113.646V110.482C73.176 110.45 73.1907 110.419 73.2169 110.396C73.243 110.373 73.2785 110.361 73.3155 110.361C73.3525 110.361 73.388 110.373 73.4141 110.396C73.4403 110.419 73.455 110.45 73.455 110.482V113.646C73.455 113.679 73.4403 113.709 73.4141 113.732C73.388 113.755 73.3525 113.768 73.3155 113.768Z" fill="#3F3D56"/>
</svg>
