<svg width="185" height="100" viewBox="0 0 185 100" fill="none" xmlns="http://www.w3.org/2000/svg">
<path d="M135.128 43.3677H0.057373V99.2909H135.128V43.3677Z" fill="#E6E6E6"/>
<path d="M131.266 48.1633H3.91992V94.8218H131.266V48.1633Z" fill="white"/>
<path d="M135.071 40.1367H0V45.1435H135.071V40.1367Z" fill="#17D059"/>
<path d="M4.26473 43.3801C4.85212 43.3801 5.32829 42.9647 5.32829 42.4521C5.32829 41.9396 4.85212 41.5242 4.26473 41.5242C3.67734 41.5242 3.20117 41.9396 3.20117 42.4521C3.20117 42.9647 3.67734 43.3801 4.26473 43.3801Z" fill="white"/>
<path d="M8.30111 43.3801C8.88849 43.3801 9.36466 42.9647 9.36466 42.4521C9.36466 41.9396 8.88849 41.5242 8.30111 41.5242C7.71372 41.5242 7.23755 41.9396 7.23755 42.4521C7.23755 42.9647 7.71372 43.3801 8.30111 43.3801Z" fill="white"/>
<path d="M12.3382 43.3801C12.9256 43.3801 13.4018 42.9647 13.4018 42.4521C13.4018 41.9396 12.9256 41.5242 12.3382 41.5242C11.7508 41.5242 11.2747 41.9396 11.2747 42.4521C11.2747 42.9647 11.7508 43.3801 12.3382 43.3801Z" fill="white"/>
<path d="M60.8785 59.2358C60.7419 59.2358 60.6108 59.2832 60.5142 59.3675C60.4176 59.4518 60.3633 59.5662 60.3633 59.6854C60.3633 59.8046 60.4176 59.919 60.5142 60.0033C60.6108 60.0876 60.7419 60.135 60.8785 60.135H89.1515C89.2881 60.135 89.4192 60.0876 89.5158 60.0033C89.6124 59.919 89.6667 59.8046 89.6667 59.6854C89.6667 59.5662 89.6124 59.4518 89.5158 59.3675C89.4192 59.2832 89.2881 59.2358 89.1515 59.2358H60.8785Z" fill="#E6E6E6"/>
<path d="M60.8786 61.9341C60.7422 61.9343 60.6114 61.9818 60.515 62.0661C60.4186 62.1504 60.3645 62.2646 60.3645 62.3837C60.3645 62.5027 60.4186 62.6169 60.515 62.7012C60.6114 62.7855 60.7422 62.833 60.8786 62.8332H75.3126C75.449 62.833 75.5798 62.7855 75.6762 62.7012C75.7726 62.6169 75.8267 62.5027 75.8267 62.3837C75.8267 62.2646 75.7726 62.1504 75.6762 62.0661C75.5798 61.9818 75.449 61.9343 75.3126 61.9341H60.8786Z" fill="#E6E6E6"/>
<path d="M60.1676 74.9912C60.0309 74.9912 59.8999 75.0386 59.8033 75.1229C59.7066 75.2072 59.6523 75.3215 59.6523 75.4408C59.6523 75.56 59.7066 75.6744 59.8033 75.7587C59.8999 75.843 60.0309 75.8903 60.1676 75.8903H113.18C113.316 75.8903 113.447 75.843 113.544 75.7587C113.64 75.6744 113.695 75.56 113.695 75.4408C113.695 75.3215 113.64 75.2072 113.544 75.1229C113.447 75.0386 113.316 74.9912 113.18 74.9912H60.1676Z" fill="#E6E6E6"/>
<path d="M60.1672 77.6887C60.0308 77.689 59.9 77.7365 59.8036 77.8207C59.7072 77.905 59.6531 78.0192 59.6531 78.1383C59.6531 78.2574 59.7072 78.3716 59.8036 78.4558C59.9 78.5401 60.0308 78.5876 60.1672 78.5879H99.3401C99.4765 78.5876 99.6073 78.5401 99.7037 78.4558C99.8001 78.3716 99.8542 78.2574 99.8542 78.1383C99.8542 78.0192 99.8001 77.905 99.7037 77.8207C99.6073 77.7365 99.4765 77.689 99.3401 77.6887H60.1672Z" fill="#E6E6E6"/>
<path d="M60.1672 80.3257C60.0308 80.3259 59.9 80.3734 59.8036 80.4577C59.7072 80.542 59.6531 80.6562 59.6531 80.7753C59.6531 80.8943 59.7072 81.0085 59.8036 81.0928C59.9 81.1771 60.0308 81.2246 60.1672 81.2248H113.179C113.316 81.2246 113.446 81.1771 113.543 81.0928C113.639 81.0085 113.693 80.8943 113.693 80.7753C113.693 80.6562 113.639 80.542 113.543 80.4577C113.446 80.3734 113.316 80.3259 113.179 80.3257H60.1672Z" fill="#E6E6E6"/>
<path d="M60.1672 83.0229C60.0308 83.0232 59.9 83.0707 59.8036 83.155C59.7072 83.2392 59.6531 83.3535 59.6531 83.4725C59.6531 83.5916 59.7072 83.7058 59.8036 83.7901C59.9 83.8744 60.0308 83.9218 60.1672 83.9221H99.3401C99.4765 83.9218 99.6073 83.8744 99.7037 83.7901C99.8001 83.7058 99.8542 83.5916 99.8542 83.4725C99.8542 83.3535 99.8001 83.2392 99.7037 83.155C99.6073 83.0707 99.4765 83.0232 99.3401 83.0229H60.1672Z" fill="#E6E6E6"/>
<path d="M32.4522 76.8157C34.9301 76.8157 36.9388 75.063 36.9388 72.901C36.9388 70.739 34.9301 68.9863 32.4522 68.9863C29.9743 68.9863 27.9656 70.739 27.9656 72.901C27.9656 75.063 29.9743 76.8157 32.4522 76.8157Z" fill="#A0616A"/>
<path d="M31.0313 69.7692C31.0313 69.7692 33.1251 70.2585 34.2094 70.4542C35.2936 70.65 35.1815 70.0954 35.1815 70.0954C35.1815 70.0954 36.6022 70.2585 36.5275 70.128C36.4527 69.9975 37.1257 69.3124 36.3405 68.5295C35.5554 67.7466 35.7797 67.1594 35.7797 67.1594H35.1067L34.9197 66.931H33.8729C33.8729 66.931 32.7154 66.0454 30.6591 66.3064C28.6027 66.5674 26.1708 67.2572 25.9465 68.3338C25.9161 68.4798 25.876 68.642 25.8295 68.8134C25.2672 70.8847 26.4619 72.8227 27.7011 74.6563C28.0057 75.1069 29.4788 76.0896 29.4411 75.4154C29.4034 74.7412 28.115 73.2271 29.0124 73.1293C29.9097 73.0314 31.4426 71.0414 31.0313 69.7692Z" fill="#2F2E41"/>
<path d="M29.9067 85.5565C29.0405 85.496 28.1816 85.3729 27.3389 85.1883L27.3861 84.4077L27.779 78.2004L27.7825 78.1528H35.6858L36.9261 83.8682L37.0934 84.6393C36.7661 84.7504 36.4351 84.8551 36.0969 84.9471C36.0932 84.9471 36.0932 84.9503 36.0897 84.9503C35.6205 85.0772 35.144 85.1883 34.6638 85.2803C34.0253 85.4005 33.3792 85.4874 32.7289 85.5406C32.2262 85.5841 31.7213 85.6053 31.216 85.604C30.7795 85.6041 30.3395 85.5882 29.9067 85.5565Z" fill="#17D059"/>
<path d="M24.826 84.4523C24.4987 84.3286 24.1822 84.1953 23.8695 84.0557L23.7349 83.9954C23.644 83.9541 23.5495 83.9097 23.4586 83.8652C23.3348 83.805 23.2147 83.7447 23.0984 83.6844C22.9856 83.6272 22.8693 83.5669 22.7565 83.5067C22.7493 83.5035 22.7457 83.5003 22.7384 83.5003C22.3456 83.2813 21.9601 83.056 21.5891 82.8117C21.5273 82.7704 21.4654 82.7292 21.4035 82.6879L21.3381 81.774L21.4326 81.7232L27.7794 78.2007L27.8666 78.1531L27.8738 78.1499L28.7685 78.1531V81.0599C29.2741 81.6978 29.616 83.0338 29.827 84.7824C29.8561 85.0331 29.8815 85.2901 29.9071 85.5567C29.041 85.4962 28.1821 85.3731 27.3393 85.1886C27.2484 85.1727 27.161 85.1537 27.0701 85.1314C26.54 85.0104 26.018 84.8642 25.5062 84.6935C25.3497 84.6427 25.197 84.5888 25.0443 84.5348L25.0297 84.5285C24.9642 84.5031 24.8915 84.4777 24.826 84.4523Z" fill="#2F2E41"/>
<path d="M23.458 83.8647C23.3342 83.8044 23.2142 83.7441 23.0979 83.6838C22.9851 83.6267 22.8688 83.5664 22.756 83.5061C22.7487 83.5029 22.7452 83.4998 22.7379 83.4998C22.3451 83.2808 21.9595 83.0555 21.5885 82.8111C21.5267 82.7699 21.4649 82.7286 21.403 82.6874C21.374 82.6652 21.3449 82.6461 21.312 82.6239C21.0794 82.4684 20.8538 82.3066 20.6356 82.1352C20.6247 82.1289 20.6175 82.1193 20.6064 82.113C20.8268 81.9651 21.0739 81.8504 21.3376 81.7734L21.5958 81.8401L23.4362 82.3224L23.447 82.973L23.458 83.8647Z" fill="#2F2E41"/>
<path d="M38.9554 83.8748C38.8462 83.9255 38.7372 83.9763 38.6281 84.0239C38.6025 84.0366 38.5809 84.0461 38.559 84.0557C38.4134 84.1191 38.2717 84.1826 38.1262 84.2429C38.1225 84.246 38.1152 84.2461 38.1152 84.2492C38.1079 84.2524 38.0971 84.2556 38.0898 84.2588C37.7625 84.3952 37.4315 84.5221 37.0932 84.6396C36.7659 84.7506 36.4349 84.8554 36.0967 84.9474C36.093 84.9474 36.093 84.9506 36.0895 84.9506C35.6203 85.0775 35.1438 85.1886 34.6636 85.2806C34.6582 85.0199 34.6975 84.76 34.7801 84.5094L34.7836 84.465L35.0965 80.0476L34.6781 78.1531L35.8785 77.9976L42.4797 81.098C42.4797 81.098 41.7523 81.7327 38.7663 83.0846C38.5023 83.2041 38.8899 83.6019 38.9554 83.8748Z" fill="#2F2E41"/>
<path d="M32.6493 84.7787C32.1764 84.8168 31.6964 84.8358 31.2163 84.8358C30.7507 84.8358 30.2888 84.82 29.8269 84.7819C29.856 85.0326 29.8814 85.2896 29.907 85.5562C30.3398 85.588 30.7798 85.6038 31.2163 85.6038C31.7215 85.6051 32.2265 85.5839 32.7292 85.5403C33.3795 85.4872 34.0256 85.4003 34.6641 85.2801C34.6587 85.0194 34.698 84.7595 34.7806 84.509L34.7841 84.4645C34.082 84.6136 33.3686 84.7186 32.6493 84.7787ZM46.3936 66.9694C45.6251 65.0431 44.3842 63.2863 42.7575 61.8214C41.1308 60.3565 39.1575 59.2189 36.9751 58.4878C34.7928 57.7567 32.4539 57.4497 30.1216 57.5883C27.7893 57.7269 25.5198 58.3078 23.4712 59.2903C21.4226 60.2729 19.6443 61.6335 18.2603 63.2773C16.8763 64.9211 15.9199 66.8085 15.4578 68.808C14.9957 70.8074 15.039 72.8707 15.5847 74.8541C16.1304 76.8374 17.1654 78.693 18.6175 80.2915C18.7629 80.4502 18.9121 80.6088 19.0648 80.7612C19.0794 80.7738 19.0867 80.7834 19.0975 80.7929C19.473 81.1707 19.8725 81.5299 20.2941 81.8687C20.3961 81.9512 20.5014 82.0337 20.6069 82.113C20.6179 82.1194 20.6251 82.1289 20.636 82.1353C20.8542 82.3066 21.0798 82.4685 21.3124 82.624C21.3453 82.6462 21.3744 82.6652 21.4034 82.6874C21.4653 82.7287 21.5272 82.7699 21.5889 82.8112C21.9599 83.0555 22.3455 83.2808 22.7383 83.4998C22.7456 83.4998 22.7491 83.503 22.7564 83.5062C22.8692 83.5665 22.9855 83.6267 23.0983 83.6839C23.2148 83.7442 23.3348 83.8045 23.4584 83.8647C23.5494 83.9092 23.6438 83.9536 23.7348 83.9949L23.8694 84.0552C24.1821 84.1948 24.4986 84.3281 24.8259 84.4518C24.8914 84.4772 24.964 84.5026 25.0296 84.528L25.0441 84.5344C25.1969 84.5883 25.3496 84.6422 25.506 84.693C26.0178 84.8637 26.5399 85.0099 27.0699 85.131C27.1608 85.1532 27.2482 85.1722 27.3392 85.1881C28.1819 85.3726 29.0408 85.4957 29.907 85.5562C30.3398 85.588 30.7798 85.6038 31.2163 85.6038C31.7215 85.6051 32.2265 85.5839 32.7292 85.5403C33.3795 85.4872 34.0256 85.4003 34.6641 85.2801C35.1443 85.1881 35.6207 85.077 36.0899 84.9501C36.0935 84.9501 36.0935 84.9469 36.0972 84.9469C36.4354 84.8549 36.7664 84.7502 37.0937 84.6391C37.432 84.5217 37.763 84.3947 38.0903 84.2583C38.0976 84.2551 38.1084 84.2519 38.1157 84.2488C38.1157 84.2456 38.123 84.2456 38.1267 84.2424C38.2722 84.1821 38.4139 84.1186 38.5595 84.0552C38.5814 84.0456 38.603 84.0361 38.6286 84.0234C38.7377 83.9758 38.8467 83.9251 38.9559 83.8743C38.9632 83.8711 38.9667 83.8679 38.974 83.8648C39.2614 83.7252 39.5452 83.5792 39.8252 83.4237C39.9016 83.3824 39.978 83.3412 40.0543 83.2936C40.1671 83.2333 40.2761 83.1666 40.3816 83.1C40.5235 83.0143 40.6652 82.9254 40.8036 82.8334C40.8495 82.8077 40.8933 82.779 40.9345 82.7477C41.2728 82.5256 41.6001 82.2908 41.9128 82.0432C44.2847 80.1991 45.9765 77.7826 46.7741 75.0995C47.5717 72.4163 47.4393 69.5869 46.3936 66.9694ZM41.64 81.2245C41.2463 81.5477 40.8336 81.8527 40.4035 82.1384C40.309 82.2019 40.2106 82.2654 40.1126 82.3225C40.0179 82.386 39.9235 82.4462 39.8252 82.5034C39.7416 82.5541 39.658 82.6049 39.5706 82.6525C39.5633 82.6589 39.5525 82.662 39.5452 82.6684C39.4832 82.7065 39.4179 82.7414 39.3561 82.7763C39.1632 82.881 38.9632 82.9857 38.7668 83.0841C38.7196 83.1063 38.6759 83.1317 38.6286 83.1539C38.6031 83.1666 38.5777 83.1793 38.5485 83.192C38.4395 83.246 38.3303 83.2936 38.2212 83.3443C38.2067 83.3538 38.1886 83.357 38.174 83.3665C38.1685 83.3673 38.1634 83.3695 38.1594 83.3729C38.0831 83.4078 38.0067 83.4395 37.9304 83.4713C37.8648 83.4998 37.803 83.5284 37.7375 83.5538C37.472 83.6648 37.1992 83.7696 36.9264 83.8679C36.6391 83.9695 36.3482 84.0615 36.0536 84.1472C35.9808 84.1694 35.9044 84.1948 35.828 84.2138C35.4824 84.309 35.137 84.3947 34.7841 84.4645C34.082 84.6136 33.3686 84.7186 32.6493 84.7787C32.1764 84.8168 31.6964 84.8358 31.2163 84.8358C30.7507 84.8358 30.2888 84.82 29.8269 84.7819C29.0029 84.7161 28.1866 84.5909 27.3864 84.4074C27.3573 84.4011 27.3246 84.3947 27.2955 84.3884C26.6391 84.239 25.996 84.0481 25.3715 83.8172C25.3388 83.8045 25.3024 83.7949 25.2733 83.7823C25.2369 83.7695 25.2042 83.76 25.175 83.7473C25.1386 83.7346 25.106 83.722 25.0733 83.7092C24.8005 83.6045 24.535 83.4903 24.2695 83.3729L24.1457 83.3158C23.9094 83.2079 23.6765 83.0968 23.4475 82.973C23.3675 82.9349 23.2839 82.8905 23.2038 82.8461C23.1129 82.7985 23.0219 82.7477 22.9346 82.6969C22.9129 82.6842 22.8911 82.6716 22.8692 82.6589C22.6655 82.5383 22.4583 82.4177 22.2619 82.2876C22.1237 82.1987 21.9891 82.113 21.8545 82.021C21.7671 81.9639 21.6799 81.9036 21.5962 81.8401C21.5417 81.8052 21.4872 81.764 21.4325 81.7227C21.3599 81.6688 21.2871 81.6148 21.2144 81.5577C21.1016 81.4783 20.9962 81.3895 20.8942 81.307C20.4847 80.9777 20.0973 80.628 19.734 80.2597C19.6104 80.1391 19.4939 80.0186 19.3813 79.8916C19.3551 79.8666 19.3307 79.8401 19.3085 79.8123C17.4775 77.7955 16.3587 75.3572 16.0888 72.7951C15.8188 70.233 16.4094 67.6576 17.7884 65.3833C19.1673 63.1091 21.2751 61.2341 23.8546 59.9872C26.434 58.7403 29.3736 58.1754 32.3147 58.3614C35.2559 58.5474 38.0714 59.4762 40.4178 61.0346C42.7643 62.593 44.5402 64.7135 45.5289 67.1376C46.5176 69.5616 46.6763 72.1843 45.9858 74.6857C45.2953 77.1871 43.7853 79.4591 41.64 81.2245Z" fill="#3F3D56"/>
<path d="M179.199 87.9215H100.302C98.896 87.9201 97.5485 87.4323 96.5546 86.5651C95.5607 85.6979 95.0016 84.5221 95 83.2957V4.62584C95.0016 3.39942 95.5607 2.22363 96.5546 1.35642C97.5485 0.489202 98.896 0.00139116 100.302 0H179.199C180.604 0.00138561 181.952 0.489195 182.946 1.35641C183.94 2.22362 184.499 3.39942 184.5 4.62584V83.2957C184.499 84.5221 183.94 85.6979 182.946 86.5651C181.952 87.4323 180.604 87.9201 179.199 87.9215Z" fill="#E6E6E6"/>
<path d="M175.512 84.0672H103.989C102.741 84.0659 101.544 83.6328 100.662 82.8628C99.7791 82.0928 99.2827 81.0488 99.2812 79.9599V7.96368C99.2827 6.87476 99.7791 5.83078 100.662 5.06079C101.544 4.29081 102.741 3.85768 103.989 3.85645H175.512C176.76 3.85768 177.957 4.2908 178.839 5.06079C179.722 5.83078 180.218 6.87475 180.219 7.96368V79.9599C180.218 81.0488 179.722 82.0928 178.839 82.8628C177.957 83.6328 176.76 84.0659 175.512 84.0672Z" fill="white"/>
<path d="M172.666 14.1035H136.585C136.43 14.1037 136.277 14.0773 136.134 14.0258C135.991 13.9743 135.861 13.8987 135.752 13.8033C135.642 13.708 135.555 13.5947 135.496 13.47C135.437 13.3454 135.406 13.2117 135.406 13.0768C135.406 12.9418 135.437 12.8082 135.496 12.6835C135.555 12.5589 135.642 12.4456 135.752 12.3503C135.861 12.2549 135.991 12.1793 136.134 12.1278C136.277 12.0763 136.43 12.0499 136.585 12.05H172.666C172.821 12.0499 172.974 12.0763 173.117 12.1278C173.26 12.1793 173.39 12.2549 173.499 12.3503C173.609 12.4456 173.696 12.5589 173.755 12.6835C173.814 12.8082 173.845 12.9418 173.845 13.0768C173.845 13.2117 173.814 13.3454 173.755 13.47C173.696 13.5947 173.609 13.708 173.499 13.8033C173.39 13.8987 173.26 13.9743 173.117 14.0258C172.974 14.0773 172.821 14.1037 172.666 14.1035Z" fill="#E4E4E4"/>
<path d="M172.667 18.1612H136.585C136.273 18.1612 135.974 18.0531 135.753 17.8605C135.532 17.6679 135.408 17.4068 135.408 17.1344C135.408 16.8621 135.532 16.601 135.753 16.4084C135.974 16.2158 136.273 16.1077 136.585 16.1077H172.667C172.979 16.1077 173.278 16.2158 173.499 16.4084C173.719 16.601 173.843 16.8621 173.843 17.1344C173.843 17.4068 173.719 17.6679 173.499 17.8605C173.278 18.0531 172.979 18.1612 172.667 18.1612Z" fill="#E4E4E4"/>
<path d="M152.225 22.2171H136.585C136.273 22.2171 135.974 22.109 135.753 21.9164C135.532 21.7238 135.408 21.4627 135.408 21.1904C135.408 20.918 135.532 20.6569 135.753 20.4643C135.974 20.2718 136.273 20.1636 136.585 20.1636H152.225C152.538 20.1636 152.837 20.2718 153.058 20.4643C153.278 20.6569 153.402 20.918 153.402 21.1904C153.402 21.4627 153.278 21.7238 153.058 21.9164C152.837 22.109 152.538 22.2171 152.225 22.2171Z" fill="#E4E4E4"/>
<path d="M168.316 38.604H111.354C111.2 38.6042 111.046 38.5778 110.903 38.5263C110.76 38.4748 110.63 38.3992 110.521 38.3038C110.412 38.2084 110.325 38.0952 110.266 37.9705C110.206 37.8459 110.176 37.7122 110.176 37.5773C110.176 37.4423 110.206 37.3087 110.266 37.184C110.325 37.0594 110.412 36.9461 110.521 36.8507C110.63 36.7554 110.76 36.6798 110.903 36.6283C111.046 36.5768 111.2 36.5503 111.354 36.5505H168.316C168.47 36.5503 168.624 36.5768 168.767 36.6283C168.91 36.6798 169.039 36.7554 169.149 36.8507C169.258 36.9461 169.345 37.0594 169.404 37.184C169.464 37.3087 169.494 37.4423 169.494 37.5773C169.494 37.7122 169.464 37.8459 169.404 37.9705C169.345 38.0952 169.258 38.2084 169.149 38.3038C169.039 38.3992 168.91 38.4748 168.767 38.5263C168.624 38.5778 168.47 38.6042 168.316 38.604Z" fill="#E4E4E4"/>
<path d="M168.316 42.6617H111.355C111.042 42.6617 110.743 42.5535 110.522 42.361C110.302 42.1684 110.178 41.9073 110.178 41.6349C110.178 41.3626 110.302 41.1015 110.522 40.9089C110.743 40.7163 111.042 40.6082 111.355 40.6082H168.316C168.628 40.6082 168.928 40.7163 169.148 40.9089C169.369 41.1015 169.493 41.3626 169.493 41.6349C169.493 41.9073 169.369 42.1684 169.148 42.361C168.928 42.5535 168.628 42.6617 168.316 42.6617Z" fill="#E4E4E4"/>
<path d="M168.316 51.8691H111.354C111.042 51.8691 110.743 51.761 110.522 51.5684C110.302 51.3759 110.178 51.1147 110.178 50.8424C110.178 50.5701 110.302 50.309 110.522 50.1164C110.743 49.9239 111.042 49.8157 111.354 49.8157H168.316C168.628 49.8157 168.927 49.9239 169.148 50.1164C169.369 50.309 169.493 50.5701 169.493 50.8424C169.493 51.1147 169.369 51.3759 169.148 51.5684C168.927 51.761 168.628 51.8691 168.316 51.8691Z" fill="#E4E4E4"/>
<path d="M168.316 55.9269H111.355C111.042 55.9269 110.743 55.8187 110.522 55.6261C110.302 55.4336 110.178 55.1724 110.178 54.9001C110.178 54.6278 110.302 54.3666 110.522 54.174C110.743 53.9815 111.042 53.8733 111.355 53.8733H168.316C168.628 53.8733 168.928 53.9815 169.148 54.174C169.369 54.3666 169.493 54.6278 169.493 54.9001C169.493 55.1724 169.369 55.4336 169.148 55.6261C168.928 55.8187 168.628 55.9269 168.316 55.9269Z" fill="#E4E4E4"/>
<path d="M168.316 65.1377H111.354C111.042 65.1377 110.743 65.0295 110.522 64.837C110.302 64.6444 110.178 64.3833 110.178 64.111C110.178 63.8387 110.302 63.5775 110.522 63.3849C110.743 63.1924 111.042 63.0842 111.354 63.0842H168.316C168.628 63.0842 168.927 63.1924 169.148 63.3849C169.369 63.5775 169.493 63.8387 169.493 64.111C169.493 64.3833 169.369 64.6444 169.148 64.837C168.927 65.0295 168.628 65.1377 168.316 65.1377Z" fill="#E4E4E4"/>
<path d="M168.316 69.1937H111.355C111.042 69.1937 110.743 69.0855 110.522 68.893C110.302 68.7004 110.178 68.4392 110.178 68.1669C110.178 67.8946 110.302 67.6334 110.522 67.4409C110.743 67.2483 111.042 67.1401 111.355 67.1401H168.316C168.628 67.1401 168.928 67.2483 169.148 67.4409C169.369 67.6334 169.493 67.8946 169.493 68.1669C169.493 68.4392 169.369 68.7004 169.148 68.893C168.928 69.0855 168.628 69.1937 168.316 69.1937Z" fill="#E4E4E4"/>
<path d="M168.306 80.4325H152.665C152.353 80.4325 152.054 80.3243 151.833 80.1317C151.612 79.9392 151.488 79.678 151.488 79.4057C151.488 79.1334 151.612 78.8722 151.833 78.6796C152.054 78.4871 152.353 78.3789 152.665 78.3789H168.306C168.618 78.3789 168.917 78.4871 169.138 78.6796C169.358 78.8722 169.482 79.1334 169.482 79.4057C169.482 79.678 169.358 79.9392 169.138 80.1317C168.917 80.3243 168.618 80.4325 168.306 80.4325Z" fill="#17D059"/>
<path d="M126.597 17.2535C126.6 19.4585 125.745 21.5991 124.171 23.3242C123.662 23.8857 123.082 24.3956 122.443 24.8445C120.698 26.0793 118.567 26.8253 116.327 26.9846C116.023 27.0076 115.715 27.0181 115.406 27.0181C114.792 27.0182 114.18 26.9741 113.575 26.8862C113.361 26.8569 113.152 26.8212 112.943 26.7794C112.58 26.7088 112.221 26.6214 111.868 26.5176C110.724 26.1853 109.649 25.6931 108.686 25.0602C108.429 24.8926 108.182 24.7146 107.942 24.5262C107.648 24.299 107.37 24.0571 107.109 23.8016C107.039 23.7346 106.97 23.6655 106.903 23.5964C105.732 22.4005 104.909 20.9754 104.505 19.4425C104.101 17.9095 104.128 16.3141 104.583 14.792C105.038 13.27 105.907 11.8664 107.118 10.7007C108.328 9.53502 109.843 8.64182 111.535 8.09714C113.226 7.55245 115.043 7.37241 116.831 7.57235C118.619 7.77228 120.325 8.34627 121.805 9.24544C123.284 10.1446 124.492 11.3423 125.326 12.7367C126.161 14.131 126.597 15.6805 126.597 17.2535Z" fill="#E4E4E4"/>
<path d="M115.016 20.5865C117.549 20.5865 119.602 18.795 119.602 16.585C119.602 14.375 117.549 12.5835 115.016 12.5835C112.483 12.5835 110.43 14.375 110.43 16.585C110.43 18.795 112.483 20.5865 115.016 20.5865Z" fill="#9E616A"/>
<path d="M120.122 14.6333C120.143 14.2758 120.027 13.9223 119.793 13.6282L119.627 13.4229C119.03 12.4178 118.043 11.5132 117.321 10.8514C116.779 10.3552 116.236 10.1164 115.715 10.1395C115.336 10.1631 114.983 10.3167 114.734 10.5666C114.048 10.5301 113.365 10.6689 112.768 10.9661C112.171 11.2633 111.686 11.7059 111.374 12.2398C109.178 13.2512 109.833 16.2374 109.84 16.2688L110.371 17.0457L110.431 16.9472C110.431 16.9451 110.438 16.9368 110.447 16.92C110.551 16.7588 111.112 15.8625 111.491 15.295C111.63 15.1015 111.814 14.9359 112.031 14.8092C112.387 14.5975 112.795 14.4632 113.222 14.4176L114.388 14.2857L113.947 14.8637H117.124L118.346 14.738C118.468 15.1757 119.438 16.874 119.555 17.0792L119.565 17.0959L119.63 17.2111L119.992 16.3421C120.204 15.7918 120.248 15.2031 120.122 14.6333Z" fill="#2F2E41"/>
<path d="M108.719 25.0814C108.916 24.8553 109.936 23.7999 112.283 23.2408L113.526 22.0325L118.511 21.3394L121.048 22.5623L124.17 23.3245C123.661 23.886 123.082 24.396 122.442 24.8448C120.698 26.0796 118.566 26.8256 116.327 26.9849C116.022 27.008 115.715 27.0184 115.406 27.0184C114.792 27.0186 114.18 26.9744 113.574 26.8865C113.361 26.8572 113.152 26.8216 112.943 26.7797C112.58 26.7092 112.221 26.6218 111.868 26.518C110.737 26.19 109.673 25.7049 108.719 25.0814C108.707 25.0752 108.698 25.0668 108.686 25.0605L108.719 25.0814Z" fill="#17D059"/>
</svg>
