<svg width="105" height="33" viewBox="0 0 105 33" fill="none" xmlns="http://www.w3.org/2000/svg">
<path d="M99.495 0.505025C99.2216 0.231658 98.7784 0.231658 98.505 0.505025L94.0503 4.9598C93.7769 5.23316 93.7769 5.67638 94.0503 5.94975C94.3236 6.22311 94.7668 6.22311 95.0402 5.94975L99 1.98995L102.96 5.94975C103.233 6.22311 103.676 6.22311 103.95 5.94975C104.223 5.67638 104.223 5.23316 103.95 4.9598L99.495 0.505025ZM0 32.7H77V31.3H0V32.7ZM99.7 10V1H98.3V10H99.7ZM77 32.7C89.5369 32.7 99.7 22.5369 99.7 10H98.3C98.3 21.7637 88.7637 31.3 77 31.3V32.7Z" fill="#0DBA4B"/>
</svg>
