<svg width="166" height="140" viewBox="0 0 166 140" fill="none" xmlns="http://www.w3.org/2000/svg">
<path d="M156.804 36.4175C156.894 36.3019 159.132 38.2685 161.169 37.8638C163.706 37.3596 165.561 33.2486 164.186 31.4902C163.275 30.3265 161.011 30.2718 161.058 30.0535C161.109 29.82 163.545 30.6028 164.871 29.6678C166.481 28.5319 166.145 25.0773 164.175 23.2653C163.78 22.9027 163.126 22.3005 162.185 22.2528C160.338 22.1591 158.889 24.2806 158.251 25.2131C156.225 28.1777 156.059 31.288 155.809 31.2588C155.578 31.2319 156.191 28.6291 155.08 28.0962C154.836 27.9794 154.547 27.981 154.259 28.039C154.332 27.8748 154.384 27.7057 154.411 27.5319C154.577 26.4357 153.579 25.2704 152.4 24.2936C153.628 24.9285 155.017 25.3687 156.245 25.0538C158.989 24.3503 160.815 19.9109 159.372 17.1856C158.365 15.2823 155.795 14.2766 155.88 14.1676C155.97 14.0521 158.209 16.0186 160.245 15.6139C162.782 15.1098 164.638 10.9987 163.262 9.24033C162.352 8.07662 160.088 8.02191 160.135 7.80365C160.185 7.57012 162.622 8.35297 163.947 7.41793C165.558 6.28202 165.221 2.82742 163.251 1.01543C162.857 0.652875 162.202 0.0506884 161.262 0.00300472C159.415 -0.0906811 157.965 2.03077 157.328 2.96324C155.302 5.92781 155.136 9.03812 154.886 9.00899C154.654 8.98206 155.268 6.37924 154.156 5.84632C153.46 5.51261 152.389 6.13512 152.056 6.32846C148.399 8.45449 149.413 13.0774 146.034 17.9957C144.946 19.5793 143.862 20.5249 142.947 21.2402C142.53 16.8366 144.068 13.4563 141.737 10.8957C141.489 10.6227 140.688 9.74356 139.908 9.87481C138.663 10.0844 138.331 12.7259 138.102 12.6897C137.854 12.6505 138.789 9.64577 137.903 6.28177C137.625 5.22368 136.991 2.8164 135.2 2.41121C134.288 2.2049 133.453 2.60279 132.95 2.84234C130.438 4.03959 128.903 7.23753 130.037 8.7497C130.969 9.99448 133.564 9.90163 133.53 10.1374C133.498 10.3577 131.324 9.80372 130.048 10.6676C128.12 11.973 128.441 16.3826 130.678 17.5414C132.474 18.4717 135.297 17.1993 135.342 17.3333C135.384 17.4597 132.585 17.7291 130.957 19.271C130.281 19.9111 129.817 20.7623 129.555 21.682C127.338 21.8274 125.44 23.2137 125.369 23.1069C125.288 22.9861 128.29 22.0787 128.755 20.3022C129.335 18.0891 125.894 14.8473 123.482 15.1662C121.885 15.3773 120.847 17.1336 120.642 17.002C120.422 16.861 122.288 15.2848 121.897 13.8372C121.422 12.0786 117.709 10.8449 114.983 11.608C114.438 11.7607 113.532 12.0142 113.075 12.7328C112.177 14.1442 113.739 16.2042 114.426 17.1096C116.608 19.9884 119.748 21.4678 119.61 21.6517C119.482 21.8216 117.06 20.2105 116.027 20.8535C115.381 21.2562 115.559 22.3681 115.615 22.7134C116.224 26.5109 121.438 27.719 125.052 32.5083C127.995 36.4084 126.739 38.5251 129.232 39.5822C130.302 40.036 131.665 40.1237 133.058 39.9052C131.98 46.2036 131.675 56.9753 131.675 56.9753C131.371 67.7499 129.784 76.6232 129.089 76.6061C128.703 76.596 128.845 73.8819 127.676 69.5175C126.856 66.4575 126.468 66.5985 124.338 61.1387C120.958 52.4779 119.268 48.1489 119.264 48.1252C119.247 47.937 119.217 47.5569 119.093 47.1725C121.595 46.5617 124.025 44.9968 124.869 42.8008C125.544 41.0439 125.367 38.4342 123.724 37.494C122.665 36.8874 121.028 37.1668 119.508 37.6704C120.696 36.98 121.753 36.0793 121.961 34.9771C122.424 32.5145 118.632 29.1537 115.191 29.106C112.789 29.0727 110.636 30.6566 110.56 30.5427C110.48 30.422 113.482 29.5145 113.947 27.7381C114.527 25.525 111.086 22.2831 108.673 22.6021C107.077 22.8131 106.038 24.5695 105.833 24.4378C105.614 24.2969 107.479 22.7207 107.088 21.2731C106.614 19.5144 102.9 18.2808 100.174 19.0438C99.6291 19.1965 98.7232 19.4501 98.2662 20.1687C97.3685 21.5801 98.9305 23.6401 99.6171 24.5455C101.8 27.4242 104.94 28.9036 104.802 29.0875C104.673 29.2575 102.252 27.6464 101.219 28.2894C100.572 28.692 100.751 29.8039 100.806 30.1493C101.416 33.9468 106.629 35.1548 110.243 39.9442C113.186 43.8442 111.93 45.9609 114.424 47.018C114.855 47.201 115.335 47.3228 115.844 47.391L115.844 47.3931C116.064 50.3708 122.212 58.3733 125.634 69.7514C127.338 75.42 128.271 78.5124 127.6 82.8187C126.937 87.0879 125.095 89.9693 125.129 91.8718C125.131 92.0497 125.149 92.2138 125.187 92.3726L135.292 91.2153C135.36 91.0444 135.413 90.8691 135.456 90.6891C136.225 87.45 133.418 82.527 134.844 74.5875C135.904 68.696 138.807 63.8501 140.16 61.5925C141.824 58.8161 143.789 56.2045 145.91 52.1491C147.273 52.8036 148.817 53.1512 150.35 52.983C152.457 52.7519 155.075 51.4807 155.334 49.7817C155.501 48.6856 154.503 47.5203 153.323 46.5434C154.552 47.1783 155.94 47.6185 157.168 47.3036C159.913 46.6002 161.738 42.1607 160.296 39.4355C159.288 37.5321 156.719 36.5264 156.804 36.4175ZM115.689 39.3205C115.682 39.3078 115.787 39.2677 115.971 39.2026C115.798 39.2874 115.697 39.3333 115.689 39.3205ZM149.284 22.1774C149.121 22.078 149.03 22.0183 149.04 22.0069C149.05 21.9955 149.137 22.0611 149.284 22.1774ZM138.804 26.7226C138.984 26.6513 139.09 26.6122 139.096 26.6257C139.101 26.6392 138.993 26.6716 138.804 26.7226ZM130.498 31.8846C130.49 31.8719 130.596 31.8318 130.78 31.7667C130.607 31.8516 130.505 31.8974 130.498 31.8846ZM133.405 54.6625C133.162 54.6148 136.114 44.1993 136.598 38.6696C137.998 37.8684 139.149 36.7403 139.677 35.3649C139.687 35.341 139.695 35.3164 139.704 35.2922C139.984 35.2582 140.263 35.2122 140.539 35.1555C139.551 37.3344 139 38.9167 139 38.9167C136.435 46.2886 133.626 54.7067 133.405 54.6625ZM144.42 51.2622C143.61 52.3459 142.661 53.6781 141.354 55.7159C138.002 60.9365 136.327 63.5451 135.887 65.4051C135.771 65.9017 135.161 68.5878 133.761 71.9926C133.046 73.73 132.689 74.5987 132.417 74.5634C131.647 74.4613 131.634 67.6081 133.766 60.5122C134.131 59.3043 134.422 58.5247 134.976 57.0505C135.875 54.6456 140.882 41.278 144.821 33.1686L144.822 33.1676C145.549 32.5591 146.093 31.8632 146.36 31.1306C146.446 30.8968 146.494 30.6804 146.513 30.4745C147.455 30.7358 148.443 30.8411 149.427 30.7332C149.977 30.6729 150.561 30.5411 151.13 30.3499C149.557 32.7821 149.582 36.4243 146.957 40.2456C144.206 44.2505 141.475 44.1813 141.465 46.5999C141.458 48.2061 142.656 49.9829 144.421 51.2606L144.42 51.2622ZM149.963 44.2567C149.973 44.2454 150.06 44.311 150.207 44.4273C150.044 44.3279 149.953 44.2681 149.963 44.2567Z" fill="#F2F2F2"/>
<path d="M135.589 139.497L5.1204 109.073C2.33298 108.423 0.390602 106.467 0.0512276 103.967C-0.288146 101.467 1.07662 99.1681 3.61279 97.9679L56.6343 72.8779C57.9743 72.2437 59.5411 72.0133 61.045 72.2301L148.683 84.8357C150.553 85.1048 152.175 86.0044 153.248 87.3684C154.321 88.7324 154.7 90.3757 154.315 91.9958L144.124 134.904C143.735 136.542 142.622 137.927 140.991 138.805C139.885 139.4 138.647 139.705 137.387 139.705C136.789 139.705 136.185 139.636 135.589 139.497Z" fill="white"/>
<path d="M135.589 139.497L5.1204 109.073C2.33298 108.423 0.390602 106.467 0.0512276 103.967C-0.288146 101.467 1.07662 99.1681 3.61279 97.9679L56.6343 72.8779C57.9743 72.2437 59.5411 72.0133 61.045 72.2301L148.683 84.8357C150.553 85.1048 152.175 86.0044 153.248 87.3684C154.321 88.7324 154.7 90.3757 154.315 91.9958L144.124 134.904C143.735 136.542 142.622 137.927 140.991 138.805C139.885 139.4 138.647 139.705 137.387 139.705C136.789 139.705 136.185 139.636 135.589 139.497ZM148.565 85.4557L60.9279 72.8499C59.5808 72.6558 58.1778 72.8621 56.9776 73.4301L3.95615 98.52C1.68459 99.5949 0.462204 101.654 0.76619 103.893C1.07018 106.132 2.80982 107.884 5.30626 108.466L135.774 138.89C137.433 139.277 139.152 139.057 140.613 138.27C142.074 137.484 143.071 136.243 143.419 134.776L153.61 91.8682C153.955 90.4175 153.615 88.9455 152.654 87.7238C151.693 86.5021 150.241 85.6966 148.565 85.4557Z" fill="#CCCCCC"/>
<path d="M129.61 97.2673L117.975 122.884C116.847 125.368 113.681 126.639 110.785 125.769L25.2651 100.095C20.5429 98.6778 20.0154 93.0347 24.4118 90.9681L51.9338 78.0309C53.1312 77.468 54.5191 77.2952 55.8492 77.5434L125.483 90.5376C128.948 91.1843 130.916 94.393 129.61 97.2673Z" fill="#F2F2F2"/>
<path d="M107.208 101.517C109.875 101.517 112.036 100.574 112.036 99.4106C112.036 98.2471 109.875 97.304 107.208 97.304C104.541 97.304 102.379 98.2471 102.379 99.4106C102.379 100.574 104.541 101.517 107.208 101.517Z" fill="#FF6884"/>
<path d="M102.681 107.968C105.348 107.968 107.51 107.025 107.51 105.861C107.51 104.698 105.348 103.755 102.681 103.755C100.014 103.755 97.8525 104.698 97.8525 105.861C97.8525 107.025 100.014 107.968 102.681 107.968Z" fill="#3F3D56"/>
<path d="M76.7259 102.9C83.9765 102.9 89.8542 100.336 89.8542 97.1724C89.8542 94.0093 83.9765 91.4451 76.7259 91.4451C69.4754 91.4451 63.5977 94.0093 63.5977 97.1724C63.5977 100.336 69.4754 102.9 76.7259 102.9Z" fill="#17D059"/>
<path d="M53.9398 96.9094C54.1261 96.9094 54.3007 96.8082 54.3666 96.6462C54.45 96.4406 54.3267 96.2148 54.091 96.1419L44.5113 93.1794C44.2762 93.1068 44.017 93.2142 43.9333 93.4199C43.8499 93.6255 43.9732 93.8513 44.2089 93.9242L53.7886 96.8866C53.8386 96.902 53.8896 96.9094 53.9398 96.9094Z" fill="#3F3D56"/>
<path d="M56.0531 95.4604C56.2394 95.4604 56.414 95.3592 56.4799 95.1972C56.5633 94.9916 56.4399 94.7658 56.2043 94.6929L46.6245 91.7305C46.3895 91.6578 46.1303 91.7652 46.0466 91.9709C45.9632 92.1765 46.0865 92.4023 46.3222 92.4752L55.9019 95.4376C55.9519 95.4531 56.0029 95.4604 56.0531 95.4604Z" fill="#3F3D56"/>
<path d="M58.1652 94.0126C58.3514 94.0126 58.5261 93.9114 58.5919 93.7494C58.6754 93.5438 58.552 93.318 58.3164 93.2451L48.7366 90.2827C48.5014 90.2102 48.2422 90.3174 48.1586 90.5231C48.0752 90.7287 48.1986 90.9545 48.4342 91.0274L58.014 93.9898C58.0639 94.0052 58.1149 94.0126 58.1652 94.0126Z" fill="#3F3D56"/>
<path d="M60.278 92.5637C60.4642 92.5637 60.6389 92.4625 60.7047 92.3005C60.7881 92.0949 60.6648 91.8691 60.4292 91.7962L50.8494 88.8337C50.6143 88.7611 50.355 88.8685 50.2714 89.0742C50.188 89.2798 50.3114 89.5056 50.547 89.5785L60.1268 92.5409C60.1767 92.5563 60.2277 92.5637 60.278 92.5637Z" fill="#3F3D56"/>
<path d="M62.39 91.1159C62.5763 91.1159 62.7509 91.0147 62.8168 90.8527C62.9002 90.6471 62.7769 90.4213 62.5412 90.3484L52.9614 87.386C52.7264 87.3133 52.4672 87.4207 52.3835 87.6264C52.3001 87.832 52.4234 88.0578 52.6591 88.1307L62.2388 91.0931C62.2888 91.1086 62.3398 91.1159 62.39 91.1159Z" fill="#3F3D56"/>
<path d="M64.5031 89.6669C64.6893 89.6669 64.864 89.5657 64.9298 89.4037C65.0132 89.1981 64.8899 88.9723 64.6543 88.8994L55.0745 85.937C54.8393 85.8644 54.5802 85.9717 54.4965 86.1774C54.4131 86.383 54.5365 86.6088 54.7721 86.6817L64.3519 89.6441C64.4018 89.6595 64.4528 89.6669 64.5031 89.6669Z" fill="#3F3D56"/>
<path d="M66.6156 88.2192C66.8019 88.2192 66.9765 88.118 67.0424 87.956C67.1258 87.7504 67.0024 87.5246 66.7668 87.4517L57.187 84.4893C56.9518 84.4166 56.6928 84.524 56.6091 84.7297C56.5257 84.9353 56.649 85.1611 56.8846 85.234L66.4644 88.1964C66.5144 88.2118 66.5654 88.2192 66.6156 88.2192Z" fill="#3F3D56"/>
<path d="M77.5372 103.202C77.5514 103.202 77.5657 103.201 77.58 103.199C77.7774 103.179 77.9185 103.023 77.8952 102.851L77.0835 96.8712C77.0723 96.7884 77.0238 96.7129 76.9487 96.6614C76.8734 96.6099 76.7784 96.5868 76.683 96.5964L63.7929 97.9489C63.5955 97.9696 63.4547 98.126 63.4785 98.2982C63.5022 98.4706 63.6817 98.5943 63.8789 98.5726L76.4109 97.2577L77.1801 102.925C77.2018 103.084 77.3573 103.202 77.5372 103.202Z" fill="white"/>
<path d="M11.1604 108.978C14.8718 108.978 17.8804 106.353 17.8804 103.115C17.8804 99.8766 14.8718 97.2515 11.1604 97.2515C7.44907 97.2515 4.44043 99.8766 4.44043 103.115C4.44043 106.353 7.44907 108.978 11.1604 108.978Z" fill="#17D059"/>
<path d="M8.1074 102.2L10.2673 105.515C10.3958 105.712 10.7649 105.726 10.889 105.515C11.7326 104.077 12.924 102.805 14.3926 101.819C14.5478 101.715 14.6266 101.55 14.5217 101.389C14.4349 101.256 14.183 101.173 14.0292 101.276C12.4606 102.33 11.1706 103.659 10.2673 105.198H10.889L8.7291 101.883C8.50008 101.532 7.87779 101.848 8.1074 102.2Z" fill="white"/>
</svg>
