<svg width="115" height="121" viewBox="0 0 115 121" fill="none" xmlns="http://www.w3.org/2000/svg">
<path d="M111.441 25.1909H3.05279C1.55472 25.1909 0.335938 24.1275 0.335938 22.8204V15.5343C0.335938 14.2272 1.55472 13.1638 3.05279 13.1638H111.441C112.939 13.1638 114.158 14.2272 114.158 15.5343V22.8204C114.158 24.1275 112.939 25.1909 111.441 25.1909Z" fill="white" stroke="#BAB7C9" stroke-width="0.672" stroke-linecap="round" stroke-linejoin="round"/>
<path d="M111.441 70.1071H3.05279C1.55472 70.1071 0.335938 69.0437 0.335938 67.7366V60.4506C0.335938 59.1435 1.55472 58.0801 3.05279 58.0801H111.441C112.939 58.0801 114.158 59.1435 114.158 60.4506V67.7366C114.158 69.0437 112.939 70.1071 111.441 70.1071Z" fill="white" stroke="#BAB7C9" stroke-width="0.672" stroke-linecap="round" stroke-linejoin="round"/>
<path d="M34.4968 102.355H2.71685C1.21878 102.355 0 101.292 0 99.9844V92.6984C0 91.3913 1.21878 90.3279 2.71685 90.3279H34.4968C35.9949 90.3279 37.2136 91.3913 37.2136 92.6984V99.9844C37.2136 101.292 35.9949 102.355 34.4968 102.355Z" fill="#17D059"/>
<path d="M0.574219 0.629883H24.3462" stroke="#BAB7C9" stroke-width="0.672" stroke-linecap="round" stroke-linejoin="round"/>
<path d="M0.574219 45.5427H44.7329" stroke="#BAB7C9" stroke-width="0.672" stroke-linecap="round" stroke-linejoin="round"/>
<path d="M98.328 107.997L94.5898 110.082L97.9796 114.709L101.718 112.624L98.328 107.997Z" fill="#F1A1A4"/>
<path d="M86.473 45.8051L81.7509 47.2121L81.6768 41.2628L85.974 41.2209L86.473 45.8051Z" fill="#F1A1A4"/>
<path d="M82.228 42.9054C84.836 42.9054 86.9502 41.0608 86.9502 38.7852C86.9502 36.5097 84.836 34.665 82.228 34.665C79.62 34.665 77.5059 36.5097 77.5059 38.7852C77.5059 41.0608 79.62 42.9054 82.228 42.9054Z" fill="#F1A1A4"/>
<path d="M83.5197 38.3656C82.7309 38.3523 82.2013 37.6621 81.8854 37.0271C81.5694 36.3958 81.2447 35.6657 80.5103 35.409C79.9089 35.1999 78.8716 36.6601 78.3922 36.2798C77.8932 35.8825 78.3486 33.8062 78.8694 33.4316C79.3903 33.0571 80.105 32.9772 80.7762 32.9411C82.4214 32.8593 84.0754 32.9582 85.6923 33.2377C86.6903 33.4088 87.7232 33.6731 88.4489 34.2948C89.3706 35.0839 89.6191 36.2855 89.6975 37.4092C89.7803 38.5595 89.7171 39.765 89.0895 40.7803C88.4598 41.7937 87.1283 42.5486 85.8361 42.3052C85.6988 41.6948 85.8208 41.0693 85.8644 40.4457C85.908 39.8258 85.8448 39.1566 85.4046 38.666C84.9645 38.1755 84.0362 37.9891 83.5371 38.4322" fill="#2F2E43"/>
<path d="M89.3467 39.7375C89.8152 39.4314 90.3752 39.1728 90.9571 39.2299C91.5869 39.2888 92.1229 39.7375 92.2907 40.2699C92.4585 40.8023 92.2842 41.3917 91.9028 41.8328C91.5215 42.2739 90.9484 42.5667 90.3382 42.7169C89.9852 42.8044 89.5995 42.8405 89.2595 42.7169C88.7605 42.5344 88.486 41.9849 88.6755 41.5419" fill="#2F2E43"/>
<path d="M71.7748 78.6604C71.4784 80.0161 72.0689 81.2481 73.0975 81.4097C74.1239 81.5713 75.1982 80.6017 75.4967 79.246C75.6253 78.706 75.5969 78.147 75.4139 77.6166L79.0465 56.3672L74.1522 55.6143L72.5418 77.1678C72.1474 77.609 71.8837 78.1204 71.7748 78.6661L71.7748 78.6604Z" fill="#F1A1A4"/>
<path d="M81.6633 44.4827L78.3293 44.515C75.9758 44.8477 75.3504 45.9524 74.8427 47.983C74.0647 51.0803 73.0711 55.2081 73.2803 55.2652C73.6137 55.3602 79.3164 57.6342 82.2038 57.0714L81.6655 44.4827L81.6633 44.4827Z" fill="#17D059"/>
<path d="M85.7587 112.019L81.3223 112.062L81.3926 117.553L85.829 117.51L85.7587 112.019Z" fill="#F1A1A4"/>
<path d="M77.1021 120.924C76.6336 120.93 76.2218 120.924 75.908 120.901C74.7269 120.82 73.5959 120.071 73.0228 119.633C72.7657 119.437 72.6807 119.118 72.8092 118.844C72.9008 118.648 73.0882 118.498 73.3235 118.435L76.4288 117.629L81.4342 114.612L81.4909 114.699C81.5127 114.732 82.0182 115.505 82.1904 116.03C82.2557 116.23 82.2427 116.395 82.1468 116.525C82.0814 116.614 81.9899 116.667 81.9158 116.699C82.0073 116.781 82.295 116.949 83.1797 117.063C84.4654 117.23 84.7247 116.063 84.7334 116.013L84.7421 115.973L84.7792 115.95C85.3872 115.599 85.7598 115.441 85.8905 115.473C85.9733 115.492 86.1062 115.528 86.5116 118.692C86.5486 118.791 86.8145 119.517 86.6489 120.217C86.4702 120.977 82.6676 120.751 81.9093 120.7C81.8875 120.702 79.0459 120.907 77.0978 120.924H77.1043L77.1021 120.924Z" fill="#2F2E43"/>
<path d="M93.4827 120.01C92.9619 120.015 92.4825 119.964 92.1404 119.914C91.8048 119.865 91.5389 119.635 91.4823 119.342C91.4387 119.131 91.5106 118.92 91.6697 118.76L93.8139 116.642L96.2284 111.771L96.3308 111.819C96.3678 111.836 97.2656 112.26 97.732 112.625C97.9085 112.764 97.9978 112.91 97.9978 113.066C97.9978 113.172 97.9521 113.26 97.9063 113.319C98.0349 113.345 98.3792 113.353 99.1985 113.043C100.391 112.59 99.9024 111.48 99.8806 111.436L99.8632 111.398L99.8828 111.364C100.186 110.786 100.408 110.478 100.537 110.444C100.619 110.425 100.752 110.389 103.016 112.887C103.108 112.954 103.775 113.446 104.058 114.115C104.365 114.844 101.007 116.406 100.327 116.713C100.308 116.728 96.7971 119.004 95.3546 119.656C94.7814 119.914 94.0994 120 93.4783 120.004L93.4849 120.01L93.4827 120.01Z" fill="#2F2E43"/>
<path d="M88.4317 66.058L76.0107 66.1777L75.0127 76.2701L80.4191 113.475L86.7604 113.413L83.9515 91.9219L94.4853 111.249L100.077 107.751L91.8137 89.6916C91.8137 89.6916 94.4832 73.8649 92.1777 69.9519C89.8743 66.0389 88.4339 66.0522 88.4339 66.0522V66.058L88.4317 66.058Z" fill="#2F2E43"/>
<path d="M94.6163 66.615L74.8887 66.807L80.5239 44.4967L89.1205 44.4111L94.6163 66.615Z" fill="#17D059"/>
<path d="M96.5424 78.4202C96.8736 79.7721 96.3136 81.0137 95.2916 81.1943C94.2674 81.3768 93.1691 80.428 92.8401 79.0762C92.6984 78.5381 92.7115 77.9791 92.8793 77.4448L88.7041 56.2696L93.5766 55.4216L95.7361 76.941C96.1415 77.3745 96.4182 77.8822 96.5424 78.424V78.4202Z" fill="#F1A1A4"/>
<path d="M85.788 44.4435L89.1221 44.4111C91.4821 44.7001 92.1358 45.7915 92.698 47.8126C93.5544 50.8947 94.6505 54.9997 94.4457 55.0624C94.1123 55.1613 88.4727 57.5456 85.5723 57.0398L85.7924 44.4435L85.788 44.4435Z" fill="#17D059"/>
<path d="M12.0994 94.8097C12.0808 94.8414 12.0612 94.8648 12.0406 94.8797C12.0201 94.8946 11.994 94.9021 11.9622 94.9021C11.9286 94.9021 11.8904 94.8872 11.8474 94.8573C11.8045 94.8256 11.7504 94.791 11.685 94.7537C11.6216 94.7145 11.545 94.68 11.4554 94.6501C11.3658 94.6184 11.2585 94.6025 11.1334 94.6025C11.0158 94.6025 10.9122 94.6184 10.8226 94.6501C10.7349 94.68 10.6612 94.722 10.6014 94.7761C10.5417 94.8284 10.496 94.8909 10.4642 94.9637C10.4344 95.0346 10.4194 95.1121 10.4194 95.1961C10.4194 95.3044 10.4465 95.394 10.5006 95.4649C10.5566 95.5358 10.6294 95.5965 10.719 95.6469C10.8086 95.6973 10.9104 95.7412 11.0242 95.7785C11.1381 95.8158 11.2548 95.855 11.3742 95.8961C11.4937 95.9353 11.6104 95.981 11.7242 96.0333C11.8381 96.0856 11.9398 96.1518 12.0294 96.2321C12.119 96.3105 12.1909 96.4076 12.245 96.5233C12.301 96.6372 12.329 96.7772 12.329 96.9433C12.329 97.1206 12.2982 97.2868 12.2366 97.4417C12.1769 97.5966 12.0892 97.732 11.9734 97.8477C11.8577 97.9634 11.7149 98.0549 11.545 98.1221C11.377 98.1874 11.1857 98.2201 10.971 98.2201C10.8422 98.2201 10.7172 98.207 10.5958 98.1809C10.4745 98.1566 10.3597 98.1221 10.2514 98.0773C10.1432 98.0306 10.0414 97.9756 9.94624 97.9121C9.8529 97.8468 9.7689 97.774 9.69424 97.6937L9.86504 97.4081C9.88184 97.3857 9.90144 97.367 9.92384 97.3521C9.9481 97.3372 9.97517 97.3297 10.005 97.3297C10.0442 97.3297 10.089 97.3502 10.1394 97.3913C10.1917 97.4324 10.2552 97.4781 10.3298 97.5285C10.4064 97.577 10.4969 97.6218 10.6014 97.6629C10.7078 97.704 10.8366 97.7245 10.9878 97.7245C11.111 97.7245 11.2212 97.7086 11.3182 97.6769C11.4153 97.6433 11.4965 97.5966 11.5618 97.5369C11.629 97.4753 11.6804 97.4016 11.7158 97.3157C11.7513 97.2298 11.769 97.1346 11.769 97.0301C11.769 96.9125 11.742 96.8164 11.6878 96.7417C11.6337 96.667 11.5618 96.6045 11.4722 96.5541C11.3826 96.5037 11.2809 96.4608 11.167 96.4253C11.0532 96.3898 10.9365 96.3534 10.817 96.3161C10.6976 96.2769 10.5809 96.2321 10.467 96.1817C10.3532 96.1313 10.2514 96.066 10.1618 95.9857C10.0722 95.9036 10.0004 95.8018 9.94624 95.6805C9.8921 95.5573 9.86504 95.4061 9.86504 95.2269C9.86504 95.0832 9.89304 94.9441 9.94904 94.8097C10.005 94.6753 10.0862 94.5568 10.1926 94.4541C10.3009 94.3496 10.4334 94.2665 10.5902 94.2049C10.747 94.1414 10.9262 94.1097 11.1278 94.1097C11.3537 94.1097 11.5609 94.1461 11.7494 94.2189C11.9398 94.2898 12.105 94.3925 12.245 94.5269L12.0994 94.8097ZM13.5025 95.3305V98.1753H12.9565V95.3305H13.5025ZM13.6061 94.4513C13.6061 94.5017 13.5958 94.5502 13.5753 94.5969C13.5547 94.6417 13.5267 94.6818 13.4913 94.7173C13.4577 94.7509 13.4175 94.778 13.3709 94.7985C13.3242 94.8172 13.2757 94.8265 13.2253 94.8265C13.1749 94.8265 13.1273 94.8172 13.0825 94.7985C13.0377 94.778 12.9975 94.7509 12.9621 94.7173C12.9285 94.6818 12.9014 94.6417 12.8809 94.5969C12.8622 94.5502 12.8529 94.5017 12.8529 94.4513C12.8529 94.399 12.8622 94.3505 12.8809 94.3057C12.9014 94.259 12.9285 94.2189 12.9621 94.1853C12.9975 94.1498 13.0377 94.1228 13.0825 94.1041C13.1273 94.0836 13.1749 94.0733 13.2253 94.0733C13.2757 94.0733 13.3242 94.0836 13.3709 94.1041C13.4175 94.1228 13.4577 94.1498 13.4913 94.1853C13.5267 94.2189 13.5547 94.259 13.5753 94.3057C13.5958 94.3505 13.6061 94.399 13.6061 94.4513ZM15.2926 96.7557C15.3896 96.7557 15.4746 96.7426 15.5474 96.7165C15.622 96.6904 15.6836 96.654 15.7322 96.6073C15.7826 96.5588 15.8199 96.5009 15.8442 96.4337C15.8703 96.3665 15.8834 96.2928 15.8834 96.2125C15.8834 96.0482 15.833 95.9176 15.7322 95.8205C15.6332 95.7216 15.4867 95.6721 15.2926 95.6721C15.1003 95.6721 14.9538 95.7216 14.853 95.8205C14.754 95.9176 14.7046 96.0482 14.7046 96.2125C14.7046 96.2928 14.7167 96.3665 14.741 96.4337C14.7671 96.499 14.8044 96.556 14.853 96.6045C14.9034 96.6512 14.965 96.6885 15.0378 96.7165C15.1124 96.7426 15.1974 96.7557 15.2926 96.7557ZM16.1634 98.3237C16.1634 98.2565 16.1447 98.2033 16.1074 98.1641C16.07 98.123 16.0187 98.0913 15.9534 98.0689C15.8899 98.0446 15.8152 98.0278 15.7294 98.0185C15.6435 98.0073 15.553 97.9989 15.4578 97.9933C15.3644 97.9877 15.2683 97.983 15.1694 97.9793C15.0704 97.9737 14.9752 97.9644 14.8838 97.9513C14.7867 97.9998 14.7064 98.0586 14.643 98.1277C14.5814 98.1968 14.5506 98.278 14.5506 98.3713C14.5506 98.431 14.5655 98.487 14.5954 98.5393C14.6271 98.5916 14.6747 98.6364 14.7382 98.6737C14.8035 98.7129 14.8847 98.7428 14.9818 98.7633C15.0807 98.7857 15.1983 98.7969 15.3346 98.7969C15.469 98.7969 15.5875 98.7848 15.6902 98.7605C15.7928 98.7381 15.8787 98.7054 15.9478 98.6625C16.0187 98.6214 16.0719 98.572 16.1074 98.5141C16.1447 98.4562 16.1634 98.3928 16.1634 98.3237ZM16.7178 95.4369V95.6413C16.7178 95.7085 16.6758 95.7505 16.5918 95.7673L16.2866 95.8121C16.3127 95.87 16.3332 95.9316 16.3482 95.9969C16.3631 96.0604 16.3706 96.1276 16.3706 96.1985C16.3706 96.3385 16.3435 96.4654 16.2894 96.5793C16.2352 96.6913 16.1606 96.7874 16.0654 96.8677C15.9702 96.948 15.8563 97.0096 15.7238 97.0525C15.5931 97.0954 15.4494 97.1169 15.2926 97.1169C15.1638 97.1169 15.0434 97.1029 14.9314 97.0749C14.8754 97.1085 14.8324 97.1458 14.8026 97.1869C14.7746 97.2261 14.7606 97.2653 14.7606 97.3045C14.7606 97.3698 14.7876 97.4184 14.8418 97.4501C14.8978 97.4818 14.9696 97.5052 15.0574 97.5201C15.147 97.5332 15.2487 97.5416 15.3626 97.5453C15.4783 97.549 15.595 97.5556 15.7126 97.5649C15.832 97.5724 15.9487 97.5873 16.0626 97.6097C16.1783 97.6302 16.28 97.6648 16.3678 97.7133C16.4574 97.76 16.5292 97.8253 16.5834 97.9093C16.6394 97.9914 16.6674 98.0988 16.6674 98.2313C16.6674 98.3545 16.6366 98.474 16.575 98.5897C16.5152 98.7054 16.4275 98.8081 16.3118 98.8977C16.196 98.9873 16.0551 99.0592 15.889 99.1133C15.7228 99.1674 15.5343 99.1945 15.3234 99.1945C15.1124 99.1945 14.9286 99.174 14.7718 99.1329C14.6168 99.0918 14.4871 99.0368 14.3826 98.9677C14.2799 98.8986 14.2024 98.8184 14.1502 98.7269C14.0998 98.6354 14.0746 98.5402 14.0746 98.4413C14.0746 98.3032 14.1175 98.1865 14.2034 98.0913C14.2892 97.9942 14.4078 97.9186 14.559 97.8645C14.4768 97.8272 14.4115 97.7768 14.363 97.7133C14.3144 97.648 14.2902 97.5621 14.2902 97.4557C14.2902 97.4146 14.2976 97.3726 14.3126 97.3297C14.3275 97.2849 14.3499 97.241 14.3798 97.1981C14.4115 97.1533 14.4498 97.1113 14.4946 97.0721C14.5412 97.0329 14.5944 96.9974 14.6542 96.9657C14.5142 96.8873 14.404 96.7837 14.3238 96.6549C14.2435 96.5242 14.2034 96.3721 14.2034 96.1985C14.2034 96.0585 14.2304 95.9325 14.2846 95.8205C14.3387 95.7085 14.4134 95.6124 14.5086 95.5321C14.6056 95.4518 14.7204 95.3902 14.853 95.3473C14.9874 95.3044 15.1339 95.2829 15.2926 95.2829C15.539 95.2829 15.7508 95.3342 15.9282 95.4369H16.7178ZM17.7312 95.7253C17.7928 95.66 17.8572 95.6002 17.9244 95.5461C17.9916 95.492 18.0625 95.4462 18.1372 95.4089C18.2137 95.3697 18.2949 95.3398 18.3808 95.3193C18.4685 95.2969 18.5618 95.2857 18.6608 95.2857C18.8176 95.2857 18.9548 95.3118 19.0724 95.3641C19.1918 95.4164 19.2917 95.4901 19.372 95.5853C19.4522 95.6786 19.5129 95.7916 19.554 95.9241C19.595 96.0566 19.6156 96.2032 19.6156 96.3637V98.1753H19.0668V96.3637C19.0668 96.1602 19.0201 96.0025 18.9268 95.8905C18.8334 95.7766 18.6906 95.7197 18.4984 95.7197C18.3584 95.7197 18.2268 95.7533 18.1036 95.8205C17.9822 95.8858 17.8693 95.9754 17.7648 96.0893V98.1753H17.2188V95.3305H17.5464C17.6229 95.3305 17.6705 95.3669 17.6892 95.4397L17.7312 95.7253ZM22.7184 95.3305V98.1753H22.3908C22.3161 98.1753 22.2676 98.1389 22.2452 98.0661L22.206 97.7805C22.1444 97.8458 22.08 97.9056 22.0128 97.9597C21.9455 98.0138 21.8737 98.0605 21.7972 98.0997C21.7206 98.137 21.6394 98.166 21.5536 98.1865C21.4677 98.2089 21.3753 98.2201 21.2763 98.2201C21.1196 98.2201 20.9814 98.194 20.862 98.1417C20.7444 98.0894 20.6454 98.0166 20.5652 97.9233C20.4849 97.8281 20.4242 97.7142 20.3831 97.5817C20.3421 97.4492 20.3215 97.3026 20.3215 97.1421V95.3305H20.8704V97.1421C20.8704 97.3456 20.917 97.5042 21.0104 97.6181C21.1037 97.7301 21.2465 97.7861 21.4388 97.7861C21.5788 97.7861 21.7094 97.7534 21.8308 97.6881C21.9521 97.6209 22.066 97.5294 22.1724 97.4137V95.3305H22.7184ZM24.0265 97.4753C24.1161 97.5929 24.2122 97.675 24.3149 97.7217C24.4194 97.7684 24.5361 97.7917 24.6649 97.7917C24.915 97.7917 25.1082 97.7021 25.2445 97.5229C25.3826 97.3418 25.4517 97.0786 25.4517 96.7333C25.4517 96.5522 25.4358 96.3982 25.4041 96.2713C25.3742 96.1425 25.3294 96.038 25.2697 95.9577C25.2118 95.8756 25.1399 95.8158 25.0541 95.7785C24.9682 95.7393 24.8711 95.7197 24.7629 95.7197C24.6042 95.7197 24.4661 95.7552 24.3485 95.8261C24.2327 95.897 24.1254 95.9978 24.0265 96.1285V97.4753ZM23.9985 95.7561C24.0582 95.6852 24.1217 95.6208 24.1889 95.5629C24.2579 95.5032 24.3317 95.4528 24.4101 95.4117C24.4885 95.3688 24.5715 95.3361 24.6593 95.3137C24.7489 95.2894 24.8441 95.2773 24.9449 95.2773C25.1073 95.2773 25.2538 95.309 25.3845 95.3725C25.517 95.436 25.6299 95.5293 25.7233 95.6525C25.8166 95.7757 25.8885 95.9278 25.9389 96.1089C25.9911 96.29 26.0173 96.4981 26.0173 96.7333C26.0173 96.9442 25.9883 97.1402 25.9305 97.3213C25.8745 97.5005 25.7933 97.6564 25.6869 97.7889C25.5823 97.9214 25.4535 98.026 25.3005 98.1025C25.1493 98.1772 24.9785 98.2145 24.7881 98.2145C24.6182 98.2145 24.4726 98.1865 24.3513 98.1305C24.2299 98.0745 24.1217 97.9961 24.0265 97.8953V99.1301H23.4805V95.3305H23.8081C23.8846 95.3305 23.9322 95.3669 23.9509 95.4397L23.9985 95.7561Z" fill="white"/>
</svg>
