<svg width="16" height="17" viewBox="0 0 16 17" fill="none" xmlns="http://www.w3.org/2000/svg">
<path fill-rule="evenodd" clip-rule="evenodd" d="M5.62153 2.54451C5.6724 2.32201 5.85574 2.16602 6.06611 2.16602C6.87553 2.16602 8.8624 2.16602 9.97064 2.16602C10.1334 2.16602 10.2837 2.25952 10.3657 2.41252C10.4482 2.56502 10.4505 2.75401 10.3717 2.90901C9.94681 3.74301 9.26116 5.08902 8.83628 5.92302C8.75745 6.07802 8.75974 6.26701 8.84224 6.41951C8.92428 6.57201 9.07461 6.66602 9.23686 6.66602C9.80749 6.66602 10.5844 6.66602 11.1884 6.66602C11.3635 6.66602 11.523 6.77451 11.6 6.94601C11.677 7.11751 11.6578 7.32202 11.5505 7.47252C10.3955 9.09502 7.77066 12.782 6.21874 14.962C6.08766 15.1455 5.85803 15.2065 5.66461 15.109C5.47073 15.0115 5.3644 14.7815 5.40794 14.5535C5.77186 12.643 6.28428 9.95352 6.51023 8.76752C6.53819 8.62052 6.50382 8.46701 6.41719 8.35051C6.33011 8.23351 6.19948 8.16602 6.06152 8.16602C5.71457 8.16602 5.27136 8.16602 4.92028 8.16602C4.77911 8.16602 4.64574 8.09501 4.55911 7.97351C4.47203 7.85251 4.44132 7.69401 4.4757 7.54451C4.75986 6.30401 5.39053 3.55201 5.62153 2.54451Z" fill="#F41F13"/>
<path fill-rule="evenodd" clip-rule="evenodd" d="M5.94967 8.6665C5.73595 9.8525 5.25127 12.542 4.90706 14.452C4.82469 14.908 5.02584 15.3685 5.39216 15.5635C5.75848 15.7585 6.19332 15.6365 6.44042 15.269C7.90876 13.089 10.3915 9.402 11.484 7.78C11.6869 7.4785 11.7233 7.07 11.5776 6.72701C11.4324 6.38401 11.1302 6.1665 10.799 6.1665H8.95354L10.4054 3.15201C10.5545 2.84251 10.5506 2.465 10.3945 2.1595C10.2389 1.854 9.95453 1.6665 9.64716 1.6665H5.95401C5.55604 1.6665 5.20922 1.97901 5.11254 2.42401L4.02874 7.42401C3.96415 7.72251 4.02225 8.039 4.18655 8.282C4.35086 8.5245 4.60316 8.6665 4.87021 8.6665H5.94967ZM5.95401 2.6665H9.64716L8.1953 5.681C8.04617 5.9905 8.05008 6.36801 8.20615 6.67351C8.36178 6.97901 8.64617 7.1665 8.9531 7.1665H10.799L5.75589 14.6555L6.79851 8.87001C6.8514 8.57551 6.7868 8.26901 6.62206 8.03551C6.45732 7.80201 6.21065 7.6665 5.94967 7.6665H4.87021L5.95401 2.6665Z" fill="white"/>
</svg>
