<svg width="18" height="18" viewBox="0 0 18 18" fill="none" xmlns="http://www.w3.org/2000/svg">
<path d="M9 1.125C11.0886 1.125 13.0916 1.95469 14.5685 3.43153C16.0453 4.90838 16.875 6.91142 16.875 9C16.875 11.0886 16.0453 13.0916 14.5685 14.5685C13.0916 16.0453 11.0886 16.875 9 16.875C6.91142 16.875 4.90838 16.0453 3.43153 14.5685C1.95469 13.0916 1.125 11.0886 1.125 9C1.125 6.91142 1.95469 4.90838 3.43153 3.43153C4.90838 1.95469 6.91142 1.125 9 1.125ZM8.019 10.5536L6.26962 8.80312C6.20691 8.74041 6.13246 8.69066 6.05052 8.65672C5.96858 8.62278 5.88075 8.60531 5.79206 8.60531C5.70337 8.60531 5.61555 8.62278 5.53361 8.65672C5.45167 8.69066 5.37721 8.74041 5.3145 8.80312C5.18784 8.92978 5.11669 9.10157 5.11669 9.28069C5.11669 9.45981 5.18784 9.63159 5.3145 9.75825L7.542 11.9858C7.60454 12.0488 7.67893 12.0988 7.76089 12.133C7.84286 12.1671 7.93077 12.1847 8.01956 12.1847C8.10835 12.1847 8.19627 12.1671 8.27823 12.133C8.3602 12.0988 8.43459 12.0488 8.49713 11.9858L13.1096 7.37213C13.1732 7.30967 13.2237 7.23525 13.2584 7.15316C13.293 7.07107 13.3111 6.98293 13.3115 6.89383C13.3119 6.80472 13.2947 6.71642 13.2608 6.63401C13.2269 6.5516 13.1771 6.47672 13.1141 6.41367C13.0511 6.35063 12.9763 6.30068 12.8939 6.2667C12.8115 6.23272 12.7233 6.21538 12.6342 6.21569C12.5451 6.216 12.4569 6.23395 12.3748 6.2685C12.2926 6.30305 12.2182 6.35352 12.1556 6.417L8.019 10.5536Z" fill="#0DBA4B"/>
</svg>
