<svg width="13" height="13" viewBox="0 0 13 13" fill="none" xmlns="http://www.w3.org/2000/svg">
<path d="M6.65548 1.60761C8.2844 1.60761 8.4773 1.61371 9.12079 1.64305C9.50768 1.64778 9.89091 1.71883 10.2538 1.85309C10.517 1.95458 10.7559 2.11005 10.9554 2.30949C11.1548 2.50893 11.3103 2.74792 11.4118 3.01108C11.546 3.37397 11.6171 3.75719 11.6218 4.14408C11.6509 4.78757 11.6573 4.98047 11.6573 6.60939C11.6573 8.2383 11.6512 8.4312 11.6218 9.07469C11.6171 9.46159 11.546 9.84481 11.4118 10.2077C11.3103 10.4709 11.1548 10.7098 10.9554 10.9093C10.7559 11.1087 10.517 11.2642 10.2538 11.3657C9.89091 11.4999 9.50768 11.571 9.12079 11.5757C8.47759 11.6048 8.28469 11.6112 6.65548 11.6112C5.02628 11.6112 4.83338 11.6051 4.19018 11.5757C3.80328 11.571 3.42006 11.4999 3.05718 11.3657C2.79402 11.2642 2.55502 11.1087 2.35558 10.9093C2.15614 10.7098 2.00068 10.4709 1.89919 10.2077C1.76492 9.84481 1.69388 9.46159 1.68915 9.07469C1.66009 8.4312 1.6537 8.2383 1.6537 6.60939C1.6537 4.98047 1.6598 4.78757 1.68915 4.14408C1.69388 3.75719 1.76492 3.37397 1.89919 3.01108C2.00068 2.74792 2.15614 2.50893 2.35558 2.30949C2.55502 2.11005 2.79402 1.95458 3.05718 1.85309C3.42006 1.71883 3.80328 1.64778 4.19018 1.64305C4.83367 1.614 5.02657 1.60761 6.65548 1.60761ZM6.65548 0.508301C4.99955 0.508301 4.79096 0.515273 4.14021 0.544906C3.63386 0.554977 3.13288 0.65085 2.65859 0.828447C2.25172 0.981742 1.88321 1.22197 1.57875 1.53236C1.26807 1.83693 1.02764 2.20566 0.874253 2.61278C0.696656 3.08708 0.600783 3.58805 0.590711 4.09441C0.56166 4.74458 0.554688 4.95317 0.554688 6.6091C0.554688 8.26503 0.56166 8.47362 0.591292 9.12437C0.601364 9.63072 0.697237 10.1317 0.874834 10.606C1.02805 11.0131 1.26828 11.3818 1.57875 11.6864C1.88337 11.9969 2.2521 12.2371 2.65917 12.3903C3.13346 12.5679 3.63444 12.6638 4.14079 12.6739C4.79155 12.7029 4.99926 12.7105 6.65606 12.7105C8.31287 12.7105 8.52058 12.7035 9.17134 12.6739C9.67769 12.6638 10.1787 12.5679 10.653 12.3903C11.0581 12.2333 11.426 11.9934 11.7332 11.6861C12.0403 11.3787 12.2799 11.0107 12.4367 10.6054C12.6143 10.1311 12.7102 9.63014 12.7203 9.12379C12.7493 8.47362 12.7563 8.26503 12.7563 6.6091C12.7563 4.95317 12.7493 4.74458 12.7197 4.09383C12.7096 3.58747 12.6137 3.0865 12.4361 2.6122C12.2829 2.20513 12.0427 1.83641 11.7322 1.53178C11.4276 1.22132 11.0589 0.981086 10.6518 0.827866C10.1775 0.650269 9.67653 0.554396 9.17017 0.544325C8.52 0.515273 8.31141 0.508301 6.65548 0.508301Z" fill="#0DBA4B"/>
<path d="M6.65634 3.47754C6.03671 3.47754 5.431 3.66128 4.91579 4.00553C4.40059 4.34978 3.99904 4.83907 3.76192 5.41153C3.5248 5.984 3.46275 6.61392 3.58364 7.22164C3.70452 7.82937 4.0029 8.3876 4.44105 8.82574C4.87919 9.26389 5.43742 9.56227 6.04514 9.68315C6.65287 9.80403 7.28279 9.74199 7.85525 9.50487C8.42772 9.26775 8.91701 8.86619 9.26126 8.35099C9.60551 7.83579 9.78925 7.23007 9.78925 6.61044C9.78925 5.77955 9.45917 4.98268 8.87164 4.39515C8.28411 3.80761 7.48724 3.47754 6.65634 3.47754ZM6.65634 8.64404C6.25414 8.64404 5.86096 8.52477 5.52654 8.30132C5.19211 8.07786 4.93146 7.76026 4.77754 7.38867C4.62362 7.01708 4.58335 6.60819 4.66182 6.21371C4.74029 5.81923 4.93397 5.45688 5.21837 5.17247C5.50278 4.88807 5.86513 4.69439 6.25961 4.61592C6.65409 4.53745 7.06298 4.57772 7.43457 4.73164C7.80616 4.88556 8.12376 5.14621 8.34722 5.48064C8.57067 5.81506 8.68994 6.20824 8.68994 6.61044C8.68994 7.14979 8.47569 7.66704 8.09431 8.04841C7.71294 8.42979 7.19569 8.64404 6.65634 8.64404Z" fill="#0DBA4B"/>
<path d="M9.91133 4.08437C10.3154 4.08437 10.643 3.7568 10.643 3.35273C10.643 2.94866 10.3154 2.62109 9.91133 2.62109C9.50725 2.62109 9.17969 2.94866 9.17969 3.35273C9.17969 3.7568 9.50725 4.08437 9.91133 4.08437Z" fill="#0DBA4B"/>
</svg>
