<svg width="14" height="15" viewBox="0 0 14 15" fill="none" xmlns="http://www.w3.org/2000/svg">
<path d="M0 2.5684C0 1.48592 0.877522 0.608398 1.96 0.608398H12.04C13.1225 0.608398 14 1.48592 14 2.5684V12.6484C14 13.7309 13.1225 14.6084 12.04 14.6084H1.96C0.877522 14.6084 0 13.7309 0 12.6484V2.5684Z" fill="white"/>
<path d="M5.04 4.3884C5.04 5.08428 4.47588 5.6484 3.78 5.6484C3.08412 5.6484 2.52 5.08428 2.52 4.3884C2.52 3.69252 3.08412 3.1284 3.78 3.1284C4.47588 3.1284 5.04 3.69252 5.04 4.3884Z" fill="#0DBA4B"/>
<path d="M2.8 6.4884C2.8 6.33376 2.92536 6.2084 3.08 6.2084H4.48C4.63464 6.2084 4.76 6.33376 4.76 6.4884V11.8084C4.76 11.963 4.63464 12.0884 4.48 12.0884H3.08C2.92536 12.0884 2.8 11.963 2.8 11.8084V6.4884Z" fill="#0DBA4B"/>
<path d="M5.88 6.2084L7.14 6.2084C7.29464 6.20841 7.42 6.33377 7.42 6.4884V6.76841C7.98 6.0684 9.00667 6.02173 9.52 6.06839C11.1203 6.21387 11.3867 7.84173 11.34 8.7284L11.34 11.8084C11.34 11.963 11.2146 12.0884 11.06 12.0884L9.8 12.0884C9.64536 12.0884 9.52 11.963 9.52 11.8084V8.7284C9.47333 8.35507 9.212 7.6084 8.54 7.6084C7.868 7.6084 7.46667 8.4484 7.42 8.7284V11.8084C7.42 11.963 7.29464 12.0884 7.14 12.0884L5.88 12.0884C5.72536 12.0884 5.6 11.963 5.6 11.8084V6.4884C5.6 6.33376 5.72536 6.2084 5.88 6.2084Z" fill="#0DBA4B"/>
</svg>
